<svg xmlns="http://www.w3.org/2000/svg" viewBox="0 0 899.67 891.97"><defs><style>.cls-1{opacity:0.5;}.cls-2{fill:#fff;}</style></defs><g id="Слой_2" data-name="Слой 2"><g id="Слой_3" data-name="Слой 3"><g class="cls-1"><path class="cls-2" d="M822.74,73.39c4.51,2.56,5.73,7.52,8.43,11.43,4.82,7,8.6,14.75,14.59,20.91,2.61,2.69,3.26,6.28,5,9.36s.1,5.53-3.12,6.38c-3.66,1-6.19-2.73-9.51-2.07-4,.79-7.48-.73-10.32-2.61-3.09-2-3.06-1.15-3,1.56,0,3.11,0,6.22,0,9.33a73.58,73.58,0,0,1-20-21.27c-3.21-5.06-5.3-11-7.07-16.76-2.63-8.6-7.61-16.41-8.52-25.59,0-.41-.95-.93-1.53-1.07a2,2,0,0,0-2.54,1.1c-1.49,6-2.49,12.09-4.3,18-2.93,9.54-4,19.58-8.14,28.83-2,4.5-5.42,8-7.42,12.5-1.43,3.2-4.68,2.1,1.95-34.34,5.08-38.73,1.25-34.81-3.17-32.44-2.67,1.44-4.49,2.92-4,6.2.29,2.16-1.49,4-2.33,5.22-9.06,12.82-15.68,27.12-24.55,40.06-1.58,2.3-5.39,6.56-3.11,8.84,2.67,2.69,6.29-2.81,10.3-2.09,1,.18,2.28-2.45,3.68-3.44,3.73-2.64,5.22-7,8.08-10.24a2.33,2.33,0,0,1,2.81-.44,1.9,1.9,0,0,1,.88,2.62c-2.94,2.82-1,6.66-2.22,9.56a26.31,26.31,0,0,0-2,9.65c-.13,4.69,0,4.93,4.26,3.09.59-.26,1.75.26,2-.08,4-4.94,7.94-10,11.61-15.07,2.88-4,4.43-9.5,5-14.51,1.34-12.47,6.69-23.86,8.76-36.14,1.25-7.44,2.19-7.28-16,29.21-10.88,40.09-13.89,41.82-17.16,43.69-2.06,1.19-4.35,1.84-5.64,1-2.19-1.47.73-3.37,1.24-4.71,3-8,4.4-12,3.89-16.1a5.84,5.84,0,0,0-.83-1.73,10.08,10.08,0,0,0-1.46,1.12c-4,4.35-8.44,7.32-14.83,7.26-2.21,0-4.4,2.58-6.72,3.71a2.9,2.9,0,0,1-2.7-.4,2.77,2.77,0,0,1-.25-2.68c8.08-10.69,12.67-23.36,19.76-34.63,4.63-7.38,8.48-15.25,12.59-22.94,1.53-2.85,1-3.41-2-3.88-7-1.09-12.47,3.87-19.1,4.57-1.81.19-4.06,1.81-6.48,1.76-3.4-.08-6.26.22-9.34,2.81-4.65,3.91-11.93-.18-12.46-6.34a4,4,0,0,1,0-1c1.71-10.08-1.44-19.24-6.45-27.55-3-5.05-1.1-10-1.9-14.89,4.24-2.5.2-7.94,4-11,1.38-1.1-1.22-5.26,1.24-6.51,1.94-1,4.76-.28,7.19-.24,5.35.09,10.59-.12,15.89,1.89C730.36,3.93,736,.51,740.57,4.41c.59.5,1.78-.18,2.73-.78a9.62,9.62,0,0,1,10.48-.14c3.87,2.29,8.47-.24,12.52,2.78,1.86,1.39,3.84-3.19,6.07-4.68.51-.34,1-.74,1.48-1.11.28.57.89,1.19.81,1.72-.75,5.27.88,10.46-1.63,16-2,4.33-.4,10.26-.41,15.47,0,2.09-.38,4.26.09,6.24.72,3-3.67,5.33-1.88,7.28,2.4,2.62,6.5,1,9.85,1,2.25,0,4.65,1,6.85-1.09,1.72-1.63,2.75,1.75,5,1.36,2.78-.47,4.39-2.83,7.06-3.26.79-.13,1.59-1.41,2.16,0,.33.8.59,2.51-.63,2.71-2.92.46-4.91,3.48-8.39,2.58-4-1.05-3,2.15-3.51,4.38-.69,2.84,1.78,4.16,2.29,6.44,3.25,14.52,9.84,27.92,14.85,41.84a27.46,27.46,0,0,0,9,11.94c1.59,1.21,3,2.71,4.44,4.07,1.25-1.52,1.1-3.69,2.88-5.12,2.13-1.7,3.13-3.94,6.17-.49a11.19,11.19,0,0,0,9.83,3.75c1.94-.25,4.11-.63,5.66,1.52.34.48,2,.52,2.7.14,1.55-.82,1.15-2.84.67-3.73-1.67-3.16-3.26-6.73-5.88-9-5.06-4.28-6.89-10.56-10.32-15.73a115.5,115.5,0,0,1-8.12-13.23C822.68,75.89,823,74.67,822.74,73.39Zm-54.29-55c2.25-2.35,2.5-3.85-1.51-3.42-7.33.78-14.51,3.1-22,2.1-.27,0-.57.29-.88.36-11.27,2.55-17.69,3.16-28.85-2.24-2.85-1.38-6-4.33-8.44-3.91-4.93.86-1.85,6.54-3.74,9.56-3.37,5.41-1.43,10.52,1.71,14.73A26.07,26.07,0,0,1,710,52.11a91.07,91.07,0,0,0,.07,9.35c.23,2.37,3.86,3.89,6.08,2.57,3.8-2.27,7.71-3.7,12.22-3.22,1.3.14,3,.22,3.93-.45,7.79-5.53,16.59-6.1,25.7-5.83,4.2.13,6.26-2.75,8.59-6.78,1.7-2.94,1.85-5.63,1.87-8.62C768.47,32.2,768.45,25.27,768.45,18.34ZM718,3.13l-.74-.74a6.6,6.6,0,0,0-.66,1.4c0,.17.43.45.66.68Z"/><path class="cls-2" d="M413.51,259.2c-4.7,0-9.44,0-14.32-2.49-13.3-6.86-14.14-25.21-5.61-32.83,4.25-3.8,8.37-7.78,12.78-11.43,7.83-6.49,14.73-2.89,21.38-.14,5.62,2.33,10.27,7,15.29,10.78a4.07,4.07,0,0,1,1.68,2.38c.46,5.72,4.11,9.08,8.51,11.91,2.07,1.33,2.23,3.31,2,5.42-.31,2.74-2.49,1.64-4,1.8-1.65.17-3.08.14-4.71,1.25-6.43,4.37-12.68,9.4-21.13,9.21C423.1,260.88,418.05,259.17,413.51,259.2Zm9.78-16.57a1.84,1.84,0,0,0-1.49,2.14c.06.64-.17,1.78,0,1.86a1.47,1.47,0,0,0,2-1.37c.11-.83-.33-1.73-2,2.38v-.93a8,8,0,0,0-1.61.6c-.55.35-.41,1,.39,1.23C420.88,248.63,421.4,248,423.29,242.63Zm10.28-23c-1.27.47-.95,1.7-1.4,2.38-1.59,2.41,4,4.39.27,6.72a28.57,28.57,0,0,1-4.32,18c-.32.49,0,1.36,0,2.05a5.9,5.9,0,0,0,2.06,0c5.05-2,10.14-4,15.07-6.29,3.77-1.74,4-2.95.61-6.07-2.57-2.38-3.92-5.33-5.13-8.32-1.51-3.73-5.11-5.41-12.61,21.64v-.93a7.53,7.53,0,0,0-1.61.6c-.55.34-.42,1,.39,1.23C427.14,250.72,427.66,250.05,433.57,219.67Zm-40.92,20.18c.31,2.52-1,5.24,1.57,7.61,3.19,2.95,6.09,6.4,10.39,7.44,2,.5,5.07,1.43,6.5-1,.31-.54-3.24-1.68-4.89-2.52a27.79,27.79,0,0,1-4.9-3.14c-2.07-1.67-2.5-3.69-2.57-6.24-.1-3.13,3.05-5,2.34-8.49-.64-3.14-.82-6.72,1.87-9.51.23-.23-.18-1.25-.5-1.78s-.79-.26-1.46.38C396.09,227.3,391.34,232.08,392.65,239.85Zm18-6,.74-.74a6.15,6.15,0,0,0-1.4-.66c-.17,0-.46.42-.69.66Zm7.31-4.62c.27.28.51.51.74.74a6.56,6.56,0,0,0,.65-1.4c0-.17-.42-.45-.65-.68Zm-5.22.44c.27-.28.51-.51.74-.74a6.79,6.79,0,0,0-1.4-.65c-.18,0-.46.42-.69.65Zm15-9.39-.74-.75a6.79,6.79,0,0,0-.65,1.4c0,.18.42.46.65.69ZM423.6,214l-.75-.74a6.56,6.56,0,0,0-.65,1.4c0,.17.42.45.65.69Z"/><path class="cls-2" d="M307.76,238.26c-8.55.83-14.43-2.66-19.74-7.4-4.75-4.24-8.91-8.89-11.15-15.13-1.19-3.29-3.74-6.06-5.31-9.24-.53-1.06-2.49-1.59-1.64-3,.65-1.1,2.14-2.71,2.95-2.55,4.66.9,7.37-2.31,10.85-4.21,4.22-2.3,8.92-3.5,13.68-4.74,7-1.82,12.55-.06,18.5,2.11,8.2,3,13.66,9.54,19.63,15.4,1.22,1.19.61,2.6.61,3.89s.81,3.38-.75,3.69c-1.8.35-.87-1.93-1.48-2.85a20.28,20.28,0,0,0-2-3.21c-2.06-1.71-4.69-3.37-7.25-3.63-1.51-.15-.83,2.9-.93,4.52-.54,8.09-3.46,14-9.07,18.12-.45.34-1.23,1-1.14,1.19.54,1.14,1.71,1,2.69.87,6.77-.93,12.14-6.25,13.74-13.57a4.82,4.82,0,0,0,0-2.07c-.24-1.06,0-1.42,1.06-1a1.35,1.35,0,0,1,.73.72c.8,2.09.15,4.39,1.92,6.6.82,1-4.29,2.91-3.7,6.26C322.63,233.21,316.51,240.28,307.76,238.26Zm1.29-19.85v-.94a8.63,8.63,0,0,0-1.61.61c-.55.34-.41,1,.39,1.22.29.09.81-.57,2.43-3.74-.4.32-1,.57-1.18,1-.42.88,0,1.31.88.88a2.8,2.8,0,0,0,1-1.22C311,216.14,310.51,215.8,309.05,218.41Zm-13.44-21.68c-.67.59-1.29,1.57-2.07,1.72-5.47,1.08-9.34,5.83-15,6.47-1.35.15-2.81-.16-2.95,1.83-.12,1.71.73,2.21,2.38,2.43,2.85.39,1.31,4.37,3.88,5.16-1.19,5.17,3.39,7,5.85,10,.44.53,1,1,1.46,1.47a9.44,9.44,0,0,0,1-2.68c.22-4.44-.93-9.44.76-13.17,1.47-3.24,1.47-8.6,6.82-9.49,1-.16.92-.85.18-1.44A31.71,31.71,0,0,1,295.61,196.73ZM303.83,230c-.23.24-.69.52-.65.69a6.56,6.56,0,0,0,.65,1.4c.23-.23.69-.51.65-.68A6.63,6.63,0,0,0,303.83,230Zm-6-6-1.35.74c.23.24.52.69.69.66a6.35,6.35,0,0,0,1.4-.66Zm3.57-13.13,1.35-.74c-.24-.24-.52-.7-.69-.66a6.15,6.15,0,0,0-1.4.66Zm9.7-11.19c-.23-.23-.52-.69-.69-.65a6.56,6.56,0,0,0-1.4.65c.23.24.51.7.69.66A6.35,6.35,0,0,0,311.14,199.72Z"/><path class="cls-2" d="M805.1,8.65c-1.27-9.18,1.19-5.92,2.92-2.09.68,1.48,1,2.74,2.21.92,3.64-5.51,9-5.33,14.6-5.12,8.11.3,15.83-3,24.14-2.23,7.91.78,15.95.17,23.93.17,2.09,0,4.29-.44,6.22.11,2.27.66,6.08,1.45,2.14,5.06A33.68,33.68,0,0,1,875.48,26c-1.31,2-.47,4.1,1.08,6.41,5.37,7.95,1.83,15.66-1.66,23.19-.16.36-.92.51-1.43.6-.16,0-.62-.51-.58-.73.35-2.31-.58-4.61.73-7,2.81-5.11,1.71-10.3-.8-15.22-1.34-2.63-4-5-.88-8,1.77-1.78-.62-2.07-1.16-2.91-.93-1.44-4.14-3.08.68-3.22,1.67-.05,3.54.37,3.51-2.34,0-1.92,3.62-3.13,1.67-5.16C875.05,10,873.85,14,871.7,13c-.1-.05-.45.49-.72.7-10.93,8.41-23.66,8-36.46,7.63-2.85-.08-4.41-2.87-7.48-2.32-2.55.46-5.29.7-7.65-1.77-.6-.63-3.83-1.5-5.47,2.75-2.26,5.86-3.86,5.34-3.66,7.81.39,4.78-3,8.78-2.61,13.59.07.81-1.81,1.77-2.79,2.67-1-1.5-2.77-1.62-4.24-2.33-1.79-.86,0-1.55.73-1.67,4.55-.74,4.38-4,4.8-7.58,1.07-8.95-2.86-17.38-2.24-26.23.08-1.11-.68-1.8-2-1.75a25.78,25.78,0,0,1-5.2-.06c-1-.18-1.38-1.45-1.12-2.5a2.5,2.5,0,0,1,1.1-1.54c.57-.27,1.36-.06,8.37,8.29,8,8.35,9.13,8.53,9.2,8.32a1.44,1.44,0,0,0-1.41-2,4.13,4.13,0,0,1-3.28-1.71c-.43-.46-1.18-.31-1.33.51s-.06,2.32.44,2.6C809.76,17,811.14,17,805.1,8.65Z"/><path class="cls-2" d="M277.39,693.69c-7.81-.35-13.38,0-19.12-1.81-2.91-.94-4.77-5-7.16-3.71-4.58,2.38-4.41-4.95-8.1-3.19-1.63-2.22-5.18-2-6-5.73-.63-3-5.27-2.39-7.13-5.14-1.13-1.69-3-2.59-.35-4.62.68-.51.1-2.64.15-4,.29-7.82,1.49-9.85,9.29-13.51,1.53-.72.06-7.38,4.41-2.35,1.47-2.65,4.5-1.18,6.32-2.32,3.29-2,6.16-4.77,9.21-7.21-1.58-2,4.11-3.44.39-5.83-.68-.44-.59-2.63-.34-3.9,1.41-6.92-2.65-13.21-2.16-20,.08-1,.13-2,1.31-2.05.22,0,.7,1.06.77,1.67.3,2.29,2.94,3.65,2.17,6.44-2.37,8.54,4.59,16.56.78,25.72-2.11,5.06-3.27,7.46-9.28,7.91-7.94.6-13.78,6.86-20.43,10.85,3,2.32-1.08,4.3-.32,6.45a1.87,1.87,0,0,0,2.49,1.15c1.82-.85,3.48-2,3.76-4.32.47-3.88,4.64-3.35,6.61-5.43.64-.68,1.09-.78,1.47.19.24.61.48,1.72.21,1.92-3,2.33-4.07,6-6.31,8.92-3.05,3.88-2.71,4.88.44,8.59,2.72,3.22,6.11,4.88,10.07,6,1.27.35,2.4,1.43,3.56.39s.94-2.42-.24-3.51c-.78-.71-1.78-1.72-1.15-2.59,4-5.54,6.93-12.23,14.35-14.19,1.36-.36,3.59-1,4.35,1.34.49,1.53-.58,2.64-1.72,3.41-1.89,1.26-3.86,3.28-5.85,3.33-5.4.15-4.43,5.4-6.84,7.86-1,1-.6,4.16.1,6s3.68.12,4.59,1.07c3.36,3.55,8.43,1,12.1,3.87a5,5,0,0,0,6.5-1.33c.62-.87,2.29-1.15.19-2.75-4.21-3.19-3.69-3.68-2.92-8.62a18,18,0,0,1,4.07-8.78,4.2,4.2,0,0,1,5.55-1c2.27,1.45-.85,2.87-1.36,3.69-1.65,2.65-1.54,5.65-2.66,8.33-1.41,3.38-.12,5.88,3,6.44a11.33,11.33,0,0,0,10.09-3.14c4.46-4.59,10.43-8,12.83-14.42.41-1.1,1.83-1.37,2-.18.63,6.08,3.49,1.16,3.62.45,1.24-6.45,5.69-11.8,6.66-18.07.78-5,7-8,4.54-13.82,3.29-3.65,2.63-7.2,0-10.88a1.81,1.81,0,0,1,1.06-2.51,2.81,2.81,0,0,1,2.83.66,8.39,8.39,0,0,1,1.43,11.14c-2.28,3.35.46,7.33-3.1,10.4-2.41,2.08-2.4,6.75-4.53,9.39-2.28,2.83-1.89,4.95-.43,7.55-4,5.76-5.11,14.13-14.24,15.17-1.14.12-2.34,1.31-3.17,2.3-4.39,5.23-9.68,9.56-16.07,11.54C285.16,694.29,280.07,693.57,277.39,693.69Z"/><path class="cls-2" d="M307.51,823.13c-4.79-.19-8.06.54-10.83-2.81s-2.24-7.44-4.26-10.8a2.33,2.33,0,0,1,.59-2.82c5.85-5.15,7.48-12.93,11.76-19.11a129,129,0,0,1,18.49-21.46,23.53,23.53,0,0,1,5-3c4.15-2.23,8.36-.35,11.05,1.93,2.36,2,.86,5.68-.73,9.08-1.93,4.14-6.32,6.86-6.6,11.85-.06,1.07-.9,1.56-2.14,1.59-4.55.13-5.75,5.1-9.54,6.68-3.23,1.35-2.46,2.32.49,4.64a7.56,7.56,0,0,1,.89,11.33c-2.12,2.33-2.33,6-5,8.34C313.62,821.3,311.26,825.49,307.51,823.13ZM334,770.45c.24-3.68-1.54-4.34-2.49-3.66-2.65,1.91-5.8,2.84-8.25,5.31-6.15,6.2-10,14.12-15.94,20.44a2.78,2.78,0,0,0,.13,2.69c1.14,1.35,1.34-.72,2.12-.88,5.54-1.14,9.18-5,13-8.74,1.63-1.6,3.49-3.09,5.27-4.53A18.56,18.56,0,0,0,334,770.45Zm-35.4,42.25c.22,5.88,2.94,7.28,8.57,5,3.95-1.57,6.67-4.43,9.25-7.42a6.24,6.24,0,0,0,.25-7.45c-.74-1-4-1.16-5.7-.55-3.34,1.19-6.1,3.74-9.1,5.52C299.51,809.24,298.3,810.08,298.61,812.7Z"/><path class="cls-2" d="M270.46,821c-1.69,0-2.74.06-3.77,0-2.5-.17-8.19-4.12-7.56-5.64,1-2.4.67-5.49,4.15-7.06,3.84-1.72,7.07-4.8,10.5-7.39,1.36-1,2.71-2.36,1.46-4.25a2.9,2.9,0,0,0-3.75-.59c-3.15,3.16-8,.47-11.12,3.58-1.08,1.08-2.5.64-3.52-.55s-2.43-1.65-3.5-.58c-1.43,1.43,1.63,2.65,1.14,2.74a9.28,9.28,0,0,0-7.67,9.11c.23,4.95-5.91,5.83-4.83,10.86.53,2.47-4.53,2.25-5.27,5.91-.39,1.94-3.37,4.1-4,6.6-2.22,9.08-9.53,14.83-14.17,22.3-.56.9-1.55,2.84-2.8,2-1.57-1-1.23-4-.46-4.65,4.4-3.55,4.76-9.29,8-13.54A77,77,0,0,0,234,821.38c2.1-5.44,6.76-9.46,9.39-14.87,3.82-7.86,9-15,13.32-22.68a20.27,20.27,0,0,1,1.95-3.35c1-1.17,2.23-1.75,3.56-1,1.52.81,1.23,2.71.78,3.72-1.44,3.29-2.59,6.8-5.62,9.2a2.88,2.88,0,0,0-.22,2.71c1,1.7,1.39-.44,2.14-.56,4.86-.77,9.24-3.71,14.51-2.85,3.7.6,6.79,3,7.48,6.76a2.36,2.36,0,0,0,.46.71c-4.35,3.07-4.63,10.25-10.76,11.24a8.6,8.6,0,0,0-5.21,2.66,2.47,2.47,0,0,0-.41,2.82c.44,1.12,2.27,1.35,2.59.87,2.15-3.22,6.76-.81,8.9-4a1.9,1.9,0,0,1,2.63.75,3.28,3.28,0,0,1-.23,2.74C276.71,818.86,274.52,822.49,270.46,821Z"/><path class="cls-2" d="M284,153.92c-.62-5.46,2.15-10.57,3.46-16a8.93,8.93,0,0,0,.7-2.8c-.47-5.08,1.41-7.85,6.9-7.53,1,0,1.59-1,1.5-2.2a1.88,1.88,0,0,0-1.85-1.93c-6.53-1.13-12.41,2.12-18.66,2.78-.27,0-.5.68-.74.68-8.06,0-15.43,2.78-22.5,6.08-2.49,1.16-2.44-1.61-4-1.2-1.7.46-4-1.07-4.63,2.36s-2.81,2-4.3.44c-.53-.57-3.77-1.5-1-2.24,4.65-1.27,8.69-5.91,14.14-3.24.75.37,1.25.84,1.47-.17,1.43-6.56,8.44-1.62,11.13-5.48,3.22.86,5.86-.94,8.49-2.15,5.46-2.51,11.19-1.9,16.88-2,1.67,0,4.44.23,4.82-.56,2-4.17,6.75-2.72,9.52-5.06,1.08-.92,1.94-1.91,1.67-3.49a4.44,4.44,0,0,1,3.65-5.31c4.09-.56,4-4,5.58-6.31.41-.59,6.76-6.28,7.42-6.39a5,5,0,0,0,4.15-3.89c.76-3.22,2.79-3.8,5.71-4.65,6.19-1.79,12.26-4.38,11.13-12.89-.13-1,.86-1.64,2.12-1.59s1.91.64,2,1.79a20.77,20.77,0,0,1-1.32,8.31c-.83,2.28-.89,3.33-4.44,5.08-5.72,2.83-11.31,5.87-15.16,11.11-2.12,2.9-6.18,2.86-8,5.86-3.44,5.62-3.44,5.57-6.91,7.61-1.42.83-3.76,2.34-3.61,3.19.94,5.63-3.67,6.35-6.74,8.65-2.41,1.81-4.89,3.91-4,7.73.42,1.7-.16,2.64-2.31,3.55-4.28,1.8-5.52,5.53-6.39,10.44a118.17,118.17,0,0,0-1.71,16.92c0,1.1-.73,1.72-2,1.73s-2-.59-2.08-1.67C283.88,157.74,284,156,284,153.92Z"/><path class="cls-2" d="M243.22,731.19c-10.81.61-21.43-1.44-31.43-4.74A94.26,94.26,0,0,1,185,713c-5.28-3.91-12.11-5.84-18.4-8.24a13.28,13.28,0,0,0-10.63.61,28.2,28.2,0,0,0-7.22,5c-4.25,3.67.78,6.46-.29,9.76-.86,2.62,0,3,4.06,2.63a5.36,5.36,0,0,1,5.3,2.35c.38.51.88,1.17.82,1.72-.32,3.1-3.11,4.49-5.12,6.08-1.26,1-3.72.87-5.57-.88-3.44-3.28-8.06-7-7.6-11.24a25.79,25.79,0,0,1,6.08-14.07c6-6.9,15.21-9.21,24.51-4.84,2.31,1.09,4.41,3.17,7.47,2.21.81-.25,2.44,0,2.75.61,2.71,4.95,8.38,5.18,12.46,7.91s9.14,3.46,13,6.17c6,4.19,13.08,3.59,19.44,6,8.4,3.19,17.4,2,26.18,2.32,2.65.09,4.29-1.6,6.46-2.08,1.41-.32,3.73-1,4.33,1.31s-1.28,2.15-2.9,2.92C254.61,731.87,248.87,730.87,243.22,731.19Z"/><path class="cls-2" d="M597.22,808.35c.36,2.7-.56,3.91-3.44,4.83s-3.34,4.76-4.72,7.3c-.81,1.5-1.4,4.82,2.94,4.84,2.3,0,2.66,4.38,6,4.1.9-.07,1.48,1,.32,2-4.76,3.91-13.92,2.44-15.51-3.16-1.16-4.09,1.4-8.31,3.58-11.91,1.4-2.31,3.8-4,5.81-6a4.14,4.14,0,0,0,.68-4.8c-1.46-2.75-2.2.81-3.62.9-11,.7-14.22,9.22-17,17.76-.77,2.4-1.67,5-3.79,4.3-2.73-1-3.57-3.25-.93-6.43,2.14-2.56,2.52-6.53,3.92-9.78.86-2,1.44-4.16-.22-5.57s-2.91.53-4.27,1.51c-.7.5-2,.1-3,.23-2,.26-5.17-1.05-5.77.67-.84,2.44-3.6,4.21-2.78,7.21,1,3.56-1.5,6.37-2,9.58-.28,1.69.17,3.7-2.46,3.37-2.09-.26-4.78-3.88-3.68-5.11,1.58-1.74,1.16-4,2.09-5.41,2.74-4,1.09-9.2,4-13,1.83-2.4,2.9-5.09,7.08-2.08,3.81,2.76,7.75-2.69,12.44-1.73,3.37.69,7.05,5.49,10.87.32.49-.67,2.77.24,4-.15C595.92,799.57,597.31,800.44,597.22,808.35Z"/><path class="cls-2" d="M137.34,798c1.66.5,4.38-1.29,4.67,2.21a5.78,5.78,0,0,1-4,6.15c-4,1-5.23,2.74-3.88,5.66s4.08,3.23,6.51,1c5.22-4.88,7.32-11.6,9.56-17.92,2.81-7.91,7.08-15.58,6.45-24.45,4.22-6.05,4.08-13.65,7-20,1.71-3.68,1.35-7.55,3.12-11.25,2.46-5.17,7.33-8.46,9.28-13.86.45-1.23,2.58-.93,3.37.42.53.91,3.08,1,1.47,2.89s-2.54,4.09-3.87,5.61c-7.51,8.54-10.71,18.51-12.2,29.49-.46,3.37-2.94,6.42-4,9.77-2.76,8.93-5.12,18-8.25,26.82-1.65,4.66-4.24,8.7-6.09,13.12-1,2.35-1.85,4.38-4.08,5.21-3.46,1.27-7-.43-9.39-2.22-3.55-2.67-4.35-7.75-4.88-11.79C127.61,800.59,132.08,798,137.34,798Z"/><path class="cls-2" d="M332,815.21c1.92-6.65,1.62-15.43,9.12-21a3.35,3.35,0,0,1,2.74,0,1.85,1.85,0,0,1,.57,2.68c-4.6,4.6-4.75,11.27-7.84,16.58-.81,1.39-2.16,4.69,1.95,5.44,2.29.41,3.87,3.54,6.86.35,3.18-3.38,4.64-6.6,2.31-10.73-.7-1.25-1.6-2.35-.69-3.56,1.24-1.66,3.27-.78,4.83-.63,1.12.11,1.59,2.11,3.31,2,2.67-.19,5.55.59,7.4-2.32a7.53,7.53,0,0,1,2.19-2.2c2-1.33,3.19-5.87,6.34-3.14,2.69,2.34-1.53,4.43-2.08,6.89-.74,3.33-3,6.39-5,9.33-1.29,1.95-.64,3,.72,4.35s2.37,2.43,4.32,1.18c1.63-1,3.4-1.88,5-3,2-1.39,2,1,2.91,1.57,1.35.78,1.63,2.69.38,3.38a46.26,46.26,0,0,1-10.52,4.66c-4.94,1.26-7.43-1.14-7.67-6.48-.08-1.73,0-3.47,0-5.2,0-1.39.07-2.77-2-2.84s-1.93,1.13-2.31,2.55a18,18,0,0,1-2.47,5.2c-5,7.49-13,5.73-19.18.75C331.93,820,332.09,819.83,332,815.21Z"/><path class="cls-2" d="M165,807.44c-.31-4.45-.36-9.81,3.69-14.17,2.75-16,10.52-30.41,15.09-45.84.09-.32-.13-.79,0-1,1.55-2.23,1.15-7.5,4.23-6.53,5,1.59.74,5.21-.09,7.9-3.44,11.08-7.3,22-10.16,33.26-.68,2.66-7,3.58-2.67,7.88.09.09-3.79,3-3.64,4.37.65,5.58-1.69,10.55-2.28,15.84-.18,1.63-.42,3.58,2.29,3.5,2,0,4.25.5,4-2.93-.13-1.91-1-4.26,1.26-5.68,1.48-.95-.2-3.81,2.35-3.89a17.69,17.69,0,0,1,6.06.44c2.85,1,3.23,4.11,1.92,7.78-1.44,4-4.62,6.57-7.46,9.4-1.2,1.2-12.83,1.73-13.92.76a2.68,2.68,0,0,1-.69-1.76C164.93,814,165,811.19,165,807.44Z"/><path class="cls-2" d="M515.31,166c23.34,4.91,24.51,11.5,19.55,16.78,2.9,3.4-.19,6.55-1.88,7.72-3.46,2.39-1.32,6.72-4.23,8.86a12.74,12.74,0,0,0-1.48,1.46c-.35-.9-1.26-2.07-1-2.65,4.05-8.06,4.3-17,6.47-25.5,1.65-6.41,1.68-12.63,1.77-19,0-2.43-3-4.42-4.83-2.89-7.65,6.48-17.84,7.39-26.24,12.25-2.93,1.7-4.82,5.41-9.67,4.74-2.64-.37-5.63,3-9,4.08-4.81,1.59-9,5-13.48,7.63-1.36.81-3.07.77-3.41-.59s-1.19-4.08.57-4.75c5.81-2.22,10.59-6.54,16.22-8.59,9.95-3.64,19.58-8.21,29.88-11,1.4-.38,4.95-.69,5.66-4.53.53-2.87,5.12-.25,7.11-1.73,2.49-1.85,4.53-2.95,7.21-.73s4.82,4.68,4.24,8.7c-.39,2.72-.07,5.54-23.51,9.73-23.12,1.41-22.81,1.41-22.5,1.41a7.74,7.74,0,0,0-.6-1.61c-.35-.55-1-.42-1.23.39C490.89,166.43,491.56,167,515.31,166Z"/><path class="cls-2" d="M361.23,658.74c.33,5.44-3.49,9.9-2.07,15.13,2.58,9.54,5,19.14,13.36,25.65a2.83,2.83,0,0,0,2.7-.19c1.21-1.14-.93-1.36-.93-2.14,0-2.75-3.25-4.28-2.62-7.27.27-1.31-.21-3.07.5-3.92,1.37-1.66,2.53,1.61,2.68,1.1.85-2.78,3.54-4.71,3.25-8.11-.15-1.85,3.83-2.92,5.47-1.71a2.07,2.07,0,0,1,.5,2.77c-1.14,1.67-3.18,2.86-3.93,4.64-3.16,7.47,0,13.46,4.77,19.15,1,1.25,5.09,1.82,1.81,5.14-2.79,2.81-3.58-2.76-5.83-1-7.1-4.44-14-9.06-19.7-15.38-2.62-2.91-1.88-6.89-4.07-9.81-.33-.45-.1-1.36,0-2.05.3-3.22-2.4-5.26-3.16-8.06-3.94.64-8.49-1.74-11.79,1.54-2.65,2.63-4.57,3.69-7.57.65-.68-.69-2.67-.1-4.06-.1s-2.71-.07-2.71-2.11a1.79,1.79,0,0,1,1.71-2.05c6.05-.85,11.07-7.18,18.38-2.35,3.1,2.05,9.3-3.81,9.64-8.61a3.92,3.92,0,0,1,2.7-3.48C363.1,655.89,359.54,658.54,361.23,658.74Z"/><path class="cls-2" d="M400.51,816.8c7.06,0,8.47-1.14,10.91-7.78a83.12,83.12,0,0,1,4.14-8.69c.94-1.87,4.39-3.21,5.41-2,1.47,1.7,1.68,4.37.08,5.47-3.91,2.67-3.55,6.38-3.38,10.12s2.4,5.21,6.56,3.49c2.09-.86,4-.25,6-.56,1.28-.2,1.83.59,2,1.71a2,2,0,0,1-1.29,2.4c-.94.27-1.87.12-2.77.91-4.71,4.17-9.4,3.8-13.52-.78-2.42-2.69-3.91-2.35-6.64-.08-5.33,4.42-17.82.62-19.6-5.58a2.82,2.82,0,0,1,.24-1.95c3.24-5.93,4.09-13.13,9.51-17.92.91-.81,1.54-2.22,3-.48,1.07,1.31,2.78,2.46,1.49,4.27s-3.14,2.82-4.3,4.5c-1.82,2.66-3.71,5.29-3.77,8.86,0,2.92.42,4.71,3.85,4.15A12,12,0,0,1,400.51,816.8Z"/><path class="cls-2" d="M208.28,812.62c3,1.41,4.82-1.59,7.33-2.21,1.79-.45,3.08-2.42,5.4-2,1.07.18,2,.32,2.38,1.36a2.41,2.41,0,0,1-.16,2c-2.93,3.81-7.73,4.73-11.65,6.94-2.21,1.25-5.56.25-8.43-1.7-4.89-3.33-6.16-7.5-2.6-11.76,2.55-3.05,4.91-6.26,7.35-9.4,5.3-6.83,12.79-6.5,20.26-6.1,1.06.06,1.57.9,1.58,2.14,0,3.12.4,7-3.06,7.95-7.19,2-12.53,8.13-20.27,8.68a1.74,1.74,0,0,0-1.79,1.94c-.06,1.88,1,2.27,2.56,2.22ZM212,802c3.29-3.18,8.74-3,11.29-7.28,0-.07-.43-.64-.71-.69-4.27-.66-6.58,3.93-10.63,4-.36,0-.75,1-1,1.58a1.27,1.27,0,0,0,0,1A10.78,10.78,0,0,0,212,802Z"/><path class="cls-2" d="M492.35,806.07c2.29-.28,3.73,2.92-.59,2.39-2.08-.25-1.09,1.86-1,2,2.78,3.22.64,5.94-1.13,8.27-1.4,1.85.2,2.12.79,3,1.19,1.79,2,.68,3-.29a15.68,15.68,0,0,1,3.13-2.51,1.92,1.92,0,0,1,2.48,2.12c-2.1,6-11.2,8.32-15.72,4-1.45-1.4-1.33-5.84.35-8.44a8.81,8.81,0,0,1,2.2-2.19c.84-.62.91-1-.07-1.5-.28-.14-.76-.37-.9-.26-3.26,2.65-6.45,1.21-9.76,0-1.2-.43-3.47-.19-3.05,1.45.9,3.47-2.83,5.32-2.29,8.55.41,2.44-1.6,3.18-3.11,2.15-.93-.65-3.7-1-1.92-4.39,2.05-3.84,1.18-9,4.58-12.67,1.87-2-.87-5.43,1.52-7.67,1.23-1.17,2.32-2.86,4.27-2,1.53.7.54,2.56,1.06,3.68.9,1.94-3.49,2.38-.91,4.95s5.11,1.43,7.71,1.59c1,.06,1.21-1.11,1.55-2.15,2.07-6.22,2.16-6,7.1-6.2,3-.14,3.58,1.19.72,6.06-1.63,2.69-1.35,2.38-1.62,1.39a23.62,23.62,0,0,0-.58-2.68c-.26-.64-1-.5-1.31.36C488.38,806.4,488.47,807.62,492.35,806.07Z"/><path class="cls-2" d="M522.24,829.33c-5.82,1-11.27-.38-13.29-7.88-4.55-3,.41-5.43.9-7.78.82-4,1.73-8.11,7.8-9.83,6.94-2,12.91-2.41,18.72,1.4,2.65,1.74,3.94,5.08,4.48,8.43.49,3-.31,5.5-3,7.06-1.87,1.1-.21,5.45-4.21,4.42-1.08,3.86-3.71,4.93-7.43,4.21A25.14,25.14,0,0,0,522.24,829.33Zm.67-4.18c4.17,1,6.12-1.54,8.37-5.62,1.46-2.63-.51-6.54,3.25-8.09.23-.09.55-2.37-.7-2.61-3.48-.66-6-4.3-10.86-.94-3.32,2.3-3.7,8-9,7.63a10.53,10.53,0,0,0-.3,1.85C513.08,823.39,515,825.17,522.91,825.15Z"/><path class="cls-2" d="M238.05,167.36c3.13,0,7.53,1.29,9.12-.28,3.13-3.07,4.57,1.26,6.91.33,8.68-3.48,16,1.41,23.66,4.09a6.56,6.56,0,0,0,2.08,0c-.41,3.86-.5,4-2.19,3A36.78,36.78,0,0,0,261,169.77c-5.82-.36-12.27-2.66-17.93,1.67-.87.67-2.71,0-4.09.11-3.59.32-7,.06-10.73,1.75-4.93,2.24-10.45-.69-15.14-3-3.45-1.67-4-.76-4.47,2.32-.19,1.12-1.67,1.79-2,3.33s-1.48,4.3-3.62,2.91c-1.09-.72-.86-3.59.67-5.5.87-1.1,4.24-1.31,1.84-4.47-1.2-1.57-1.89-4-5-5.75-.15-2,1.28-1.78,2.6-2.15,2.22-.64,2.24-2.3.81-3.75-.83-.83-2.63,0-3.36-1.46a9.43,9.43,0,0,0,2.63-1,26,26,0,0,0,5.14-4.77c2.27-3.24,3,1.6,4.71.63.25,3.21-4.06,1.22-4,3.2.05,2.13-3.44,4.15,0,6.49a12.56,12.56,0,0,1,4.61,6.25c.79,2.13,3.21,4.88,6.24,1.34,1-1.15,2.49-.92,3.45.33,1.28,1.68,3.77,1.81,4.53,1.06,3.15-3.12,5.78-.69,8.68,0C237.37,169.59,238.29,168.64,238.05,167.36Z"/><path class="cls-2" d="M438.45,627.78c.47,1.05,2.52,1.05.92,3.7-3.29,5.46-5,11.77-7.32,17.79-5.19,13.74.11,24.39,8.28,34.61a26.12,26.12,0,0,0,3.69,3.67c.8.67,1,1.38.07,1.45-6,.48-2.42,5.19-3.58,7.78-.48,1.07-1.93.62-2.64,1.08a10.9,10.9,0,0,0-3.46,3.53c-.85,1.47,1.33,4.36-2.16,4.73,0-2.08.12-4.18,0-6.25-.13-1.74,1.45-2.19,2.14-3.3,3.3-5.27,2-9.87-1.84-14.21-1.94-2.2-5.64-3.73-2.47-7.81.82-1.06-1.39-2.09-2.23-3.1s-2.34-1.86-1.79-3.41c1.64-4.67-4.13-9.29,0-13.92-1-5.08,2.51-8.69,4.23-12.85,1.84-4.45,4.11-8.72,6.22-13.06C436.84,627.38,437.28,626.26,438.45,627.78Z"/><path class="cls-2" d="M536.29,128.34c-1.13-2.31,2.68-4.78,2.5-8.2-.16-2.72.74-6-4-5a3.43,3.43,0,0,1-1.75-.52c1.64-7-9.18-8.58-6.92-16,.77-2.56-1.9-2-3.46-2.26s-3.67,1.13-5-2-2.28-6.23-1.69-9.58c.19-1.11,1.9-1.34,2.61-.86C520.2,85,522.2,86,522,88.5s.07,4,3.21,3.75a4.38,4.38,0,0,1,5,4.93c-.18,2.47,2,3.38,2.3,5.38.55,3.11,2.75,4,5.87,4.35,6.21.67,7.25,1.69,6.45,7.63-.73,5.42-2.51,10.72-4.13,16-.41,1.35-1.74,3.31-3.36,2.92S537,131,536.29,128.34Z"/><path class="cls-2" d="M632.8,623.1c-.22,1.5.28,2.55-.8,3.37-7.32,5.52-13.31,12.44-22.21,16.31-11.17,4.85-23,8.18-33.54,14.48-1.35.82-2.84,1.24-3.78.72-2.37-1.3-4.17-1.21-6.74-.08-2.25,1-5.17-.12-7.51,2.14-.9.87-3.34.21-5.07.1a5.32,5.32,0,0,1-1.71-.84c.42-.41.83-1.14,1.26-1.15,2.69-.09,4.45-2.26,7.45-2.39a52.81,52.81,0,0,0,22.34-6.13c4.93-2.6,11.26-1.13,15.34-5.72,11.3-2.79,19.82-10,28.11-17.61,1.45-1.34,2.29-3.62,4.7-3.66C631.34,622.63,632.76,621.82,632.8,623.1Z"/><path class="cls-2" d="M267.29,200.77c-.11,2.62.75,5.5-2,7.42,3,1.89,2.25,5,1.86,7.51-1.26,8.09-3,16.12-4.58,24.15-.11.57-.93,1-1.42,1.48,5,4.67.32,9.31-.29,13.83-.87,6.44-2.65,12.76-4.05,19.13-.24,1.09-.76,1.89-2.08,1.66-1.43-9.9,3.52-19.35,2.09-29.25,3.09-3.81,1.92-8.33,2.08-12.63,0-1-.39-2.45.13-3,6.27-6.94,3.58-15.39,4-23.27C263.21,204.47,263.62,201.75,267.29,200.77Z"/><path class="cls-2" d="M254.76,313.53c-4-1.24-1.79-4.54-2-6.83-.48-5.61-.26-5.54-5.38-5.71-11.38-.39-22.24,2.16-32.84,5.89-2.6.91-5.44-.9-7.75,1.32-2,1.92-4.19,1.84-6.34.12a8.88,8.88,0,0,1,5-2.62c4.51.21,8.16-2.92,12.54-2.61,2.45-4.26,8.23.07,10.78-4.13.19-.31,1.32,0,2,0,10.83.13,21.41-3.5,32.32-2.09,0,.34.09.95,0,1C255.25,300.38,253.74,306.28,254.76,313.53Z"/><path class="cls-2" d="M857,67.11c-1.39-.41-3.16.74-4.7-.69-3.26-3-7.25-.75-10.86-1.35-2-.32-3.38,3.74-5.15,1.74-2.18-2.45-6-2.84-7.26-6.1-1.12-2.82-2.86-4.28-6.13-4.09-4.32.26-8-3.3-12.67-2.1-2,.52-2.65-1.87-3.93-2.9a2.25,2.25,0,0,1-.21-1.92c.33-.94.71-1.06,2-.55,4.54,1.8,9,3.47,14.2,3.61a11.81,11.81,0,0,1,9.11,5.32c3.09,4.71,7.54,5.43,12.57,4.86,4.76-.54,9.26.55,13.69,2.1.91.31,2.08.45,2.61,1.1S860.3,67.23,857,67.11Z"/><path class="cls-2" d="M209.72,603.8a6,6,0,0,1-1,0c-2-.35-4.14.85-5.91-.82,2.17-1.11,4.26-3,6.52-3.21,5.62-.63,11.22-.87,16.89-1.8,7.59-1.24,14.85-2.21,21.36-6.57.3-.21,2.75-1.53,3,.92.15,1.35.25,3.31-1.6,3-3.38-.51-5.53,1.92-8.26,2.85-4.65,1.58-9.06,4.34-14.14,3.44C220.63,600.57,215.51,604.61,209.72,603.8Z"/><path class="cls-2" d="M470.25,693.51c-5.66,1.73-11.1-3.14-17.27-2-1.22.22-1.83-.6-1.93-1.76-.13-1.68.7-2.72,2.36-2.35,4.09.91,8.19,1.88,12.2,3.09s7.24.91,11.38-.46c7-2.31,13.93-4.92,21.07-6.81,1-.26,2.87-.3,3,0,.53,1.65-1.17,2.85-2.1,3.08C489.54,688.63,481,694.53,470.25,693.51Z"/><path class="cls-2" d="M172.4,608.05c3.47,0,7.7-1.25,10.2.31,3.36,2.08,5.18-1.06,7.9-.54,3.34.65,6.91.11,10.38.2.56,0,1.11.64,1.66,1a13.94,13.94,0,0,1-1.63,1,1.25,1.25,0,0,1-1,0c-3.75-2.58-4.06,6.25-9.11,2.43-2.44-1.84-7.4-.32-11.22-.32-5.56,0-11.12,0-16.67,0a1.77,1.77,0,0,1-2.07-1.67c-.18-1.54.33-2.6,2.21-2.55,3.12.07,6.25,0,9.37,0Z"/><path class="cls-2" d="M363.3,634.52a19.69,19.69,0,0,1,1.41-6.31c3-7.85,7.37-15.4,7-24.24-.12-2.77,2-2.13,3.56-2.27,2.42-.22,3.39,1.27,2.62,3.11-2.12,5.09-1.73,11-5.06,15.65-3,4.23-5.07,9-7.38,13.63-.45.92.94,3-1.47,2.56C363.55,636.58,363.41,634.89,363.3,634.52Z"/><path class="cls-2" d="M400.93,687.85c0,1.38.42,2.94-.09,4.1a70.87,70.87,0,0,1-3.86,6.68c-.08.13.21.69.3.68,4.94-.35,4.56,5.84,8.39,6.81,1.8.45,1.53,1.9,1.58,3.2.09,2.07,4.86-.52,3,2.78-.48.86-3.76,1-5.41-1s-3.57-3.65-4.52-6.42c-1.06-3-3.69-2.71-5.63.41-.54.85.79,3.18-1.46,2.54-1.41-.41-1-2.72-.56-3.7,1.68-3.66,4-7.13.38-10.93a.79.79,0,0,1,.49-1.39c5,.13,2.78-3.57,3.16-5.8.24-1.37.06-2.71,2.1-2.72s2.12,1.22,2.12,2.66Z"/><path class="cls-2" d="M258.93,491.7c0-12.19,3.53-24.18,2.14-36.47-.07-.67.18-2.38,1.57-1.1.85.77,3,2.07,2,2.73-3.43,2.41.79,5.05-.28,6.49-1.72,2.31-1.1,4.53-1.23,6.8-.16,2.75.7,5.81-.23,8.21-1.08,2.77,3.7,4.23.8,6.93-1.73,1.61-.48,4.21-1.9,6.51-1.56,2.52-.6,6.58-.84,10,0,.58-.58,1.12-.9,1.69-.38-.46-1.08-.92-1.1-1.39C258.89,498.62,258.93,495.16,258.93,491.7Z"/><path class="cls-2" d="M505.33,77.88c-1.76,2.42-3.68,5.33-5.91,8-.52.62-2.31-.14-2.33-1.12,0-1.58-.84-3.39.68-4.84.59-.56,1.91-1.35.36-2.09a3.18,3.18,0,0,0-2.71.4c-1.38,1-2.33,2.64-3.77,3.46-1.26.71-2.51-.24-3.49-1.37s-2.1-1.65-.36-3c1.08-.83,2.83-2,2.76-2.89a4.41,4.41,0,0,1,3.13-4.71c1.35-.23,3.09,1.78,3.36,4.09.3,2.63,1.32.73,2.45.34C502.12,73.21,505.37,75.19,505.33,77.88Z"/><path class="cls-2" d="M265.2,541.3c0-4.84-.09-9.68.05-14.51,0-1.42-1.07-3.91,1.23-4,1.38,0,.27,3.19,2.16,4.09,1.21.58.57,1.83.74,2.79.66,3.76-.7,7.13-2,10.51,3.63,2.91,1.63,5.47.16,8.76-1.16,2.59-.51,6.15-.16,9.22s-1,5.77-2.18,8.46c-.29.66-.29,2.55-1.69.92-.74-.85-3.06-1.92-1.86-2.75,5.05-3.51,3.34-8.54,3.54-13.13C265.32,548.21,265.2,544.75,265.2,541.3Z"/><path class="cls-2" d="M664,578.74c.45-2.59,2.77-3.7,4.37-5.32,2.14-2.17,4.14-5.49,3.7-7.52-1.72-7.8,5.86-10.65,7.77-16.36.11-.3,1.93,0,3,0,0,1.67.21,3.23-1.37,4.6a13.91,13.91,0,0,0-4.9,12.34c.45,4.93-4.69,6.76-6.08,10.85C669.59,579.93,666.28,578.42,664,578.74Z"/><path class="cls-2" d="M250.58,344.86c.84-3,4-3,6-4a14.72,14.72,0,0,0,6.41-6c.84-1.45-1.18-4.39,2.33-4.54,2.78-.13,1.16,2.92,2.49,3.57a7.91,7.91,0,0,0,3.91.55c3.19-.19,5.11,1.22,6,4.22-2.73,0-5.45.05-8.18,0-1.76,0-2.07.9-2.33,2.43-.4,2.4-2,2.09-3.68,1.19-.67-.34-1.11-2.42-2.09-.81C258.76,345.79,254.53,344.76,250.58,344.86Z"/><path class="cls-2" d="M828.63,47.65c-4.75-2.23-9.52-4.41-14.19-6.79-.3-.15-.51-2.14.72-2.63a4.15,4.15,0,0,1,2.92-.28c5.26,2.71,11,3.59,16.58,5.07,3.41.91,6.62.42,9.8,1.18a1.84,1.84,0,0,1,1.21,2.41c-.19.7,0,2.21-1.71,1.07C838.89,44.3,833.74,47.33,828.63,47.65Z"/><path class="cls-2" d="M345.74,357.39c.34,0,.86-.15,1,0,4.18,4.91,11.09,3.37,15.81,6.67,2.57,1.81,4.57,2.64,7.13.54,2.12-1.73,2.87,1.49,4.94,1.39,1.74-.08,1.77,2.45.25,3.81-1,.88-1.69,3.34-3.67.73s-4.54-4.33-7.69-1.72c-.73.6.46,2.93-1.49,2.78-1.19-.1-.29-2.08-.83-2.62-2.53-2.53-4.32-6.33-9.08-5.39-3.82.76-4.81-3.25-7.21-4.91C344.89,358.68,345.44,357.84,345.74,357.39Z"/><path class="cls-2" d="M467.86,60.69c-.31.6-.77,1.42-1.17,2.28-.89,1.89-1.75,3.8-2.62,5.69,2,.19,4,.32,5.94.58a6.33,6.33,0,0,1,1.71.81c-.59.72-1.1,2-1.78,2.09a75,75,0,0,1-9.93.71c-.72,0-2-1.27-2.09-2.09-.58-3.55,1.51-6.58,2.54-9.77.68-2.09,2.91-2.48,5.16-2.28C466.85,58.82,467.41,59.29,467.86,60.69Z"/><path class="cls-2" d="M257.86,505.83c.62.55,1.3,1.2,2,1.81s1.26,1.44.09,2.19c-3.45,2.19-3.24,5.58-3.16,9.05.13,5.51.06,11,0,16.54,0,.5-.69,1-1.05,1.5-.33-.55-1.07-1.26-.93-1.64,1.28-3.37-3.81-5.66-2-8.34,2.07-3-.17-5.17-.17-7.69,0-3.11-.17-6.22,0-9.31.26-3.66,1.64-.66,2.81-.54C257.93,509.65,255.94,506.48,257.86,505.83Z"/><path class="cls-2" d="M413.56,787.91c-4.24-.61-6.48-2.88-9.71-2.89-1.59,0-1.19-3.27-.69-4.56.91-2.32,1.81.48,2.69.47,4.25,0,8.75,2.1,12.68-1.45.59-.53,2-.16,3-.28a1.94,1.94,0,0,1,2.35,1.36,3.43,3.43,0,0,1-.83,2.76C420.38,787.32,414.81,783.61,413.56,787.91Z"/><path class="cls-2" d="M485.2,102.66c-4.51,3.83,1,7-.71,10.24-.64,1.26,1,3.42-1.37,3.92-.22.05-.66-2.41-1.46-3.3a4.53,4.53,0,0,1-1.41-3.58c.39-7-1.58-13.49-4.12-19.89a3.8,3.8,0,0,1,0-2c1-.14,2.35-.49,3,0,1.29,1,2.88,2.33,3.11,3.74C482.88,95.67,481,100,485.2,102.66Z"/><path class="cls-2" d="M340.11,356.59c-.67,1.13-1.79.85-2.74.77-4.58-.36-8.06-3-10.55-6.44-1.49-2.07-2.3-4.66-4.45-6.31-1.53-1.18.14-1.86.63-2.09.9-.43.49-2.8,1.61-1.76,5.25,4.88,10.23,10.05,15.29,15.13C340.05,356,340,356.36,340.11,356.59Z"/><path class="cls-2" d="M559.63,145.9c-.09,2,.55,4.2-1.77,5.5a10,10,0,0,0-1.47,1.23,5.9,5.9,0,0,1-.9-1.69,12.37,12.37,0,0,1,0-3.1c.34-2.65-.79-3.15-3.37-3.62-4.31-.79-5.31-2.74-5.05-6,.16-2.08,2-2.62,2.93-4,1,.81,2.56,1.46,2.81,2.45.66,2.63,1.69,3.66,4.66,3.69C561.63,140.39,558.85,144,559.63,145.9Z"/><path class="cls-2" d="M563.81,179.05c-.55-3,.53-5.57,3.2-7.65a43.84,43.84,0,0,0,4.39-4.34c1.18-1.23,2.35-2.58,4.24-1.41,1.4.87.93,5.18-1,5.76-3.49,1.08-4.85,3-4.65,6.58.11,1.94-2,2.57-3,3.87-.63.81-1.75,2.22-2.11,2.07-1.5-.62-1.07-2.23-1.1-3.54C563.8,180,563.81,179.7,563.81,179.05Z"/><path class="cls-2" d="M421.81,697.3c-.37,2.74.95,6-1,8.67-.71,1-1.43,2.49-3.18,2.24.34-1.31-1.11-1.65-1.42-2.52-1.5-4.32-.42-8.79-.51-13.19,0-.72,1.45-1.41,2.08-2.22a2.44,2.44,0,0,1,2.75-.81c1.05.29,1.35,1.29,1.3,2.41C421.76,693.6,421.81,695.34,421.81,697.3Z"/><path class="cls-2" d="M411.37,56.5c.18,3-3.14,1.55-3.47,2.75-1,3.55-3.67,5.59-6,7.89-.67.64-1.12,2.91-2.9,1.14-1.2-1.19-2.71-2.2-2.2-4.3.95-4,9-9.83,13-9.35C410.8,54.75,411.72,55.35,411.37,56.5Z"/><path class="cls-2" d="M799.77,19.87a25,25,0,0,1,0,3.12c-.24,1.75,1.14,4.6-2.37,4.4-2.73-.15-1.7-2.49-1.74-4-.09-2.77-2-2.28-3.63-2.19-2.42.12-3.44-1.38-2.56-3.11,1.1-2.15,1.85.48,2.83.77,1.88.54,3.49.3,3.28-2.2-.17-2,.88-4.16-.93-5.84-.83-.77-1.28-1.65,0-2.11a2.32,2.32,0,0,1,2.8.66c1,1.3,2.63,2.11,2.4,4.24A59,59,0,0,0,799.77,19.87Z"/><path class="cls-2" d="M414.41,67c-.93,0-3.63-4.26-3-4.87,2.29-2.26,3.74-5.62,7.85-5.55,2.55,0,5.53,1.17,7.48-1.72a6.88,6.88,0,0,1,1.31.93,1,1,0,0,1,0,1c-4.36,3.15-8,7.32-12.91,9.69A4.75,4.75,0,0,0,414.41,67Z"/><path class="cls-2" d="M840.93,33.71c-3.13,0-6.34.42-9.37-.14-2.28-.42-4.33-2.11-6.49-3.24,1.79-1.64,4-.94,5.92-.69,4.59.6,9.58-2,13.84,1.89,1,.9,2.35-.57,3.51-1.35,1.59-1.07,2.33,1,2.79,1.81,1.36,2.32-1,1.62-1.86,1.67C846.5,33.8,843.71,33.71,840.93,33.71Z"/><path class="cls-2" d="M687,526.53c.65,2.37-2.12,6.3,3.28,6.55,1.38.07,1.3,2.57.79,3.44-1.33,2.25-.73,5.72-4.54,6.72H687a8,8,0,0,0-.6-1.61c-.35-.55-1-.41-1.23.39-.09.29.58.81,1.36,1.22.8,3.24-.41,5.45-3.71,6.26,0-3.12.07-6.24,0-9.36s.47-3.9,3-1.4c.43.43,1.65-1.44,1.09-2-2.56-2.5-2-5.59-2-8.57A1.6,1.6,0,0,1,687,526.53Z"/><path class="cls-2" d="M691.09,495.2c.35-5.34,4.52-9.9,4.39-15.64,0-.33,1.67-1,2.54-1,1.05,0,2.17,1.31,1.44,2.06-2.85,3-.87,7.28-3,10.16-1.31,1.77.08,2,.56,3a3.12,3.12,0,0,1,0,2.71c-1.1,1.16-1.86,3-4,2.83C690.28,499.11,691.49,496.91,691.09,495.2Z"/><path class="cls-2" d="M299.53,384.53c-2.86-3.66-7.28-6.06-9.25-10.6-.78-1.78-2.89-3.7.28-5.39,2.25-1.2,1.71-3.45,1.84-5.46,0-.49.7-.95,1.07-1.43a16.32,16.32,0,0,1,.94,1.68,2.37,2.37,0,0,1,0,1c-.67,6.7-.09,12.91,6.2,17.16.48.33.07,2,0,3C300.65,384.55,300,384.53,299.53,384.53Z"/><path class="cls-2" d="M666,581.89c0,.8.28,1.86,0,2.09-4.48,3.24-6.09,8.83-10.18,12.36-.43.37-1.13,1-1.43.85-1.2-.53-.66-1.75-.8-2.71a3.79,3.79,0,0,1,1.38-3.59c3.19-2.91,6.24-5.95,7-10.52.18-1.08,1.88-1.91,1.89-1.62C663.92,580.46,665.6,580.81,666,581.89Z"/><path class="cls-2" d="M365.43,390.63a8,8,0,0,1,0,2.08c-.54,2,1.6,5.32-1.37,5.8-1.26.2.23-4-.79-5.56-3.3-5.07-1.57-10.58-1.92-15.9-.06-.85-.94-3.14,1.49-2.3,1,.33,1.51,1.86,2.25,2.84-3.91,2.17,1.58,3.44.55,5.81C364.73,385.45,365.43,388.19,365.43,390.63Z"/><path class="cls-2" d="M318.68,593.36c1.09,0,2.54-.15,2.72.95.8,4.81,5.83,8.25,4.39,13.78a4.14,4.14,0,0,0,.1,3c1.31,1.83,4.22,4.22,0,5s-1.76-3.39-2.22-5.32c-1.12-4.73-1.49-9.71-5.36-13.35C316.84,596,316.89,594.54,318.68,593.36Z"/><path class="cls-2" d="M371,639.15a10.46,10.46,0,0,1,1.92.32c.89.45.72.82.35,1.48-2.53,4.49-4.92,9.06-7.4,13.58-1,1.89-2.89,1.49-4.59,1.47.28-1.28-.66-2.78.73-3.86,3-2.34,4-5.93,5.61-9.12C368.45,641.36,370.1,640.11,371,639.15Z"/><path class="cls-2" d="M210.84,632.9c1.1.19,3.14,0,3.57.71,1.76,3,5.1.54,7.35,2.71,3.13,3,8.28-1.09,11.77,2.28-3.76,2.1-8.27-.94-11.78,1.52-1.55,1.09-2.11-.11-3-.11-3.92,0-4.72-4.89-8.42-4.94-.47,0-.94-.71-1.4-1.09Z"/><path class="cls-2" d="M375.78,60.29c.37,4.64-2.28,6.63-3.47,9.26-.56,1.22-2,2.39-3.37,1.68-3.11-1.61.86-2.16.72-3.51a27.21,27.21,0,0,1,0-6.25c.22-1.71-1.46-4.76,2-4.68C374.33,56.85,375.36,59.25,375.78,60.29Z"/><path class="cls-2" d="M428.08,86.93c0-2.34-.1-3.71,0-5.07.15-1.77-1-4.56,2.45-4.25,2.65.24,1.32,2.56,1.72,4,.91,3.23-3.42,5.33-2,8.34,1.29,2.74,2.39,5.36,2,8.41-.08.62-.29,1.61-.65,1.72-1.32.37-1-1-1.49-1.57C427,94.64,428.46,90.17,428.08,86.93Z"/><path class="cls-2" d="M390.48,60.86c.94,3.93-2.59,5.23-4.39,7.57-.64.83-1.23,1-1.46.09-.58-2.4-.2-5-2-7.11,2.22-.8.73-3.87,3.06-4.78C388.45,55.56,390.66,57.38,390.48,60.86Z"/><path class="cls-2" d="M323.67,330.24c0,1.69.68,4.33-.12,4.9-3.1,2.21.09,3.75.12,5.54-4.51.77-9.05,1.45-12.38,5.08-.69.74-1.55,1.51-2.13.15a2.19,2.19,0,0,1,.56-2.78,7.28,7.28,0,0,0,.74-.73c2.4-2.32,6-2.54,8.43-4.49S320.15,331.66,323.67,330.24Z"/><path class="cls-2" d="M165.23,630.92c-4.19-1.52-8.08-2.87-11.92-4.37-1.14-.44-1.06-1.76-.82-2.67s1.76-1.87,2.29-1.22c3.13,3.83,8.65.22,11.84,4,.6.71,3.15.41,2.36,2.11C168.44,629.93,166.34,630.34,165.23,630.92Z"/><path class="cls-2" d="M680.74,436.07a3.09,3.09,0,0,1-.9,2.66c-3.25,3-5.47,6.53-5.43,11.22,0,1-1,1.54-2.24,1.43s-2.28-.93-1.79-1.83c2.48-4.49,2.2-10.2,6.27-14a2.87,2.87,0,0,1,2.73-.85C679.89,434.83,680.26,435.57,680.74,436.07Z"/><path class="cls-2" d="M484.32,65.07c1.46-.28,1.81.6,2.25,1.6,1.39,3.11-2,4.75-2.26,7.43-.14,1.34-1.95,3.49-3.21,3a4.39,4.39,0,0,1-3-4.86C478.55,69.84,482,65.63,484.32,65.07Z"/><path class="cls-2" d="M361.27,69c-.75,3.58-4,5.93-4.34,9.7a.77.77,0,0,1-1.41.45c-.88-1-2.7-2.45-2.46-3a34,34,0,0,0,2.41-10.45c0-.26,1.19-.72,1.72-.6A5.73,5.73,0,0,1,361.27,69Z"/><path class="cls-2" d="M439.58,58.77a33.77,33.77,0,0,0,4.15,0c1.07-.14,1.34,0,1.06,1.08-.73,2.77-8.46,6.41-11.36,5.19-1.57-.66-1.17-2.26-1.18-3.58s.1-2.76,2.12-2.67C436.1,58.83,437.84,58.77,439.58,58.77Z"/><path class="cls-2" d="M571.35,194.74c.32,1.35,1.55-.14.65.64-3.79,3.29-5.71,8-9.15,11.48a2.25,2.25,0,0,1-1.92.13c-.95-.37-1.2-.82-.41-2,2.47-3.71,3.44-8.38,7.21-11.3C568.69,193,571.07,193.58,571.35,194.74Z"/><path class="cls-2" d="M703.71,494.21a2.68,2.68,0,0,1,0,1c-2.73,5.92-5.43,11.86-10.77,16.06-.71.56-1.07.8-1.46-.17a5.63,5.63,0,0,1-.26-1.93,1.36,1.36,0,0,1,.42-.83c4-4,8.16-7.77,8-14.16,0-.9,1.47-1.29,2.5-1A5.58,5.58,0,0,1,703.71,494.21Z"/><path class="cls-2" d="M277.71,346.94l1.76.71c-5,6.34,2,10.36,3.1,15.52.21,1,2.48,1.89-.15,2.49-.75.17-2.41-.52-2.5-1-.73-4.24-4.05-7.24-5.18-11.26C274.26,351.69,276.07,347.48,277.71,346.94Z"/><path class="cls-2" d="M581.68,503.44a6.5,6.5,0,0,1-1.15-1.34c-1.34-3,1.43-4.93,2.17-7.39,1.09-3.65,1.17-7.73,3.91-10.79a7.6,7.6,0,0,1,1.45-1,6.67,6.67,0,0,1,.77,1.74c.13,1,.48,2.46,0,3-3.61,4-3.69,9.57-6.19,14C582.29,502.3,582,502.87,581.68,503.44Z"/><path class="cls-2" d="M373.74,325c-.43.22-1,.79-1.34.66a4.23,4.23,0,0,1-1.48-1.41c-2.66-3.58-6.11-5.16-10.6-4.44-1.85.29-3.59,0-3.21-2.51.41-2.65,2.95-2,4.06-1.53,4.4,2,9.86,2.24,12.53,7.17C374,323.44,373.74,324.26,373.74,325Z"/><path class="cls-2" d="M426,473.76c0,2.41.06,4.82,0,7.22,0,1.11-.71,1.7-2,1.74s-2.05-.53-2.12-1.58c-.15-2.39-1-5.51.16-7.05,2.11-2.82,1.7-5.63,1.92-8.57.05-.57.66-1.09,1-1.63.35.54,1,1.07,1,1.63C426,468.26,426,471,426,473.76Z"/><path class="cls-2" d="M311.12,390.23a24.71,24.71,0,0,1-.07,3.71c-.05.27-.91.4-1.39.6,1.5-3.76-6.16-4.16-3.09-8.67,1.59-2.34-1-3.44-2.14-5-.46-.62-2.19-1-1-2.11s2.44-.73,3.48.44C309.84,382.55,311.82,386.22,311.12,390.23Z"/><path class="cls-2" d="M394.63,402.37c-.9.89-1.93,2.72-2.84,2.66-5.1-.34-6.1,3.44-7.57,6.87-.25.58-.57,1.13-.86,1.69-.41-.39-1.22-.87-1.16-1.18.42-2.05-1.65-2.77-2.11-4.28-.17-.57,0-1.75.25-1.86,4.4-1.76,8.85-3.38,13.3-5C394.65,400.87,395,401.24,394.63,402.37Z"/><path class="cls-2" d="M668.17,410.75c.39,1.6-1,2.43-1.42,3.59-1.58,4.19-1.88,8.84-4.48,12.7-.67,1-.17,3.52-1.41,3.13-1.88-.6-1.51-3.55-.84-4.51,1.45-2.08,1.11-5.05,2.17-6.32,2.42-2.87,1.46-5.78,2-8.67.09-.5,1.66-.91,2.57-1C667.18,409.62,667.72,410.39,668.17,410.75Z"/><path class="cls-2" d="M384.08,363.64c.62.22,1.39.27,1.79.68,1.12,1.15,2.33,2.08,2.66,4.05.45,2.67,5,5.95,2.43,7.41-3.2,1.84-4-3-5.42-5.49a8.51,8.51,0,0,0-3.07-2.43c-.82-.48-3.17.25-1.49-1.91C381.73,365,382.44,363.56,384.08,363.64Z"/><path class="cls-2" d="M300.37,342c-1.77.93-4.42,2.94-4.92,2.5-4-3.51-8.6-1.19-12.83-1.61-2-.21-3-1.38-4.14-2.55a5.39,5.39,0,0,1-.75-1.74c.69,0,1.54-.26,2,0,6,3.66,12.55,1.45,18.83,2C299.64,340.75,300.4,340.85,300.37,342Z"/><path class="cls-2" d="M327.84,121.73a10.8,10.8,0,0,0-2.14,8.62c.06.41-.69,1-1.06,1.44-.32-.55-.92-1.09-.93-1.65-.08-3.75-1-7.85.26-11.14.94-2.5-5-4.85-.23-5.63,2.89-.47,2.8,4.24,4.08,6.59C328,120.22,327.84,120.63,327.84,121.73Z"/><path class="cls-2" d="M200.46,167.46c.35,2.57,0,4.76-3.58,4-2.07-.41-2.68,1.85-4.3,2.08a3.71,3.71,0,0,1-1.89-.38c-.87-.39-.55-.74.09-1.47,2.15-2.46,5.42-4,5.94-7.85.16-1.19,1.75-.61,2.71-.7,2.07-.2.74,1.36,1,2.07A7.2,7.2,0,0,1,200.46,167.46Z"/><path class="cls-2" d="M320.89,391.11c.92,1,2.7,2,2.62,2.94-.27,3.08.93,5.06,3,7.12,1,1,4.57,2.06,2.18,4.07-1.87,1.56-3.37-1.47-4.8-2.75-2.8-2.52-5.71-5-4.47-9.5C319.7,392.07,319.59,391.17,320.89,391.11Z"/><path class="cls-2" d="M258.93,321.54a15.25,15.25,0,0,1,0,3.1,1.8,1.8,0,0,1-2.26,1.42c-2-.37-4.88-3.88-3.83-5,1.92-2,1.9-4.1,2-6.5.09-1.48.34-1.25,1.71-.35C259.41,316.08,258.92,318.85,258.93,321.54Z"/><path class="cls-2" d="M785.15,28.42a41.6,41.6,0,0,1,0,5.12c-.17,1.4,1.12,3.44-1.28,3.93-.23,0-.61-2.53-1.45-3.29a5.65,5.65,0,0,1-1.19-6.56c1.17-2.68,1.68-5.46,2.57-8.17,3,2.19.6,5.35,1.39,8A3.48,3.48,0,0,1,785.15,28.42Z"/><path class="cls-2" d="M277.73,179.29a20,20,0,0,1-7,10.59c-.18.14-1.18-.27-1.36-.64-1.3-2.56,3-10.49,6.08-11.44C276.37,177.53,277.77,178.47,277.73,179.29Z"/><path class="cls-2" d="M810.23,83.94c0,2.16.21,3.61-.92,3.78-1,.15-1-1.2-1.23-2.15-1.24-5.33-2.66-10.6-6-15.16a2.8,2.8,0,0,1,.31-2.68c1.1-1,1.71.52,2.08,1.09C807.7,73.78,810.06,79.06,810.23,83.94Z"/><path class="cls-2" d="M365.27,559.94c1.93-.12,2.2,1,2.27,2.53.17,3.87-2.54,6.43-4.18,9.48a23.75,23.75,0,0,0-1.06,2.61,13.39,13.39,0,0,1-1-2.62c-.57-3.68.43-7.07,2-10.35C363.77,560.63,364.08,559.76,365.27,559.94Z"/><path class="cls-2" d="M440.6,157.82c0-2.7,0-4.42,0-6.12,0-1-.45-2.59.69-2.64.94,0,2.07,1.2,2.87,2.09,1.26,1.41.65,3.23.41,4.81-.14.83-1.67,1.44-1.82,2.28-.52,2.93.67,6-.89,8.89C438.7,164,442,160.14,440.6,157.82Z"/><path class="cls-2" d="M367.52,103.17c0,2.76.05,5.51,0,8.26,0,.56-.65,1.09-1,1.63-.34-.54-1-1.08-1-1.63-.09-4.47.08-9-.11-13.41-.09-2-4.94-4.78.19-5.57,3.7-.57,1.44,3.6,1.88,5.58A23.8,23.8,0,0,1,367.52,103.17Z"/><path class="cls-2" d="M567.38,159,566,157.84c2.51-2.33,3-5.69,4.47-8.58.59-1.18,5-1,5.57.11.68,1.38.07,2.44-.91,3.59-1.78,2.09-5.91,1.78-5.9,5.74A11.64,11.64,0,0,1,567.38,159Z"/><path class="cls-2" d="M304.84,522c.27,2-1.36,2.48-2.09,3.53s-2.08.67-1.94-.17c.62-3.8-1.21-7-2.16-10.37-.34-1.25-.32-2.82,1.57-3,1.42-.16,2.68.15,2.57,2.08C302.63,517,302.64,520,304.84,522Z"/><path class="cls-2" d="M332,268c.53,4.73-3.07,8.72-2.45,13.48,0,.21-.42.59-.71.7-1,.4-1.21,0-1.06-1,.44-3-1-6.3.78-9,2.09-3.07,1.79-5.41-.67-8-.47-.49-.39-2.3.79-2.56.57-.13,1.41,1.09,2.17,1.65C332.6,264.56,331.86,266.39,332,268Z"/><path class="cls-2" d="M684.94,474.92c-.58-2.62,1.34-4.39,2-6.54s2.37-4.48,3.41-3.92c1.71.91,1.31,3.49.15,5.39-1,1.66-2,3.32-2.94,5-.6,1.13-1,2.37-1.49,3.55C684.56,477.58,685,476.15,684.94,474.92Z"/><path class="cls-2" d="M570.08,243.89c-.07.65.11,1.52-.25,1.94-1.36,1.56-2.68,3.33-4.41,4.34-2,1.15-1.87,5.15-2.66,4.44-2.35-2.08-.6-4.41.74-7a17.06,17.06,0,0,1,3.31-4.78c.44-.42,1.81.08,2.73.27C569.76,243.13,569.9,243.6,570.08,243.89Z"/><path class="cls-2" d="M503.23,129.81a5.4,5.4,0,0,1-2.09,5.29c-1.05.93-1.79.68-2-.31-.78-3.41,1.62-7.45-2.11-10.27.87-.34,2-1.2,2.58-.93C502.21,124.76,503.89,126.69,503.23,129.81Z"/><path class="cls-2" d="M691.16,517.55c1.29,3.37-2.27,5.31-2.47,8.26,0,.28-1.09.49-1.68.72.31-1.68-2.11-2.94-1.91-3.08,2.45-1.67,1.51-4.27,2.15-6.41.35-1.16,1.89-2.82,2.79-2.76C691.58,514.39,691.16,516.29,691.16,517.55Z"/><path class="cls-2" d="M259.1,561.89l-1,2.05c-.49-.37-1-.75-1.47-1.11-1.54-1.1-1.83-2.61-1.92-4.45-.13-2.28,1.16-4.87-1-6.85a2.42,2.42,0,0,1-.47-3.55c.35-.51,3.6,1.64,3.63,2.57C257,554.55,255.88,558.75,259.1,561.89Z"/><path class="cls-2" d="M237.58,616.54c-2.1-3.09-5.57-2.09-8.78-2.37-1-.09-1.35-1.33-1.18-2.4a1.76,1.76,0,0,1,1.95-1.72c4.18,0,7.4,1.94,10.16,4.86.13.13.15.63.07.67C239.25,615.88,238.66,616.09,237.58,616.54Z"/><path class="cls-2" d="M518.9,679a5.49,5.49,0,0,1-1-1.66c-.1-.59,0-1.58.41-1.83,1.61-1,3.43-2.71,5-2.58,2.58.22,4.64-4.38,6-1.81,1.47,2.83-2.67,3.12-4.67,4.31-1.44.85-2.42,2.45-3.76,3.52C520.51,679.26,519.59,679,518.9,679Z"/><path class="cls-2" d="M336.2,529.67a17.16,17.16,0,0,1,.07-4.06c.28-1.1,1.06-.86,2.05-.18,2.83,2,1.94,4.75,2.05,7.34a3.87,3.87,0,0,1-2.84,3.7c-2.46,0-1-2.4-1.29-3.76A14.67,14.67,0,0,1,336.2,529.67Z"/><path class="cls-2" d="M480.28,408.55a5.91,5.91,0,0,1,0,1c-.33,1.95.53,5.72-.6,5.57-3-.41-1.2-3.56-1.39-5.52s-2.94-2.83-2.25-5.31c.35-1.23-.21-2.84,1.7-3.05,1.48-.17,2.65.24,2.57,2.14C480.22,405.12,480.28,406.84,480.28,408.55Z"/><path class="cls-2" d="M499.11,547.41c1.21-.24,1.81.53,2,1.56.8,3.74-2.94,6.43-2.41,10.2.11.84-.82.91-1.37.14-.39-.55-1.41-1-1.35-1.44a91.17,91.17,0,0,1,2.13-10.42C498.48,546.27,497.67,547.49,499.11,547.41Z"/><path class="cls-2" d="M394.68,165.31a14.3,14.3,0,0,1,.07-3.17c.11-.45,1-.87,1.54-1a2,2,0,0,1,2.48,1.08c.31,1.28.64,3.31,0,3.93-1.94,1.78-1.78,2.91,0,4.56.43.39.49,2.23-.71,2.53-.55.14-1.42-.94-2.13-1.49C393.55,169.92,395.09,167.35,394.68,165.31Z"/><path class="cls-2" d="M538.75,511.9a4.34,4.34,0,0,1,0-1c.46-1.76-1.28-4.18,1.54-5.21a1.52,1.52,0,0,1,1,0c3.26,1.33,1.37,4.12,1.47,6.17.07,1.39-1.41,2.79-1.88,4.28-.29.91-.16,2-1.48,1.59-.36-.11-.6-1.11-.64-1.71C538.68,514.64,538.75,513.27,538.75,511.9Z"/><path class="cls-2" d="M634.8,481.71c1.09,3.57-1.6,6.11-3,8.9-.57,1.18-1.84-3.59-.48-7.56.19-.58,1.17-.93,1.29-1.49a28,28,0,0,0,.1-3.05c.06-.6.36-1.62.69-1.68,1.25-.22,1.41.73,1.37,1.74S634.8,480.62,634.8,481.71Z"/><path class="cls-2" d="M561.18,221.69c-.36-.18-.66-.3-.93-.47-.75-.48-.45-.79.2-1.51,1.3-1.47,3.58-2.31,3.36-4.85-.2-2.3.35-4.85,3.1-3.42s-.17,3.18-.71,4.92C565.31,219.24,564.29,221.29,561.18,221.69Z"/><path class="cls-2" d="M504,683c-.62-.63-2.61,1.62-2.72-.87,0-.31,2-.44,2.49-1.09,1.93-2.46,4.87-1.66,7.25-2.57,1-.36,1.76-2.65,2.58-.1a3.31,3.31,0,0,1-.9,2.54C509.63,680.79,507.64,684.67,504,683Z"/><path class="cls-2" d="M261,423c0,2,.14,4.07-.06,6.08-.09,1-1,1.51-2.18,1.45-2-.09-2.52-2-1.83-2.67,2.77-2.81,1.73-6.18,2-9.38.08-.89.52-2.36,1-2.48,2-.45.86,1.26.93,1.93A47.55,47.55,0,0,1,261,423Z"/><path class="cls-2" d="M562.82,232c-.37-.5-1-1-1.06-1.51-.44-2.69,2.08-7.13,4.77-8.39a1.59,1.59,0,0,1,1.41.59C569,224.49,565,231.67,562.82,232Z"/><path class="cls-2" d="M822,83.83c-4-2.47-5.72-6.44-7.6-10.21-.21-.42.19-1.25.5-1.78s.89-.43,1.42.37c2.11,3.2,4.29,6.36,6.34,9.61.3.48,0,1.33,0,2A4.82,4.82,0,0,1,822,83.83Z"/><path class="cls-2" d="M822.74,73.39c-3.45-3-7.49-9-8.35-12.53C819.38,63.56,822.29,67.66,822.74,73.39Z"/><path class="cls-2" d="M681.49,461.54a11.91,11.91,0,0,1-.73-1.84c-.79-3.33,2-5.39,3-8.08.52-1.41,2.36-3.35,4-2.23,2.7,1.79-.67,2.41-1.31,3.39a25.16,25.16,0,0,0-3.73,7.82C682.69,461,682,461.22,681.49,461.54Z"/><path class="cls-2" d="M278.56,167.28c-1.52-3.54-5.92-3.62-8.37-6.35-.63-.7-.93-1-.22-1.47a2.47,2.47,0,0,1,.83-.44c3.87-.73,9.36,3.82,9.08,7.32C279.8,167.33,279.82,167.7,278.56,167.28Z"/><path class="cls-2" d="M452.87,513.89c1.74.31,2.74,1,2.29,2a51.59,51.59,0,0,1-3.39,6.67c-.4.68-1.53,1.56-2.07,1.41-1.23-.34-1.05-2.25-.67-2.54,2.23-1.69,2-3.94,2.11-6.3C451.17,514.29,452.4,513.76,452.87,513.89Z"/><path class="cls-2" d="M254.76,288.5a13.73,13.73,0,0,1,0,2c-.19,1.28.65,2.77-.67,3.76-.2.15-1-.27-1.38-.61-1.37-1.36-3.43-2.59-1.35-4.92.23-.25.47-.48.72-.72,1.65-1.55-.32-5.45,1.32-5.22C256.05,283.18,254.29,286.5,254.76,288.5Z"/><path class="cls-2" d="M781,12.75c0-1-.05-2,0-3.05,0-.26.51-.73.67-.68a5.55,5.55,0,0,1,1.45.75c2.45,1.53,2.26,4,1.83,6.24-.08.47-1.67,1-2.53.91A1.69,1.69,0,0,1,781,14.79,15.42,15.42,0,0,0,781,12.75Z"/><path class="cls-2" d="M885.08,32.55c-2-2.3-2.87-3.2-4.43-3.08-.47,0-1-.65-1.5-1,.53-.34,1.09-1,1.59-1,1.59.14,2.26-1.09,3.32-1.79a2.27,2.27,0,0,1,3.36.74,2.39,2.39,0,0,1,0,2C886.78,29.8,885.92,31.1,885.08,32.55Z"/><path class="cls-2" d="M578.23,310.34a6.63,6.63,0,0,1,3.08-7,.71.71,0,0,1,.68.18c1.34,2.7.7,4.95-1.43,7-.64.63.78,2.87-1.52,2.36C578.6,312.87,578.49,311.25,578.23,310.34Z"/><path class="cls-2" d="M286.08,638.19a14.09,14.09,0,0,1,.12-4.07c.17-.57,1.64-1,2.51-1,1,0,1.57.82,1.6,2.06,0,1.69-1.73,2-2.11,3.24-.48,1.54.67,4.61-.78,4.53C284.42,642.77,286.91,639.74,286.08,638.19Z"/><path class="cls-2" d="M196.29,633.1c.25,1.26-.76,2.2-1.57,1.93a44.56,44.56,0,0,1-6.75-3.17c-.28-.16-.1-1.29,0-2,0-.27.44-.49.68-.73,1.81,2.92,5.59.6,7.62,2.89C196.43,632.26,196.29,632.73,196.29,633.1Z"/><path class="cls-2" d="M641.07,618.42c.07,2.09-2.17,2.51-2.9,4-1.75,3.51-3.64.33-5.45.19C633.89,618,637.51,618.25,641.07,618.42Z"/><path class="cls-2" d="M315.31,594.83a20.81,20.81,0,0,1,0,3.18c-.1.58-.65,1.08-1,1.61a5.28,5.28,0,0,1-1-1.61c-.46-2.51,1-5.32-1.7-7.5-1.06-.87-.64-2.59.69-3.29.26-.14,1.34,1.35,2.1,2C316.23,590.9,314.89,593.08,315.31,594.83Z"/><path class="cls-2" d="M599.31,449.81a37.33,37.33,0,0,1,0,4.1c-.06.57-.65,1.08-1,1.62-.35-.54-.93-1-1-1.62a10.12,10.12,0,0,1,0-4.07c.84-2.54-2.15-4.37-1-6.82.06-.13.67-.1,1,0C601.24,444.3,598.36,447.62,599.31,449.81Z"/><path class="cls-2" d="M157.88,618.42a50.85,50.85,0,0,1-6.33-.08c-1-.13-1.46-1.36-1.16-2.41.19-.68.36-2.56,1.63-1,1.64,2.07,3.76.92,5.61,1.41,1.63.44,4.57-1.58,4.65,1.34C162.32,619.18,159.28,618,157.88,618.42Z"/><path class="cls-2" d="M659.87,396.09c-.94,3-1.87,6-3,9-.11.28-1.28.38-1.87.23s-.88-.73-1.31-1.13c3.57-1.76.34-7,4.35-8.53.6-.23,1.38-.85,1.74-.66C661,395.69,659.73,394.62,659.87,396.09Z"/><path class="cls-2" d="M256.85,455.58l-1.05,2a21,21,0,0,1-1-2.63c-.23-.94.13-2.29-.41-2.85-2.19-2.26-2.75-4.48-.66-7.05,1,2.29,2.2,4.53,3.08,6.87C257.13,452.86,256.85,454,256.85,455.58Z"/><path class="cls-2" d="M398.78,604.79c-.41.22-1.2.79-1.3.68a69.09,69.09,0,0,1-4.85-5.28c-.28-.35,0-1.31.28-1.91.4-1,.79-.85,1.48,0,1.36,1.58,3,2.92,4.34,4.5C399.07,603.14,398.78,604.07,398.78,604.79Z"/><path class="cls-2" d="M334.11,163.25c-.29,1.95.33,5.76-.67,5.56-3-.59-1.19-3.7-1.31-5.71s-.67-5.73.56-5.53C335.39,158,333.65,161.24,334.11,163.25Z"/><path class="cls-2" d="M263.09,445.09l-.63,1.7c-.48-.22-1.39-.59-1.38-.63.86-2.41-2.36-3.16-2.13-5.24.15-1.27-.77-3.27.67-3.66,2.16-.58.81,1.87,1.46,2.49A5.65,5.65,0,0,1,263.09,445.09Z"/><path class="cls-2" d="M269.37,389.23a40.22,40.22,0,0,1,0,4.11c-.07.58-.65,1.09-1,1.64-.35-.55-1-1.08-1-1.63-.09-3.09-.09-6.19,0-9.27,0-.56.65-1.09,1-1.63.35.54.95,1.06,1,1.63C269.46,385.78,269.37,387.51,269.37,389.23Z"/><path class="cls-2" d="M605.68,614.63c-.74,1,1.15,3.74-1.7,3-1.15-.29-3.89-2-.93-4.18a7.93,7.93,0,0,1-1.27-2.06c-.23-1.2.74-1.51,1.74-1.33.59.1,1.54.34,1.64.7A24.63,24.63,0,0,1,605.68,614.63Z"/><path class="cls-2" d="M223.68,330.35l-2.27-1.09a2.3,2.3,0,0,1,2.46-1.11,4.89,4.89,0,0,0,4.44-1.62,2,2,0,0,1,3.3.58c.14.26-1.28,1.33-1.9,2.09C228.1,331.15,225.92,329.85,223.68,330.35Z"/><path class="cls-2" d="M437.24,574.57c1.42.32,5.52-1.27,1.79,2.81-.92,1-.49,3.2-.9,4.79-.1.37-1.11.5-1.7.75-.11-2.62.76-5.48-1.89-7.53A5.75,5.75,0,0,1,437.24,574.57Z"/><path class="cls-2" d="M286,561c-.52.53-.72.92-1,1a3.47,3.47,0,0,1-3.49-1.32c-1.12-1.25-2.46-2.35-1.35-4.18.26-.43,1.48-.84,1.62-.69C283.3,557.51,284.67,559.3,286,561Z"/><path class="cls-2" d="M616,533.39c-.22,1.46.66,3.53-2.13,3.61-2,0-2.12-1.27-2-2.66s-.69-3.57,2.08-3.65C616,530.63,616,532,616,533.39Z"/><path class="cls-2" d="M361.25,290.55c.76,3.34-2.31,5.31-2.92,8.15-.24-.1-.58-.13-.72-.32-2.49-3.31,1.09-5.49,1.57-8.26.19-1.09.79-2,2-1.56C361.43,288.63,361.25,289.86,361.25,290.55Z"/><path class="cls-2" d="M219.26,144.39c-.7,1.33-1.86,2.61-2,4-.32,3.23-2.6,2-4.27,2.26.7-1.33,1.86-2.62,2-4C215.32,143.42,217.6,144.64,219.26,144.39Z"/><path class="cls-2" d="M619.88,828c0,1.23-.85,1.5-1.85,1.35-1.47-.23-3.62.95-4-1.58-.13-.79.43-2.3,1-2.49C617.4,824.48,618.42,826.72,619.88,828Z"/><path class="cls-2" d="M365.43,280.12c.16,3.56-1.45,6.24-4.18,8.35C361.09,284.91,360.81,281.29,365.43,280.12Z"/><path class="cls-2" d="M262.94,413.63c.13-1.05,0,.25-.21,1.53a1.18,1.18,0,0,1-.71.67,2.77,2.77,0,0,1-1,0c.17-3.3.32-6.6.53-9.89,0-.15.51-.42.67-.35s.68.43.69.68C263,408,262.94,409.61,262.94,413.63Z"/><path class="cls-2" d="M202.59,624.68c-2.06.1-2.56-1.93-3.86-2.87,0,0,.48-1.21.8-1.24a24.77,24.77,0,0,1,4,0,1,1,0,0,1,.69.67,7.35,7.35,0,0,1,0,2.73C204.13,624.32,203.16,624.44,202.59,624.68Z"/><path class="cls-2" d="M405.84,556.08c1.23,0,1.5.84,1.34,1.85-.23,1.47.95,3.62-1.57,4-.79.13-2.31-.43-2.49-1C402.35,558.55,404.58,557.54,405.84,556.08Z"/><path class="cls-2" d="M428.16,706.12c1.43,0,1.83-.12,2.08,0,.65.36,2.26-1,1.95,1-.07.44-.93,1-1.47,1-1.9.2-3.79-.28-5.42,1.59-.86,1-1.38-.49-1.37-1.37,0-.59.23-1.62.54-1.69A30,30,0,0,1,428.16,706.12Z"/><path class="cls-2" d="M651.57,374.4c.18.91-.57,1.61-1.6,1.74-1.36.17-2.87,0-2.59-2,.19-1.36-1.13-3.71,1.27-3.77C649.51,370.38,651.51,372.06,651.57,374.4Z"/><path class="cls-2" d="M490.33,451.31c3,.09,2.49,2.1,2.43,3.62a9.34,9.34,0,0,1-.94,2.63c-1.23-1.43-3.5-2.2-3.15-4.63C488.81,452,489.36,451,490.33,451.31Z"/><path class="cls-2" d="M285.29,284.3a10.07,10.07,0,0,1,2.15.36c1,.33,1,1,0,1.39-1.14.5-2.57.64-3.4,1.44-1.7,1.63-2.07-.27-2.89-.85a7,7,0,0,1-1.24-1.4,22.23,22.23,0,0,1,2.64-.91A15.07,15.07,0,0,1,285.29,284.3Z"/><path class="cls-2" d="M570.07,584.1c.14-1.13-.57-2.71,1.29-3,.4-.06.87,1,1.42,1.33,2.66,1.72,0,2.42-.58,3.6-.45.94.66,2.91-1.4,2.68-1.2-.13-.64-1.69-.72-2.63C570,585.45,570.07,584.78,570.07,584.1Z"/><path class="cls-2" d="M563.17,167c-1.33,0-1.59-.82-1.44-1.82.23-1.48-.94-3.61,1.55-4.05.79-.14,2.28.4,2.5,1C566.74,164.65,564.2,165.5,563.17,167Z"/><path class="cls-2" d="M245.26,635.12c.49-.45,1-.89,1.47-1.37,1.51-1.53,1.52.27,1.71.9.31,1-.07,2.3-1.06,2.48a32.91,32.91,0,0,1-5.07.09c-1,0-1.95-.13-1.77-1.37.05-.31,1.07-.63,1.67-.7A28.16,28.16,0,0,1,245.26,635.12Z"/><path class="cls-2" d="M396.75,399.15c-.32-1.27.8-1.73,1.42-2.45,1.12-1.3,2.37-2.53,4.17-1.3,1.37.92.43,2.49.68,3.75Z"/><path class="cls-2" d="M603.47,315.54c0,1.67.44,3.42-1.31,4.54-.73.47-1.57,1.51-2.11,1.37-1.23-.34-1-1.93-.66-2.57.81-1.36,2.52-2.21,2.07-4.24,0-.16.85-.51,1.31-.78Z"/><path class="cls-2" d="M893.41,35.09c-1.53,1.25-2.47,3.64-4.93,2.63a2.76,2.76,0,0,1-.92-2.52c.93-2.71,3.38-1.07,5.15-1.42C892.85,33.75,893.18,34.64,893.41,35.09Z"/><path class="cls-2" d="M661.45,387l2.38,2.93c-1.56,1-1.82,2.65-2.26,4.26-.11.38-1.12.51-1.71.76a55.47,55.47,0,0,1,.83-8C661,385.84,659.91,387,661.45,387Z"/><path class="cls-2" d="M355.5,307.8c-.74-1.1-2-2.14-2.11-3.31-.18-1.67,1.55-3,2.84-3.1.92-.06,1.95,1.76,2.94,2.75Z"/><path class="cls-2" d="M440.61,10.64c.12,2-1.14,2.31-2.57,2.15a1.75,1.75,0,0,1-1.66-2c0-1.92,1.19-2.23,2.62-2.07C440,8.8,440.85,9.42,440.61,10.64Z"/><path class="cls-2" d="M359.17,411.68c-2.67,1-4.05-1.79-6.27-2.09.13-2.56,2-2.6,3.37-1.67C357.48,408.75,359.25,409.64,359.17,411.68Z"/><path class="cls-2" d="M396.77,382.35a13.85,13.85,0,0,1-.64,1.71,4.23,4.23,0,0,1-3.51-3.66,3.05,3.05,0,0,1,.58-1.65A4.63,4.63,0,0,1,396.77,382.35Z"/><path class="cls-2" d="M361.27,357.82c-.32,1.08-.79,1.71-2.08,1.7-1.93,0-2.23-1.19-2.08-2.61a1.76,1.76,0,0,1,2-1.66C361.08,355.27,361.24,356.44,361.27,357.82Z"/><path class="cls-2" d="M327.1,315.93l2.83,2.82c-.94.95-1.92,2.71-2.82,2.67-2.52-.1-1-2.37-1.32-3.67A1.29,1.29,0,0,1,327.1,315.93Z"/><path class="cls-2" d="M438.21,32.36a1.3,1.3,0,0,1-1.82,1.32c-1.3-.34-3.58,1.19-3.68-1.33,0-.9,1.73-2.61,2.67-2.61S437.27,31.42,438.21,32.36Z"/><path class="cls-2" d="M214.57,332.33a8.16,8.16,0,0,1-2,0,6.33,6.33,0,0,1-1.62-1c.53-.34,1.05-.93,1.62-1a17.4,17.4,0,0,1,4.08,0,12.39,12.39,0,0,1,2.65,1,21.91,21.91,0,0,1-2.65,1A8.67,8.67,0,0,1,214.57,332.33Z"/><path class="cls-2" d="M641.07,618.42a19.34,19.34,0,0,0,0-2.95c-.62-3.71,1.89-3.37,4.2-3.32C643.09,613.73,644.61,617.76,641.07,618.42Z"/><path class="cls-2" d="M200.47,635.62c-.24-2.37,1.14-2.86,3.08-2.57.94.13,1.85.41,2.78.63l-4.82,3.53C201.16,636.68,200.81,636.15,200.47,635.62Z"/><path class="cls-2" d="M365.86,332.31c1.08.32,1.71.79,1.7,2.08,0,1.93-1.18,2.23-2.61,2.08a1.75,1.75,0,0,1-1.65-2C363.31,332.51,364.49,332.34,365.86,332.31Z"/><path class="cls-2" d="M398.79,639.91a4.47,4.47,0,0,1-.26.74c-.46.92-.86.89-1.43.08-.74-1.05-1.73-1.94-2.38-3a2,2,0,0,1,.29-1.81c1.14-1.59,1.51.24,2.05.65C398.08,637.32,399.16,638.2,398.79,639.91Z"/><path class="cls-2" d="M387.48,338.52c-.41-.46-1-.84-1.12-1.35a2.27,2.27,0,0,1,.17-1.85c1.6-1.59,3.53-1,5.38-.5a1.25,1.25,0,0,1,.65.7c.37,1,0,1.25-1,1C389.69,336,388.53,337.19,387.48,338.52Z"/><path class="cls-2" d="M392.58,340.51a17.66,17.66,0,0,0,0-3c-.17-1,.09-1.45,1-1a2.38,2.38,0,0,1,1.06,1.49,12.54,12.54,0,0,1,0,3c-.09,1.26.56,3.32-.88,3.48s-1.13-1.82-1.19-3C392.56,341.18,392.58,340.85,392.58,340.51Z"/><path class="cls-2" d="M496.48,501.88c.76.93,2.36,2.09,2.2,2.89-.23,1.13-1.91,2.92-2.72,2.8-2.54-.39-.49-2.63-1-4C494.61,502.65,495,501.69,496.48,501.88Z"/><path class="cls-2" d="M569.62,292.65l-1.61-1,3.48-4.88a12,12,0,0,1,.63,2.76C572.1,292.28,571.63,292.78,569.62,292.65Z"/><path class="cls-2" d="M327.84,286.22c0,.67,0,1.34,0,2,.09,1-.18,1.88-1.24,2.09-.17,0-.76-1-.82-1.56a17.83,17.83,0,0,1,0-4c.12-.88.54-2.31,1.07-2.43,1.95-.45.68,1.23.93,1.91A6.28,6.28,0,0,1,327.84,286.22Z"/><path class="cls-2" d="M568,277.93c.12,2-1.14,2.32-2.57,2.16a1.76,1.76,0,0,1-1.66-2c0-1.93,1.19-2.24,2.61-2.08C567.42,276.1,568.23,276.71,568,277.93Z"/><path class="cls-2" d="M496.51,271.77c2.39-.23,2.82,1.19,2.55,3.11-.13.93-.42,1.84-.64,2.77l-3.51-4.85Z"/><path class="cls-2" d="M399.48,157.9c-1.54.64-2.13,1.11-2.68,1.06-2.08-.18-3.15-1.65-3.89-3.43a6,6,0,0,1,1.71-.67C397,154.72,397.14,157.22,399.48,157.9Z"/><path class="cls-2" d="M382.09,332.94a6,6,0,0,1-.27.74c-.45.92-.85.88-1.42.07-.74-1-1.73-1.93-2.38-3a2.09,2.09,0,0,1,.28-1.82c1.14-1.58,1.51.25,2.05.66C381.37,330.35,382.45,331.23,382.09,332.94Z"/><path class="cls-2" d="M350,326.3c.94.95,2.54,1.83,2.63,2.85.07.86-1.48,2.46-2.53,2.68-2.13.45-1.29-1.53-1.34-2.55S348.18,326.69,350,326.3Z"/><path class="cls-2" d="M638.65,429.1l-2.88,5.48c-.32-.54-1-1.14-.9-1.62.28-1.67-1.34-4.34,2.06-4.54C637.49,428.39,638.08,428.86,638.65,429.1Z"/><path class="cls-2" d="M25.07,430.37c.12,2-1.14,2.32-2.58,2.16a1.75,1.75,0,0,1-1.65-2c0-1.93,1.18-2.23,2.61-2.08C24.49,428.54,25.31,429.15,25.07,430.37Z"/><path class="cls-2" d="M560.06,428.4c-1.37,0-2.55-.19-2.56-2.13a1.74,1.74,0,0,1,1.65-2c1.43-.16,2.59.15,2.61,2.07C561.77,427.61,561.14,428.08,560.06,428.4Z"/><path class="cls-2" d="M369.39,424.23c0-.05.64,2.21-1.05,1.57-1.46-.57-.84-3.71-2.89-4.71.51-.35,1-.94,1.56-1C369.31,419.77,369.91,421.08,369.39,424.23Z"/><path class="cls-2" d="M259.09,570.11c-.34.67-.76,1.5-1.17,2.34-.36-.85-.68-1.71-1.09-2.53a4.81,4.81,0,0,0-1-1.58c-.94-.81-1-1.68.09-2.05.81-.27,2.16-.56,2.67.65A14.19,14.19,0,0,1,259.09,570.11Z"/><path class="cls-2" d="M613.94,11.21c-.36.54-.7,1.07-1,1.6-.84-1.24-2.75-1.68-2.68-3.51,0-.23,1.06-.56,1.66-.63C613.82,8.46,613.88,9.86,613.94,11.21Z"/><path class="cls-2" d="M645.32,380.17c.12-.23.54-1.07,1-1.9,1.34.93,1.15,2.35,1,3.64a11.2,11.2,0,0,1-1,2.62C645,383.6,645.22,382.21,645.32,380.17Z"/><path class="cls-2" d="M897.93,23.28c-1.8.11-2.22-1.05-2.06-2.5.06-.56.6-1.07.92-1.61l2.88,3.39Z"/><path class="cls-2" d="M818.58,25.37c-1.8.11-2.22-1.05-2.06-2.5.06-.57.6-1.08.92-1.61l2.88,3.39Z"/><path class="cls-2" d="M864.52,25.82l-1,1.61c-.84-1.24-2.74-1.68-2.68-3.51,0-.23,1.06-.56,1.66-.63C864.4,23.08,864.46,24.47,864.52,25.82Z"/><path class="cls-2" d="M277.74,320.27l-1,1.6c-.83-1.24-2.74-1.68-2.68-3.51,0-.23,1.07-.56,1.66-.63C277.63,317.52,277.69,318.92,277.74,320.27Z"/><path class="cls-2" d="M829.92,130.52c-1.72.82-2.25,1.26-2.81,1.31-2.42.19-2.23-1.52-2.33-3.17-.06-1,.12-1.44,1-1C827.11,128.45,828.31,129.4,829.92,130.52Z"/><path class="cls-2" d="M246.45,145.24c-.18,1.19.43,2.78-.78,2.9-2.06.2-1.25-1.69-1.32-2.76s-.51-2.53.7-2.66C247.19,142.49,246,144.5,246.45,145.24Z"/><path class="cls-2" d="M526.29,587.12c-.28.49-.92,2-1.14,2-2.4-.64-.46-2.57-1-3.87-.37-.92.36-2.28,1.12-2C526.79,583.76,526.07,585.46,526.29,587.12Z"/><path class="cls-2" d="M429.83,611.28,427,614.22c-.34-.86-1-1.75-.95-2.58.13-1.83,1.67-1.74,3-1.52C429.38,610.18,429.61,611,429.83,611.28Z"/><path class="cls-2" d="M453.12,63.44c0-1.35.09-2.74,2-2.56a7.75,7.75,0,0,1,1.75.61L454.18,65Z"/><path class="cls-2" d="M862.39,69.28c-.49-.28-2-.92-1.95-1.14.64-2.4,2.57-.46,3.87-1,.92-.37,2.28.36,2,1.12C865.75,69.78,864.05,69.06,862.39,69.28Z"/><path class="cls-2" d="M137.32,616.31c1.35.05,2.75.09,2.56,2a7.33,7.33,0,0,1-.6,1.74q-1.78-1.35-3.55-2.72Z"/><path class="cls-2" d="M326.75,618.28c.45.75,1,1.26,1.05,1.82.15,1.45-.25,2.68-2.08,2.47a7,7,0,0,1-1.72-.69Z"/><path class="cls-2" d="M294.48,321.87c1.85-.1,2.14,1.15,2,2.56-.06.56-.63,1.06-1,1.59-.9-1.18-2.71-1.68-2.72-3.46C292.8,322.34,293.87,322.11,294.48,321.87Z"/><path class="cls-2" d="M586.76,355c.1,1.2-.26,2.4-1.31,1.93-1.55-.68-.54-2.42-.75-3.69-.16-1,.26-2.21,1.32-1.74C587.58,352.22,586.46,354,586.76,355Z"/><path class="cls-2" d="M271.48,303.56l-1,1.6c-.84-1.23-2.75-1.68-2.68-3.5,0-.24,1.06-.57,1.66-.63C271.36,300.81,271.42,302.21,271.48,303.56Z"/><path class="cls-2" d="M177.75,628.84c-1.19.1-2.39-.26-1.93-1.31.69-1.55,2.43-.54,3.69-.74,1-.17,2.21.25,1.75,1.31C180.57,629.66,178.82,628.55,177.75,628.84Z"/><path class="cls-2" d="M557.72,626.76l1.65.79a26.49,26.49,0,0,1-3,3.34c-.75.61-1,.07-1-.92C555.5,628.31,555.33,626.66,557.72,626.76Z"/><path class="cls-2" d="M342.46,319.8c-1,4-4.21,1.29-6.26,2.09C337.17,317.86,340.41,320.59,342.46,319.8Z"/><path class="cls-2" d="M510.64,346.53c-.23-.14-1-.36-1.07-.69-.21-1.3-.31-2.84,1.5-3,.82-.08,1.72.6,2.58.93C512.68,344.67,511.71,345.56,510.64,346.53Z"/><path class="cls-2" d="M517.61,232.88c-.3.43-.54,1.18-.91,1.24-1.3.22-2.84.29-2.94-1.54,0-.84.63-1.72,1-2.58Z"/><path class="cls-2" d="M357,205.13l-1,1.9c-1.34-.92-1.15-2.35-1-3.63a11.07,11.07,0,0,1,1-2.63C357.35,201.7,357.1,203.09,357,205.13Z"/><path class="cls-2" d="M515.79,239.43c-.15,1,.47,2.56-.74,2.68-2.06.2-1.26-1.69-1.32-2.76s-.51-2.53.69-2.65C516.49,236.49,515.54,238.4,515.79,239.43Z"/><path class="cls-2" d="M403.87,666.36l-2.68-3.31a5.54,5.54,0,0,1,1.63-.75c2.43-.2,2.23,1.52,2.33,3.17C405.22,666.46,405.11,666.77,403.87,666.36Z"/><path class="cls-2" d="M540.05,666.19c-.43-.3-1.18-.55-1.24-.91-.22-1.3-.29-2.84,1.54-2.94.84-.05,1.72.63,2.57,1Z"/><path class="cls-2" d="M410.2,669.28c-1.72.82-2.25,1.27-2.81,1.31-2.43.2-2.23-1.51-2.33-3.17-.07-1,.12-1.44,1-.94C407.38,667.22,408.58,668.17,410.2,669.28Z"/><path class="cls-2" d="M474.51,88c-2,.08-2.69-.71-2.58-2.28.06-.89.38-2.18,1.39-1.38S476.22,86,476,88A12.43,12.43,0,0,1,474.51,88Z"/><path class="cls-2" d="M321.14,376.17c1.37,0,2.72.17,2.5,2.08-.06.6-.42,1.66-.64,1.65-1.79,0-2.29-1.82-3.47-2.71Z"/><path class="cls-2" d="M413.46,708.21h4.17c-.22.58-.29,1.36-.72,1.69-.92.71-1.39,2.62-2.77,2S413.7,709.46,413.46,708.21Z"/><path class="cls-2" d="M398.4,388.69c1.37,0,2.72.18,2.5,2.09-.06.6-.42,1.66-.64,1.65-1.79,0-2.28-1.82-3.47-2.71Z"/><path class="cls-2" d="M352.64,347.73c-.29.43-.54,1.19-.9,1.25-1.3.21-2.84.28-2.95-1.55-.05-.84.63-1.71,1-2.57Z"/><path class="cls-2" d="M316.23,320.55c-1.72.82-2.25,1.26-2.81,1.31-2.42.19-2.23-1.52-2.33-3.17-.06-1,.12-1.44,1-.95C313.41,318.48,314.62,319.43,316.23,320.55Z"/><path class="cls-2" d="M553.46,340.67c1.89-.08,2.09,1.24,1.95,2.61-.06.55-.65,1.05-1,1.58l-2.72-3.55Z"/><path class="cls-2" d="M534.59,889.87c.1,1.8-1.05,2.23-2.51,2.06-.56-.06-1.07-.6-1.61-.92l3.39-2.88Z"/><path class="cls-2" d="M264.42,399.45c1.22.7.76,1.83.71,2.76,0,.29-1,.86-1.28.73-1.2-.54-.74-1.74-.67-2.67C263.2,400,264,399.71,264.42,399.45Z"/><path class="cls-2" d="M342.7,405.39a1.71,1.71,0,0,1-2.15-1.2,10.34,10.34,0,0,1,2.56-.79,1.78,1.78,0,0,1,1.38,1.05C344.81,406.41,343.17,404.94,342.7,405.39Z"/><path class="cls-2" d="M296.69,411.42l-1.21,2.35c-.35-.53-1-1.09-1-1.58a10.72,10.72,0,0,1,1-2.6C295.83,410.12,296.17,410.65,296.69,411.42Z"/><path class="cls-2" d="M386.22,418.6l-1,1.43a10,10,0,0,1-1-2.6c-.06-.48.62-1,1-1.57A2.49,2.49,0,0,1,386.22,418.6Z"/><path class="cls-2" d="M559.54,437.39c-.26.38-.61.91-.95,1.44a10.72,10.72,0,0,1-1-2.6c-.05-.49.63-1.05,1-1.58A2.5,2.5,0,0,1,559.54,437.39Z"/><path class="cls-2" d="M392.61,470.15c-1,.09-1.92-.14-1.71-1.36.05-.33,1.05-.6,1.64-.7,1-.18,1.93.11,1.72,1.34C394.2,469.75,393.19,469.92,392.61,470.15Z"/><path class="cls-2" d="M414.76,307c-.41-.26-1.21-.51-1.23-.82-.07-.93-.53-2.13.67-2.67.28-.13,1.26.44,1.28.73C415.53,305.14,416,306.27,414.76,307Z"/><path class="cls-2" d="M647.33,549.5c.32-1.58-1-4,2.09-4.17C649.11,546.91,650.46,549.33,647.33,549.5Z"/><path class="cls-2" d="M294.13,302.31c-.7,1.22-1.83.77-2.75.71-.29,0-.86-1-.74-1.28.54-1.19,1.74-.73,2.67-.67C293.62,301.09,293.87,301.9,294.13,302.31Z"/><path class="cls-2" d="M258.15,574.87c1.22.7.77,1.82.71,2.75,0,.29-1,.86-1.28.73-1.19-.54-.73-1.74-.67-2.67C256.93,575.38,257.74,575.12,258.15,574.87Z"/><path class="cls-2" d="M436.4,584.76a1.71,1.71,0,0,1-1.19,2.15,10.24,10.24,0,0,1-.8-2.56,1.77,1.77,0,0,1,1.06-1.37C437.42,582.66,436,584.29,436.4,584.76Z"/><path class="cls-2" d="M348.72,593.32c.09,1-.14,1.93-1.36,1.72-.32-.06-.6-1-.7-1.65-.17-1,.11-1.92,1.34-1.71C348.33,591.74,348.49,592.75,348.72,593.32Z"/><path class="cls-2" d="M306.82,296.23a7.78,7.78,0,0,1-2.59.53,1.47,1.47,0,0,1-1.36-2c.07-.21,1.21,0,1.86,0A1.75,1.75,0,0,1,306.82,296.23Z"/><path class="cls-2" d="M471.83,606.54l-.95,1.44a10.68,10.68,0,0,1-1-2.6c-.05-.49.62-1,1-1.58A2.47,2.47,0,0,1,471.83,606.54Z"/><path class="cls-2" d="M306.66,11.52c-.26.41-.51,1.22-.82,1.24-.93.06-2.13.53-2.67-.67-.12-.28.45-1.26.73-1.28C304.83,10.75,306,10.3,306.66,11.52Z"/><path class="cls-2" d="M648.14,610.33c.05,0,1.06.43,1,.58-.4,1.66-1.82,1.08-2.95,1.27s-1.42-.09-.94-1S646.55,609.77,648.14,610.33Z"/><path class="cls-2" d="M175.05,38.75c-.2.33-.46,1.14-.76,1.16-.93.06-2.13.52-2.67-.67-.13-.29.47-1.29.73-1.28C173.27,38,174.44,37.32,175.05,38.75Z"/><path class="cls-2" d="M857.88,38.75c-.2.33-.45,1.14-.76,1.16-.93.06-2.13.52-2.67-.67-.13-.29.47-1.29.73-1.28C856.1,38,857.27,37.32,857.88,38.75Z"/><path class="cls-2" d="M147.16,618.28a10.31,10.31,0,0,1-2.35-.23c-1-.31-1-1.07,0-1.34a5.45,5.45,0,0,1,2.72,0C148.54,617,148.5,617.61,147.16,618.28Z"/><path class="cls-2" d="M168.84,617.63c-.7,1.22-1.83.77-2.75.72-.29,0-.86-1-.74-1.28.54-1.2,1.74-.74,2.67-.67C168.33,616.42,168.58,617.22,168.84,617.63Z"/><path class="cls-2" d="M886.62,43.86a12.77,12.77,0,0,1,.79,2.89c0,.51-.63,1-1,1.58a10.29,10.29,0,0,1-1-2.6C885.4,45.24,886.08,44.68,886.62,43.86Z"/><path class="cls-2" d="M602.7,620.81c1.22.7.77,1.82.71,2.75,0,.29-1,.86-1.28.73-1.19-.54-.73-1.74-.67-2.66C601.48,621.32,602.29,621.06,602.7,620.81Z"/><path class="cls-2" d="M446.92,56.53c.8.44,1.82.84,1.78,1-.39,1.66-1.81,1.08-2.94,1.27s-1.49-.17-.92-1S446.3,56.9,446.92,56.53Z"/><path class="cls-2" d="M300.94,294.71a1.71,1.71,0,0,1-2.15-1.19,10.24,10.24,0,0,1,2.56-.8,1.77,1.77,0,0,1,1.37,1.06C303,295.73,301.41,294.26,300.94,294.71Z"/><path class="cls-2" d="M397.4,649.83l1.44.95a10.57,10.57,0,0,1-2.6,1c-.48,0-1.05-.63-1.58-1A2.5,2.5,0,0,1,397.4,649.83Z"/><path class="cls-2" d="M548.89,661.49c-.7,1.22-1.83.77-2.76.71-.28,0-.86-1-.73-1.28.54-1.2,1.74-.74,2.67-.67C548.38,660.27,548.63,661.08,548.89,661.49Z"/><path class="cls-2" d="M447.13,666.61l-2.35-1.21c.53-.35,1.09-1,1.58-1a10.68,10.68,0,0,1,2.6,1Z"/><path class="cls-2" d="M267.38,133.29l.95-1.43a10.15,10.15,0,0,1,1,2.6c.06.48-.62,1-1,1.57A2.49,2.49,0,0,1,267.38,133.29Z"/><path class="cls-2" d="M269.41,290.56c-1,.09-1.92-.14-1.71-1.36.05-.33,1.05-.6,1.64-.7,1-.17,1.92.11,1.71,1.34C271,290.16,270,290.33,269.41,290.56Z"/><path class="cls-2" d="M882.94,155.7c-.2.32-.45,1.13-.76,1.15-.93.06-2.13.52-2.67-.67-.13-.29.47-1.28.73-1.28C881.16,154.91,882.33,154.26,882.94,155.7Z"/><path class="cls-2" d="M279.82,171.53v-4.17c1.95-.15,2.2,1.19,2,2.59A1.61,1.61,0,0,1,279.82,171.53Z"/><path class="cls-2" d="M196.29,177.84c-.24.57-.4,1.58-.73,1.64-1.22.21-1.51-.72-1.34-1.71.11-.6.38-1.59.71-1.65C196.15,175.91,196.38,176.82,196.29,177.84Z"/><path class="cls-2" d="M269.37,196.59c-.31,1.59,1,4-2.08,4.18C267.6,199.19,266.25,196.77,269.37,196.59Z"/><path class="cls-2" d="M329,215.4a2.5,2.5,0,0,1-1-3.31c.31-.86,1.05-1,1.31-.35a23,23,0,0,1,.58,2.67C330.21,215.4,329.93,215.71,329,215.4Z"/><path class="cls-2" d="M566.06,284l-1.21,2.35c-.35-.53-1-1.1-1-1.58a10.53,10.53,0,0,1,1-2.6Z"/><path class="cls-2" d="M342.46,319.8c.18-3.13,2.59-1.78,4.18-2.09C346.46,320.83,344,319.48,342.46,319.8Z"/><path class="cls-2" d="M31.61,283.44a12.2,12.2,0,0,1-2.88.79c-.52,0-1.06-.63-1.58-1a10.79,10.79,0,0,1,2.6-1C30.23,282.23,30.8,282.91,31.61,283.44Z"/><path class="cls-2" d="M237.7,326.93c-.21.33-.46,1.13-.77,1.15-.93.07-2.13.53-2.67-.67-.12-.28.47-1.28.73-1.28C235.91,326.14,237.08,325.49,237.7,326.93Z"/><path class="cls-2" d="M369.61,787.53c.08,1-.14,1.92-1.37,1.71-.32,0-.59-1-.7-1.64-.17-1,.12-1.93,1.34-1.72C369.21,785.94,369.37,787,369.61,787.53Z"/><path class="cls-2" d="M325.16,326.2a8.09,8.09,0,0,1,.53,2.59,1.47,1.47,0,0,1-2,1.37c-.21-.08,0-1.22,0-1.86A1.75,1.75,0,0,1,325.16,326.2Z"/><path class="cls-2" d="M512.59,280a9.77,9.77,0,0,1-2.35-.23c-1-.31-1-1.07,0-1.34a5.45,5.45,0,0,1,2.72,0C514,278.68,513.93,279.32,512.59,280Z"/><path class="cls-2" d="M396.45,279.34c-.7,1.22-1.83.77-2.75.71-.29,0-.86-1-.73-1.28.53-1.19,1.74-.73,2.66-.67C395.94,278.12,396.19,278.93,396.45,279.34Z"/><path class="cls-2" d="M368.82,352.91c-.41-.26-1.21-.51-1.23-.82-.07-.93-.53-2.13.67-2.67.28-.12,1.26.45,1.28.73C369.59,351.08,370,352.21,368.82,352.91Z"/><path class="cls-2" d="M269.37,369.88c.09,1-.14,1.92-1.36,1.71-.32,0-.6-1-.7-1.64-.17-1,.11-1.92,1.34-1.71C269,368.29,269.14,369.31,269.37,369.88Z"/><path class="cls-2" d="M457.31,267.55c.09,1-.14,1.93-1.36,1.72-.33,0-.6-1-.7-1.65-.18-1,.11-1.92,1.33-1.71C456.91,266,457.07,267,457.31,267.55Z"/><path class="cls-2" d="M425.82,370.17l1.21-2.34c.35.53,1,1.09,1,1.57a10,10,0,0,1-1,2.6Z"/><path class="cls-2" d="M375.78,376.83c-.26.38-.6.91-.95,1.44a10.57,10.57,0,0,1-1-2.6c-.05-.49.63-1.05,1-1.58A2.49,2.49,0,0,1,375.78,376.83Z"/><path class="cls-2" d="M379.19,392.6a12.2,12.2,0,0,1,.79,2.88c0,.52-.63,1.06-1,1.58a11,11,0,0,1-1-2.6C378,394,378.65,393.41,379.19,392.6Z"/><path class="cls-2" d="M332.76,154.53l-.74-.75a6.56,6.56,0,0,1,1.4-.65c.17,0,.46.42.69.65Z"/><path class="cls-2" d="M223.26,145.6c-.24.24-.58.69-.66.64a2.79,2.79,0,0,1-1.22-.94c-.43-.87,0-1.3.88-.88C222.69,144.63,222.94,145.2,223.26,145.6Z"/><path class="cls-2" d="M644.94,362.91l-.74.74a6.56,6.56,0,0,1-.65-1.4c0-.17.42-.45.65-.69Z"/><path class="cls-2" d="M219.26,144.39c0-1.45.64-2.14,2.09-2.09v2.09Z"/><path class="cls-2" d="M231,140.51l.75.74a6.35,6.35,0,0,1-1.4.66c-.18,0-.46-.42-.69-.66Z"/><path class="cls-2" d="M226.87,140.51l.74.74a6.15,6.15,0,0,1-1.4.66c-.17,0-.46-.42-.69-.66Z"/><path class="cls-2" d="M222.56,140.38c.24.24.69.58.64.66a2.73,2.73,0,0,1-.94,1.22c-.87.43-1.3,0-.88-.88C221.59,141,222.16,140.71,222.56,140.38Z"/><path class="cls-2" d="M238.05,134.88c-.41.32-.93,1-1.21.9-.81-.26-1-.89-.4-1.23a8,8,0,0,1,1.61-.6Z"/><path class="cls-2" d="M470.14,129l.74-1.35c.23.23.69.52.66.69a6.84,6.84,0,0,1-.66,1.4Z"/><path class="cls-2" d="M390.19,506.39l-.75,1.35c-.23-.23-.69-.51-.65-.69a6.79,6.79,0,0,1,.65-1.4Z"/><path class="cls-2" d="M861.07,123.2l-.74-.74a6.56,6.56,0,0,1,1.4-.65c.17,0,.45.42.69.65Z"/><path class="cls-2" d="M494.9,508.67c-.42.32-.94,1-1.22.9-.81-.25-.94-.88-.39-1.23a7.74,7.74,0,0,1,1.61-.6Z"/><path class="cls-2" d="M531.74,309.66l.74.74a6.56,6.56,0,0,1-1.4.65c-.17,0-.45-.42-.68-.65Z"/><path class="cls-2" d="M448.21,526.84l.75.74a6.79,6.79,0,0,1-1.4.65c-.18,0-.46-.42-.69-.65Z"/><path class="cls-2" d="M255.8,539.06a6.63,6.63,0,0,1,.65,1.41c0,.17-.42.45-.65.68a6.56,6.56,0,0,1-.65-1.4C255.11,539.58,255.57,539.3,255.8,539.06Z"/><path class="cls-2" d="M333.06,543.24a6.15,6.15,0,0,1,.66,1.4c0,.17-.42.46-.66.69a6.79,6.79,0,0,1-.65-1.4C332.37,543.75,332.83,543.47,333.06,543.24Z"/><path class="cls-2" d="M650.64,543.41c.24.24.68.58.64.66-.25.45-.52,1-.94,1.22-.88.43-1.31,0-.88-.88C649.66,544,650.23,543.74,650.64,543.41Z"/><path class="cls-2" d="M286.38,312.19l.74-.74a6.15,6.15,0,0,1,.66,1.4c0,.17-.42.45-.66.68Z"/><path class="cls-2" d="M755.18,549.2l-1.35-.74c.23-.23.51-.69.69-.65a6.79,6.79,0,0,1,1.4.65Z"/><path class="cls-2" d="M647.33,550.44c-.41.32-.93,1-1.21.89-.81-.25-1-.88-.4-1.23a9.36,9.36,0,0,1,1.61-.6Z"/><path class="cls-2" d="M379.75,349.78c-.25.43-.5.89-.75,1.34-.23-.23-.69-.51-.65-.68A6.63,6.63,0,0,1,379,349Z"/><path class="cls-2" d="M824.66,85c-.24.24-.59.69-.66.65a2.76,2.76,0,0,1-1.22-1c-.43-.87,0-1.3.87-.88C824.08,84.07,824.33,84.64,824.66,85Z"/><path class="cls-2" d="M364.08,68.91l-.74-.74a6.35,6.35,0,0,1,1.4-.66c.18,0,.46.42.69.66Z"/><path class="cls-2" d="M403.32,565.47l.74-1.35c.23.23.69.52.65.69a6.56,6.56,0,0,1-.65,1.4Z"/><path class="cls-2" d="M395.82,63c-.32-.42-1-.94-.9-1.22.25-.81.89-.94,1.23-.39a7.53,7.53,0,0,1,.6,1.61Z"/><path class="cls-2" d="M358.86,351.87l-.74,1.34c-.23-.23-.69-.51-.65-.69a6.79,6.79,0,0,1,.65-1.4Z"/><path class="cls-2" d="M813.46,60.86c-.33-.42-1-.94-.9-1.22.25-.81.88-.94,1.23-.39a9.06,9.06,0,0,1,.6,1.61Z"/><path class="cls-2" d="M305.92,580.83a6.56,6.56,0,0,1,.65,1.4c0,.17-.42.45-.65.69a6.68,6.68,0,0,1-.66-1.41C305.23,581.34,305.69,581.06,305.92,580.83Z"/><path class="cls-2" d="M259.23,583.66l.75-.74a6.56,6.56,0,0,1,.65,1.4c0,.17-.42.45-.65.68Z"/><path class="cls-2" d="M587.08,368.57l.74-.74a6.56,6.56,0,0,1,.65,1.4c0,.17-.42.45-.65.69Z"/><path class="cls-2" d="M421.07,54.29l-1.35-.74c.23-.23.52-.69.69-.65a6.11,6.11,0,0,1,1.4.65Z"/><path class="cls-2" d="M251.8,589.35c.24.24.68.58.64.66a2.69,2.69,0,0,1-.95,1.22c-.87.43-1.3,0-.87-.88C250.82,589.93,251.39,589.68,251.8,589.35Z"/><path class="cls-2" d="M524.13,590.11c-.41.32-.93,1-1.22.9-.8-.25-.94-.88-.39-1.23a8,8,0,0,1,1.61-.6Z"/><path class="cls-2" d="M260.28,593.06l-1.35-.75c.24-.23.52-.69.69-.65a6.56,6.56,0,0,1,1.4.65Z"/><path class="cls-2" d="M624.36,335.46a6.56,6.56,0,0,1-1.4.65c-.17,0-.45-.42-.68-.65a6.56,6.56,0,0,1,1.4-.65C623.85,334.77,624.13,335.23,624.36,335.46Z"/><path class="cls-2" d="M569.2,591.44c.24.24.68.58.64.66a2.73,2.73,0,0,1-.94,1.22c-.88.43-1.31,0-.88-.88C568.22,592,568.79,591.77,569.2,591.44Z"/><path class="cls-2" d="M866.29,37.14l-.74.75a6.68,6.68,0,0,1-.66-1.41c0-.17.43-.45.66-.68Z"/><path class="cls-2" d="M568,594.29c-.41.32-.93,1-1.21.9-.81-.25-.95-.89-.4-1.23a8,8,0,0,1,1.61-.6Z"/><path class="cls-2" d="M855.41,31.92l.74.75a6.56,6.56,0,0,1-1.4.65c-.17,0-.46-.42-.69-.65Z"/><path class="cls-2" d="M653.3,601l-.75.74a6.56,6.56,0,0,1-.65-1.4c0-.17.42-.46.65-.69Z"/><path class="cls-2" d="M197.33,601.71a6.6,6.6,0,0,1,.66,1.4c0,.17-.43.46-.66.69a6.79,6.79,0,0,1-.65-1.4C196.64,602.23,197.1,601.94,197.33,601.71Z"/><path class="cls-2" d="M314,602l1.34.74c-.23.24-.51.7-.68.66a6.15,6.15,0,0,1-1.4-.66Z"/><path class="cls-2" d="M269.37,375.14a6.56,6.56,0,0,1-1.4.65c-.17,0-.45-.42-.68-.65a6.15,6.15,0,0,1,1.4-.66C268.86,374.45,269.14,374.9,269.37,375.14Z"/><path class="cls-2" d="M208.65,333.54c-.25.24-.59.69-.66.65a2.85,2.85,0,0,1-1.23-.95c-.42-.87,0-1.3.88-.88C208.07,332.57,208.32,333.14,208.65,333.54Z"/><path class="cls-2" d="M651.21,607.23l-.74.75a6.42,6.42,0,0,1-.66-1.41c0-.17.42-.45.66-.68Z"/><path class="cls-2" d="M264.32,294.91c.25.24.69.58.65.66-.25.45-.52,1-1,1.22-.87.43-1.3,0-.88-.88C263.35,295.49,263.92,295.24,264.32,294.91Z"/><path class="cls-2" d="M527.56,609.76l-1.34-.74c.23-.23.51-.69.69-.65a6.79,6.79,0,0,1,1.4.65Z"/><path class="cls-2" d="M157.36,611.85l-.75-.74a6.84,6.84,0,0,1,1.4-.66c.18,0,.46.43.69.66Z"/><path class="cls-2" d="M448.66,347.69l-.75,1.34c-.23-.23-.69-.51-.65-.68a6.56,6.56,0,0,1,.65-1.4Z"/><path class="cls-2" d="M551.58,331l.74-.74a6.11,6.11,0,0,1,.65,1.4c0,.17-.42.46-.65.69Z"/><path class="cls-2" d="M268.33,378.27a6.56,6.56,0,0,1,.65,1.4c0,.17-.42.46-.65.69a6.79,6.79,0,0,1-.65-1.4C267.64,378.78,268.1,378.5,268.33,378.27Z"/><path class="cls-2" d="M284.29,613.5l.75-1.35c.23.23.69.52.65.69a6.56,6.56,0,0,1-.65,1.4Z"/><path class="cls-2" d="M205.8,332.33c-.32-.41-1-.93-.9-1.22.25-.81.88-.94,1.23-.39a7.74,7.74,0,0,1,.6,1.61Z"/><path class="cls-2" d="M336.2,322.82c-.42.32-.94,1-1.22.9-.81-.26-.94-.89-.39-1.23a7.53,7.53,0,0,1,1.61-.6Z"/><path class="cls-2" d="M348.72,315.62c.06,1.45-.64,2.14-2.08,2.09C346.58,316.26,347.28,315.57,348.72,315.62Z"/><path class="cls-2" d="M377.66,381.1l-.74,1.35c-.24-.24-.7-.52-.66-.69a6.15,6.15,0,0,1,.66-1.4Z"/><path class="cls-2" d="M310.21,317.71c-.33-.41-1-.93-.9-1.22.25-.8.88-.94,1.23-.39a8.6,8.6,0,0,1,.6,1.61Z"/><path class="cls-2" d="M132.3,620.2l-.75-.74a6.87,6.87,0,0,1,1.41-.65c.17,0,.45.42.68.65Z"/><path class="cls-2" d="M419,384.23l-1.35-.74c.24-.23.52-.69.69-.65a6.56,6.56,0,0,1,1.4.65Z"/><path class="cls-2" d="M302.61,385.75c-.24.24-.58.68-.66.64a2.79,2.79,0,0,1-1.22-.94c-.43-.88,0-1.31.88-.88C302,384.77,302.29,385.35,302.61,385.75Z"/><path class="cls-2" d="M445.08,354.56l.74-1.35c.24.23.7.51.66.69a6.35,6.35,0,0,1-.66,1.4Z"/><path class="cls-2" d="M349.94,313.7c.24.25.69.59.64.66a2.76,2.76,0,0,1-.94,1.23c-.87.42-1.31,0-.88-.88C349,314.28,349.54,314,349.94,313.7Z"/><path class="cls-2" d="M250.58,345.79c-.41.32-.93,1-1.22.9-.8-.25-.94-.89-.39-1.23a8,8,0,0,1,1.61-.6Z"/><path class="cls-2" d="M171.06,630.07c-.24.24-.58.69-.66.65a2.82,2.82,0,0,1-1.22-1c-.43-.87,0-1.3.88-.88C170.48,629.1,170.73,629.67,171.06,630.07Z"/><path class="cls-2" d="M380.79,399.45l1.35.75c-.24.23-.52.69-.69.65a6.56,6.56,0,0,1-1.4-.65Z"/><path class="cls-2" d="M553.37,633a1.76,1.76,0,0,1,2.08-2.08A1.76,1.76,0,0,1,553.37,633Z"/><path class="cls-2" d="M396.75,399.15c.06,1.45-.64,2.14-2.09,2.09A1.77,1.77,0,0,1,396.75,399.15Z"/><path class="cls-2" d="M404.94,400.37c-.25.24-.59.68-.67.64a2.86,2.86,0,0,1-1.22-.94c-.43-.88,0-1.31.88-.88C404.36,399.39,404.61,400,404.94,400.37Z"/><path class="cls-2" d="M553.37,634c-.42.32-.94,1-1.22.89-.81-.25-.94-.88-.39-1.23a8.78,8.78,0,0,1,1.61-.6Z"/><path class="cls-2" d="M586.48,360.82l-.75.74a6.56,6.56,0,0,1-.65-1.4c0-.17.42-.45.65-.69Z"/><path class="cls-2" d="M548.89,638l-.74,1.35c-.24-.23-.7-.52-.66-.69a6.15,6.15,0,0,1,.66-1.4Z"/><path class="cls-2" d="M511.3,642.13l-.74,1.35c-.23-.24-.69-.52-.65-.69a6.11,6.11,0,0,1,.65-1.4Z"/><path class="cls-2" d="M377.22,645.26l-1.35-.74c.23-.23.52-.69.69-.65a6.56,6.56,0,0,1,1.4.65Z"/><path class="cls-2" d="M398.1,645.26l-1.35-.74c.23-.23.52-.69.69-.65a6.56,6.56,0,0,1,1.4.65Z"/><path class="cls-2" d="M475.06,645.56a6.63,6.63,0,0,1,.65,1.41c0,.17-.42.45-.65.68a6.56,6.56,0,0,1-.65-1.4C474.37,646.08,474.83,645.8,475.06,645.56Z"/><path class="cls-2" d="M540.54,646.91l-.75.74a6.56,6.56,0,0,1-.65-1.4c0-.17.42-.45.65-.69Q540.17,646.25,540.54,646.91Z"/><path class="cls-2" d="M94.71,651.53l-.74-.75a6.56,6.56,0,0,1,1.4-.65c.17,0,.45.42.69.65Z"/><path class="cls-2" d="M346.47,406.63c-.25.24-.59.69-.66.64a2.76,2.76,0,0,1-1.23-.94c-.42-.87,0-1.3.88-.88C345.89,405.66,346.14,406.23,346.47,406.63Z"/><path class="cls-2" d="M473.27,650l.75.74a6.42,6.42,0,0,1-1.41.66c-.17,0-.45-.42-.68-.66Z"/><path class="cls-2" d="M471.18,662l-1.34-.74c.23-.24.51-.7.69-.66a6.35,6.35,0,0,1,1.4.66Z"/><path class="cls-2" d="M349.88,409.59c-.32-.41-1-.93-.9-1.21.26-.81.89-.95,1.23-.4a8,8,0,0,1,.6,1.61Z"/><path class="cls-2" d="M624.66,343.51l.75-.74a6.56,6.56,0,0,1,.65,1.4c0,.17-.42.46-.65.69Q625,344.17,624.66,343.51Z"/><path class="cls-2" d="M352.9,409.59c.08,1-.13,1.94-1.38,1.66-.34-.08-.48-1.08-.71-1.66Z"/><path class="cls-2" d="M535.79,666.62c.24.24.68.58.64.66a2.86,2.86,0,0,1-.94,1.22c-.88.43-1.31,0-.88-.88C534.81,667.19,535.38,666.94,535.79,666.62Z"/><path class="cls-2" d="M450.3,668.84l.75.74a6.87,6.87,0,0,1-1.41.65c-.17,0-.45-.42-.68-.65Z"/><path class="cls-2" d="M534.57,669.47c-.41.32-.93,1-1.21.89-.81-.25-1-.88-.4-1.23a9.36,9.36,0,0,1,1.61-.6Z"/><path class="cls-2" d="M361.08,412.9c-.24.24-.58.68-.66.64a2.8,2.8,0,0,1-1.22-1c-.43-.87,0-1.3.88-.87C360.51,411.92,360.76,412.49,361.08,412.9Z"/><path class="cls-2" d="M366.78,412l.74.75a6.79,6.79,0,0,1-1.4.65c-.18,0-.46-.42-.69-.65Z"/><path class="cls-2" d="M292.65,417.2l.74-1.34c.23.23.69.51.65.68a6.63,6.63,0,0,1-.65,1.41Z"/><path class="cls-2" d="M291.6,286.69l.74.74a6.56,6.56,0,0,1-1.4.65c-.17,0-.45-.42-.68-.65Z"/><path class="cls-2" d="M449.7,361.86l1.35.75c-.24.23-.52.69-.69.65a6.56,6.56,0,0,1-1.4-.65Z"/><path class="cls-2" d="M412.53,708.21c-.32-.41-1-.93-.9-1.22.25-.8.88-.94,1.23-.39a8,8,0,0,1,.6,1.61Z"/><path class="cls-2" d="M164.66,419.29l-.74.74a6.56,6.56,0,0,1-.65-1.4c0-.17.42-.45.65-.68Z"/><path class="cls-2" d="M387.66,424.51l.74.74a6.15,6.15,0,0,1-1.4.66c-.17,0-.46-.42-.69-.66Z"/><path class="cls-2" d="M461.19,199.42l-.75,1.35c-.23-.23-.69-.52-.65-.69a6.56,6.56,0,0,1,.65-1.4Z"/><path class="cls-2" d="M304.87,759.37a6.15,6.15,0,0,1-1.4.66c-.17,0-.45-.43-.68-.66a6.56,6.56,0,0,1,1.4-.65C304.36,758.68,304.64,759.14,304.87,759.37Z"/><path class="cls-2" d="M368.56,428.39a6.6,6.6,0,0,1,.66,1.4c0,.17-.43.45-.66.69a6.87,6.87,0,0,1-.65-1.41C367.87,428.9,368.33,428.62,368.56,428.39Z"/><path class="cls-2" d="M478.93,196.29l-.74-.74a6.31,6.31,0,0,1,1.4-.65c.18,0,.46.42.69.65Z"/><path class="cls-2" d="M561.42,431.22c-.24.44-.5.89-.75,1.34-.23-.23-.69-.51-.65-.68a6.56,6.56,0,0,1,.65-1.4Z"/><path class="cls-2" d="M537,362.31l.74-.75a6.35,6.35,0,0,1,.66,1.4c0,.18-.42.46-.66.69Z"/><path class="cls-2" d="M270.59,194.67c.24.25.68.59.64.67a2.79,2.79,0,0,1-.94,1.22c-.88.42-1.31,0-.88-.88C269.62,195.25,270.19,195,270.59,194.67Z"/><path class="cls-2" d="M284.73,173.32l-.74-.74a6.84,6.84,0,0,1,1.4-.66c.17,0,.46.43.69.66Z"/><path class="cls-2" d="M366.64,278.2c.25.25.69.59.65.66a2.78,2.78,0,0,1-1,1.23c-.87.42-1.3,0-.88-.88C365.67,278.78,366.24,278.53,366.64,278.2Z"/><path class="cls-2" d="M220,442.7l-.74-.74a6.56,6.56,0,0,1,1.4-.65c.17,0,.45.42.69.65Z"/><path class="cls-2" d="M254.76,276.88c-.41.32-.93,1-1.22.9-.81-.26-.94-.89-.39-1.23a7.74,7.74,0,0,1,1.61-.6Z"/><path class="cls-2" d="M406.45,167.06l-1.34-.75c.23-.23.51-.69.68-.65a6.56,6.56,0,0,1,1.4.65Z"/><path class="cls-2" d="M565.59,268.34l-.74,1.34c-.23-.23-.69-.51-.65-.69a6.79,6.79,0,0,1,.65-1.4Z"/><path class="cls-2" d="M262.81,450.61l-.74.75a6.35,6.35,0,0,1-.66-1.4c0-.18.42-.46.66-.69Z"/><path class="cls-2" d="M567.68,262.67l-.74.75a6.63,6.63,0,0,1-.65-1.41c0-.17.42-.45.65-.68Z"/><path class="cls-2" d="M237.12,167.36c-.32-.41-1-.93-.9-1.22.25-.81.89-.94,1.23-.39a7.74,7.74,0,0,1,.6,1.61Z"/><path class="cls-2" d="M1.35,253.28l.74.74a6.79,6.79,0,0,1-1.4.65c-.18,0-.46-.42-.69-.65Z"/><path class="cls-2" d="M594.26,823.23c.24.25.68.59.64.67a2.8,2.8,0,0,1-.95,1.22c-.87.42-1.3,0-.87-.88C593.28,823.81,593.85,823.56,594.26,823.23Z"/><path class="cls-2" d="M198.38,160.05a6.63,6.63,0,0,1-1.41.65c-.17,0-.45-.42-.68-.65a6.11,6.11,0,0,1,1.4-.65C197.86,159.36,198.14,159.82,198.38,160.05Z"/><path class="cls-2" d="M325.76,310.4a6.38,6.38,0,0,1-1.41.65c-.17,0-.45-.42-.68-.65a6.56,6.56,0,0,1,1.4-.65C325.24,309.71,325.52,310.17,325.76,310.4Z"/><path class="cls-2" d="M561,889.59l-1.35-.75c.23-.23.51-.69.69-.65a6.79,6.79,0,0,1,1.4.65Z"/><path class="cls-2" d="M276.38,890.19l1.35.74c-.24.23-.52.69-.69.65a6.11,6.11,0,0,1-1.4-.65Z"/><path class="cls-2" d="M734.85,29.85c-1.86-.1-3.47-.31-4.62-2a12.07,12.07,0,0,0-1.46-1.49c.55-.35,1.13-1,1.65-1,8.54.7,16.63-3.68,25.24-2.18,1,.17,2,.14,2,1.33,0,.24-1.11.79-1.67.75-3.75-.26-6.71,3.14-10.62,2.15S738.41,29.29,734.85,29.85Z"/><path class="cls-2" d="M739.72,42.06a16.87,16.87,0,0,1-3.25,0,1.76,1.76,0,0,1-1.41-2.23,5.08,5.08,0,0,1,.85-1.69c.14-.19.59-.19.91-.22,6.14-.49,11.39-2.68,15.32-7.66,1.19-1.51,1.59.41,2.09.87s2.17.92,1.11,2.09A29.36,29.36,0,0,1,739.72,42.06Z"/><path class="cls-2" d="M718.43,19.08c1.22-.24,1.84.58,2,1.62.16,1.43-.15,2.59-2.07,2.61a1.74,1.74,0,0,1-2-1.65C716.12,20.23,716.45,19,718.43,19.08Z"/><path class="cls-2" d="M761.74,29.52c1.38,0,2.72.17,2.51,2.09-.07.59-.43,1.65-.65,1.65-1.79,0-2.28-1.82-3.47-2.72Z"/><path class="cls-2" d="M764.27,21.22c-.23.57-.4,1.58-.73,1.64-1.22.21-1.51-.71-1.33-1.71.1-.6.37-1.59.7-1.65C764.13,19.29,764.36,20.2,764.27,21.22Z"/><path class="cls-2" d="M734.74,55.94l-.75.74a6.56,6.56,0,0,1-.65-1.4c0-.17.42-.46.65-.69Z"/><path class="cls-2" d="M734.74,45.5l-.75.74a6.56,6.56,0,0,1-.65-1.4c0-.17.42-.46.65-.69C734.24,44.6,734.49,45.06,734.74,45.5Z"/><path class="cls-2" d="M774.79,72.91c-.48,5.57-3.9,10.92-5.11,16.91-.17.82-1.52,1.37-1.23,2.57.7,2.88-2.28,6-2.89,5.69-3.43-1.9.63-3.55.74-5.45.41-7.25,3.23-13.72,6.19-20.17.46-1-.48-3,1.45-2.86C775.12,69.68,774.6,71.3,774.79,72.91Z"/><path class="cls-2" d="M769.1,58.77c1,.42,1.86,1.18,1.39,2.26-1.38,3.23-2.91,6.39-4.5,9.52-.22.43-1.35.88-1.68.68-1.19-.69.15.41,0-1-.54-4.11,2.22-7.4,2.94-11.21C767.26,58.84,768.45,58.86,769.1,58.77Z"/><path class="cls-2" d="M762.18,75.47c.34,3.24-.88,5.45-4.17,6.27C757.67,78.5,758.89,76.29,762.18,75.47Z"/><path class="cls-2" d="M758,83.34c.07,2-.72,2.68-2.29,2.57-.88-.06-2.18-.37-1.38-1.39s1.69-2.9,3.66-2.7A12.2,12.2,0,0,1,758,83.34Z"/><path class="cls-2" d="M764.27,71.3c-.31,1.58,1,4-2.09,4.17C762.5,73.89,761.15,71.48,764.27,71.3Z"/></g></g></g></svg>