<svg xmlns="http://www.w3.org/2000/svg" viewBox="0 0 261.19 261.19"><defs><style>.cls-1,.cls-2{fill:#fff;}.cls-2{font-size:110.85px;font-family:SitkaDisplay-Italic, Sitka;font-style:italic;}</style></defs><g id="Слой_2" data-name="Слой 2"><g id="Слой_6" data-name="Слой 6"><rect width="261.19" height="261.19"/><rect class="cls-1" x="155.94" y="56.12" width="6.24" height="48.88"/><rect class="cls-1" x="140.12" y="80.43" width="6.24" height="26.65" transform="translate(-19.38 40.27) rotate(-15)"/><polygon class="cls-1" points="113.98 66.15 108.57 69.27 132.47 112.96 137.87 109.84 113.98 66.15"/><rect class="cls-1" x="112.62" y="95.99" width="6.24" height="26.95" transform="translate(-43.5 113.91) rotate(-45)"/><polygon class="cls-1" points="77.65 102.95 74.53 108.36 116.12 131.6 119.24 126.19 77.65 102.95"/><rect class="cls-1" x="96.38" y="122.95" width="6.24" height="27.74" transform="translate(-58.41 197.53) rotate(-75)"/><rect class="cls-1" x="84.11" y="128.75" width="6.24" height="48.08" transform="translate(-65.55 240.02) rotate(-90)"/><polygon class="cls-1" points="86.36 169.62 87.97 175.65 113.71 168.17 112.09 162.14 86.36 169.62"/></g><g id="Слой_3" data-name="Слой 3"><text class="cls-2" transform="translate(113.71 181.88)">C</text></g></g></svg>