<svg xmlns="http://www.w3.org/2000/svg" viewBox="0 0 261.19 261.19"><defs><style>.cls-1{fill:#fff;}</style></defs><g id="Слой_2" data-name="Слой 2"><g id="Слой_6" data-name="Слой 6"><rect width="261.19" height="261.19"/><rect class="cls-1" x="190.02" y="1" width="12.73" height="99.62"/><rect class="cls-1" x="157.79" y="50.56" width="12.73" height="54.31" transform="translate(-14.52 45.13) rotate(-15)"/><polygon class="cls-1" points="104.5 21.45 93.48 27.81 142.18 116.85 153.2 110.49 104.5 21.45"/><rect class="cls-1" x="101.73" y="82.27" width="12.73" height="54.92" transform="translate(-45.93 108.58) rotate(-45)"/><polygon class="cls-1" points="30.47 96.46 24.1 107.48 108.86 154.83 115.22 143.81 30.47 96.46"/><rect class="cls-1" x="68.64" y="137.22" width="12.73" height="56.54" transform="translate(-104.26 195.1) rotate(-75)"/><rect class="cls-1" x="43.63" y="149.03" width="12.73" height="97.99" transform="translate(-148.03 248.01) rotate(-90)"/><polygon class="cls-1" points="48.2 232.33 51.49 244.62 103.95 229.38 100.66 217.08 48.2 232.33"/></g><g id="Слой_3" data-name="Слой 3"><path class="cls-1" d="M185.72,260.12a98,98,0,0,1-29.85-4.22,64.45,64.45,0,0,1-22.38-12,52.46,52.46,0,0,1-14.12-18.72,58.48,58.48,0,0,1-4.94-24.3,74.62,74.62,0,0,1,3.33-22.14,82.88,82.88,0,0,1,9.44-20.34,91.9,91.9,0,0,1,14.61-17.52,96.08,96.08,0,0,1,40.95-22.74,93.34,93.34,0,0,1,24.54-3.22q7.15,0,14.8.76t14.8,2c4.76.8,9.25,1.69,13.44,2.66s7.81,1.92,10.85,2.86L253.42,156h-7.89l-2.59-18.07a7,7,0,0,0-.62-1.56,4.44,4.44,0,0,0-.92-1.15,8,8,0,0,0-1.3-1c-.49-.3-1-.58-1.48-.85a62.26,62.26,0,0,0-7.4-3.57,81.45,81.45,0,0,0-8.75-3,80.59,80.59,0,0,0-9.93-2.06,78.86,78.86,0,0,0-11.16-.75,56.23,56.23,0,0,0-17.27,2.61A57.07,57.07,0,0,0,169,134.1a60.54,60.54,0,0,0-12.46,11.55,74,74,0,0,0-9.43,15,81.88,81.88,0,0,0-6.05,17.87A93,93,0,0,0,139,198.47q0,24.19,13.38,37T193,248.27a69.54,69.54,0,0,0,17-2,87.07,87.07,0,0,0,14.37-4.87,102.73,102.73,0,0,0,11.84-6.17q5.29-3.27,9.37-6h2.84L245.53,239a125.65,125.65,0,0,1-12,7.58,117,117,0,0,1-14.43,6.78,108.22,108.22,0,0,1-16.16,4.87A79.77,79.77,0,0,1,185.72,260.12Z"/></g></g></svg>