<svg xmlns="http://www.w3.org/2000/svg" viewBox="0 0 32.68 32.68"><defs><style>.cls-1{fill:#1e1f22;opacity:0;}.cls-2{fill:#eee8aa;}</style></defs><g id="Слой_2" data-name="Слой 2"><g id="Слой_5" data-name="Слой 5"><rect class="cls-1" width="32.68" height="32.68" rx="6.18"/></g><g id="Слой_7" data-name="Слой 7"><rect class="cls-2" x="11.83" y="15.84" width="2.32" height="7.71" rx="1.16" transform="translate(17.73 -3.42) rotate(45)"/><path class="cls-2" d="M21.75,11.64a4.88,4.88,0,1,0,0,6.12A4.86,4.86,0,0,0,21.75,11.64Zm-6.31,5a3.19,3.19,0,1,1,5,0A3.18,3.18,0,0,1,15.44,16.66Z"/><path class="cls-2" d="M16.58,14.76a1.8,1.8,0,0,1,1.61-1.47v-.95a2.74,2.74,0,0,0-2.55,2.34Z"/></g></g></svg>