<svg xmlns="http://www.w3.org/2000/svg" viewBox="0 0 262.02 262.35"><defs><style>.cls-1{fill:#172a51;}</style></defs><g id="Слой_2" data-name="Слой 2"><g id="Слой_8" data-name="Слой 8"><rect class="cls-1" width="261.94" height="261.94"/><path d="M6.34,1.47,0,3.52V4.2c1.23-.46,2.47-.92,3.7-1.4.91-.35,1.81-.75,2.72-1.13ZM36.67,9.23A2.1,2.1,0,0,0,37.24,12a2,2,0,0,0,2.81-.45c.7-.82.24-1.54-.17-2.3a2.3,2.3,0,0,1,2.51,2.49,6.68,6.68,0,0,1-1.94,4.73c-2.43,2.66-5,5.22-7.5,7.81-.59.6-1.11,1.38-1.94,1.07a17.32,17.32,0,0,1-1.21,2c-.75.93-1.65,1.76-2.39,2.7S25.89,32.11,25,33.41c-.23-.61-.64-1.14-.51-1.47a20.13,20.13,0,0,1,1.4-2.58c.89.58.9.59,1.4-.26.8-1.38,1.6-2.76,2.36-4.16.6-1.1.57-1.14-.6-1.91-1.08,1.4-2.13,2.82-3.24,4.2-.52.65-1,1.24,0,1.89l-2.09,2.64c-.61-.6-1.09-1.14-1.63-1.61s-.47-.71-.1-1.2c1.35-1.84,2.67-3.71,4-5.58a3,3,0,0,1,1.66-1.24A6.82,6.82,0,0,0,31,19.72,7.08,7.08,0,0,0,32.65,15c-.76,3.6-2.67,6.17-6.32,6.79-4.33.74-7.76-.94-10.12-4.68-1.32.85-1.32.85-.78,1.9-.74.56-1.47,1.13-2.23,1.67a.62.62,0,0,1-.54.05c-.67-.62-1.31-1.28-2-2l5.13-4.09c.11.31.19.5.25.7a8.48,8.48,0,0,0,6.06,5.78c2.84.82,5.51.51,7.72-1.64A7.49,7.49,0,0,0,32,12.08a6.88,6.88,0,0,0-2.47-3.75c.88-1.27,1.78-2.35,3.51-1.55a3.05,3.05,0,0,0,.8.14c4.39.62,8.11-1,9.91-4.5A11.26,11.26,0,0,0,44.7,0H43.06a8.39,8.39,0,0,1-1.28,1.78c-2.11,2.26-6.05,3-8.08,2C34.89,2.54,36.09,1.27,37.28,0h-.85c-1,1-2.09,2-3.13,3a1.41,1.41,0,0,1-1.73.39A11.73,11.73,0,0,0,24,2.74c-4.66,1.27-9,5.44-8.31,11a1,1,0,0,1-.37.72Q13,16.22,10.64,17.88a.83.83,0,0,1-.76.06c-.65-.56-1.24-1.2-1.91-1.87l7.48-5.29a3.67,3.67,0,0,0-1.22.51c-2.07,1.28-4.12,2.58-6.2,3.85-.23.14-.69.23-.84.11-.68-.58-1.28-1.24-1.94-1.89,1-.69,1.89-1.3,2.83-1.93.56.86,1.16.7,1.81.15A9.38,9.38,0,0,1,10.8,11l3.9-2.63C14,8.1,13.93,7.14,13,7.62q-2.37,1.2-4.79,2.31c-.69.32-1.12.64-.34,1.37l-1.13.53-1,.52c-1.08.56-1.22.51-1.85-.61l8.49-5.66c-1-.55-.61-1-.07-1.57,1.52-1.49,3-3,4.53-4.51h-.65L11.31,4.66c-.48.46-1,.85-1.54,1.27l-.19-.2C11.2,3.87,13.13,1.82,15,0H12.54L12,.45c-.73.65-1.35,1.48-2.55,1.35.27.81.3,1.38-.72,1.25-.1,0-.22.08-.33.12C6.67,3.78,4.92,4.41,3.14,5c-.74.23-1.08.52-.4,1.22L0,7.14H0v.74L2.93,6.37C4.26,7.91,5.19,6,6.58,6.22c-1.49,1.07-3,2.15-4.5,3.18a.89.89,0,0,1-.83-.08A10.71,10.71,0,0,1,0,8.12V9.29l.77.77L0,10.31v1.47c.75-.06,1.47-.63,2.26-.24A8.2,8.2,0,0,1,0,12.16v.64a11.45,11.45,0,0,0,2.15-.45,1.14,1.14,0,0,1,1.33.32Q13.88,23.1,24.3,33.48a1.13,1.13,0,0,1,.34,1.33,8.76,8.76,0,0,0,0,5.85,6.09,6.09,0,0,0,6,4.29,4,4,0,0,0,3.76-2.5,3.05,3.05,0,0,0-1.34-3.75c.91-2.38,1.8-4.73,2.7-7.07a1.44,1.44,0,0,0-.56.7Q34,35,32.77,37.67a1.66,1.66,0,0,1-2.83.36.88.88,0,0,1-.14-.7c.35-.95.76-1.89,1.15-2.84.9.48.92.49,1.34-.48.63-1.46,1.23-2.94,1.85-4.41.3-.71.58-1.4-.23-2.16l1.22-.07-.21-.13A18.9,18.9,0,0,1,36.4,25.1c1.47-1.63,3.05-3.16,4.52-4.79a12.56,12.56,0,0,0,2.95-5.12,6.21,6.21,0,0,0-1.58-6.5A3.58,3.58,0,0,0,36.67,9.23ZM28.73,16.8a5.46,5.46,0,0,1-7.42.18l7.06-7.52A5.36,5.36,0,0,1,28.73,16.8Zm-9.07-5.29A8.34,8.34,0,0,1,27.6,5.79c.73,0,1.46.13,2.36.22a9.23,9.23,0,0,1-1.18,1.14,1.41,1.41,0,0,1-1,.21,7.31,7.31,0,0,0-3.66,0l3.2,1.2c-2.48,2.33-4.81,4.53-7.27,6.83A5.16,5.16,0,0,1,19.66,11.51ZM2.84,11C4.91,9.44,5.56,9.14,6,9.47,5.1,10.54,3.53,11.31,2.84,11ZM13.4,21.44l2.29-2.29c.47.43,1,.77,1.58,0l.78.78c-.51.47-.75,1,.06,1.49L15.6,23.63Zm2.71,2.72c.71-.84,1.39-1.65,2.13-2.51.55.69,1,.63,1.52,0a.59.59,0,0,1,.54-.09c.56.2,1.09.46,1.79.77l-3.92,3.92Zm2.7,2.69C20,25.42,21.14,24,22.33,22.62a.84.84,0,0,1,.63-.19c1,.06,2,.15,3.15.24L21,29Zm6.79,8.67a8.74,8.74,0,0,0-.24,5.16,7.9,7.9,0,0,1-.05-6h.28A2.4,2.4,0,0,1,25.6,35.52Zm.53-1.46c-.52-.45-.05-1.55,1.38-3.19C27.85,31.4,27.85,31.4,26.13,34.06ZM30,39.27c-1.08,1.09-.87,2.23,0,3.33a2.23,2.23,0,0,1-3.27-1.31A6.59,6.59,0,0,1,27,36.22Zm.44-6.56c-.26.44-.37.78.08,1.17a.68.68,0,0,1,.15.6c-.49.88-1,1.73-1.6,2.69a17.49,17.49,0,0,1-1.42-1.46,1,1,0,0,1-.05-.84,18.6,18.6,0,0,1,4.84-5.62C31.77,30.4,31.12,31.57,30.43,32.71Zm2.12-6.39-.3-.14a3.07,3.07,0,0,1,.38-.77c2.44-2.49,4.94-4.92,7.32-7.47a42.38,42.38,0,0,0,2.86-3.83C40.5,19.17,36.29,22.55,32.55,26.32ZM25.24,0a2.06,2.06,0,0,0,2.42.36A2.42,2.42,0,0,0,28.2,0Z"/><path d="M106.51,79.07a2.1,2.1,0,0,0,.57,2.74,2,2,0,0,0,2.81-.45c.7-.82.24-1.54-.17-2.3a2.3,2.3,0,0,1,2.51,2.49,6.68,6.68,0,0,1-1.94,4.73c-2.43,2.66-5,5.22-7.5,7.81-.59.6-1.11,1.38-1.94,1.07a17.32,17.32,0,0,1-1.21,2c-.75.93-1.65,1.76-2.39,2.7s-1.52,2.12-2.44,3.42c-.23-.61-.64-1.14-.51-1.47a20.13,20.13,0,0,1,1.4-2.58c.89.58.9.59,1.4-.26.8-1.38,1.6-2.76,2.36-4.16.6-1.1.57-1.14-.6-1.92-1.08,1.41-2.13,2.83-3.24,4.21-.52.65-1,1.24,0,1.89l-2.09,2.64c-.61-.6-1.09-1.14-1.63-1.61s-.47-.71-.1-1.2c1.35-1.84,2.67-3.71,4-5.58A3,3,0,0,1,97.4,92a6.82,6.82,0,0,0,3.41-2.41,7.08,7.08,0,0,0,1.68-4.72c-.76,3.6-2.67,6.17-6.32,6.79-4.33.74-7.76-.94-10.12-4.68-1.32.85-1.32.85-.78,1.9-.74.56-1.47,1.13-2.23,1.67a.62.62,0,0,1-.54,0c-.67-.62-1.31-1.28-2-2l5.13-4.09c.11.31.19.5.25.7A8.48,8.48,0,0,0,91.94,91c2.84.82,5.51.51,7.72-1.64a7.49,7.49,0,0,0,2.2-7.42,6.88,6.88,0,0,0-2.47-3.75c.88-1.27,1.78-2.35,3.51-1.55a3.05,3.05,0,0,0,.8.14c4.39.62,8.11-1,9.91-4.5a9.11,9.11,0,0,0,.16-8.8c.38,3,0,5.82-2.15,8.16s-6.05,2.95-8.08,2l4.49-4.8,4.43-4.74c-3.15,2.86-6.26,5.74-9.32,8.67a1.41,1.41,0,0,1-1.73.39,11.73,11.73,0,0,0-7.58-.6c-4.66,1.27-9,5.44-8.31,11a1,1,0,0,1-.37.72q-2.31,1.73-4.67,3.39a.83.83,0,0,1-.76.06c-.65-.56-1.24-1.2-1.91-1.87l7.48-5.29a3.67,3.67,0,0,0-1.22.51C82,82.41,80,83.71,77.87,85c-.23.14-.69.23-.84.11-.68-.58-1.28-1.24-1.94-1.89l2.82-1.93c.57.86,1.17.7,1.82.15a9.38,9.38,0,0,1,.91-.58l3.9-2.63c-.72-.27-.77-1.23-1.7-.75q-2.37,1.2-4.79,2.31c-.69.32-1.12.64-.34,1.37l-1.13.53-1,.52c-1.08.56-1.22.51-1.85-.61l8.49-5.66c-1-.55-.61-1-.07-1.57,1.74-1.71,3.43-3.47,5.19-5.15a47.27,47.27,0,0,1,4-3.48,5.56,5.56,0,0,1,4.31-1.23,2.09,2.09,0,0,1,2,2.16,5.68,5.68,0,0,0-2,0,1.85,1.85,0,0,0-.86,2.67,2,2,0,0,0,2.79.87,3.19,3.19,0,0,0,1.7-3.3,4.86,4.86,0,0,0-4.15-4.07,7.72,7.72,0,0,0-6.53,1.64c-2.32,1.81-4.44,3.86-6.64,5.82-.73.65-1.35,1.48-2.55,1.35.27.81.3,1.38-.72,1.25-.1,0-.22.08-.33.12-1.77.61-3.52,1.24-5.3,1.81-.74.23-1.08.52-.4,1.22L69.86,77a1.39,1.39,0,0,1-1.71-.8A2,2,0,0,1,69,74.36c1.52-.57,3-1.13,4.56-1.72.91-.35,1.81-.75,2.72-1.13l-.08-.2-8,2.59A3,3,0,0,0,65,72.29a3.3,3.3,0,0,0-2.72,2.24,5.06,5.06,0,0,0,1,5.7c2.42,2.64,5.44,3,8.7,2a1.14,1.14,0,0,1,1.33.32q10.4,10.42,20.82,20.81a1.13,1.13,0,0,1,.34,1.33,8.76,8.76,0,0,0,0,5.85,6.09,6.09,0,0,0,6,4.29,4,4,0,0,0,3.76-2.5,3.05,3.05,0,0,0-1.34-3.75c.91-2.38,1.8-4.73,2.7-7.07a1.44,1.44,0,0,0-.56.7q-1.22,2.67-2.42,5.34a1.66,1.66,0,0,1-2.83.36.88.88,0,0,1-.14-.7c.35-1,.76-1.89,1.15-2.84.9.48.92.49,1.34-.48.63-1.46,1.23-2.94,1.85-4.41.3-.71.58-1.4-.23-2.16l1.22-.07-.21-.13a18.9,18.9,0,0,1,1.48-2.14c1.47-1.63,3.05-3.16,4.52-4.79A12.56,12.56,0,0,0,113.71,85a6.21,6.21,0,0,0-1.58-6.5A3.58,3.58,0,0,0,106.51,79.07Zm-7.94,7.57a5.45,5.45,0,0,1-7.42.17q3.54-3.75,7.06-7.51A5.36,5.36,0,0,1,98.57,86.64ZM89.5,81.35a8.34,8.34,0,0,1,7.94-5.72c.73,0,1.46.13,2.36.22A9.23,9.23,0,0,1,98.62,77a1.41,1.41,0,0,1-1,.21,7.31,7.31,0,0,0-3.66,0l3.2,1.2c-2.48,2.33-4.81,4.53-7.27,6.83A5.16,5.16,0,0,1,89.5,81.35Zm1.86-16.47a12.41,12.41,0,0,0-1.07.8c-3.05,2.94-6.09,5.89-9.14,8.82-.48.46-1,.85-1.54,1.27l-.19-.2C83.19,71.26,88.6,65.87,91.36,64.88ZM64.13,77a5.68,5.68,0,0,0,1.73.54A6.49,6.49,0,0,0,67.71,77l2.9,2.9c-1.85.65-3.58,1-5.32.12A2.23,2.23,0,0,1,64.13,77Zm3,4.76,2.57-.11c.79,0,1.53-.66,2.36-.25A6.89,6.89,0,0,1,67.17,81.74Zm4.75-2.5a.89.89,0,0,1-.83-.08,14.55,14.55,0,0,1-1.4-1.35l3.08-1.6c1.33,1.54,2.26-.34,3.65-.15C74.93,77.13,73.44,78.21,71.92,79.24Zm.76,1.55c2.07-1.51,2.72-1.81,3.16-1.48C74.94,80.38,73.37,81.15,72.68,80.79ZM83.24,91.28,85.53,89c.47.43,1,.77,1.58,0l.78.78c-.51.47-.75,1,.06,1.49l-2.51,2.19ZM86,94c.71-.84,1.39-1.65,2.13-2.51.55.69,1,.63,1.52,0a.59.59,0,0,1,.54-.09c.56.2,1.09.46,1.79.77L88,96.06Zm2.7,2.69c1.18-1.43,2.33-2.84,3.52-4.23a.84.84,0,0,1,.63-.19c1,.06,2,.15,3.15.24l-5.11,6.36Zm6.79,8.67a8.74,8.74,0,0,0-.24,5.16,7.9,7.9,0,0,1,0-6h.28A2.4,2.4,0,0,1,95.44,105.36ZM96,103.9c-.52-.45,0-1.55,1.38-3.19C97.69,101.24,97.69,101.24,96,103.9Zm3.86,5.21c-1.08,1.09-.87,2.23,0,3.33a2.23,2.23,0,0,1-3.27-1.31,6.59,6.59,0,0,1,.27-5.07Zm.44-6.56c-.26.44-.37.78.08,1.17a.68.68,0,0,1,.15.6c-.49.88-1,1.73-1.6,2.69a17.49,17.49,0,0,1-1.42-1.46.92.92,0,0,1,0-.84,18.6,18.6,0,0,1,4.84-5.62C101.61,100.24,101,101.41,100.27,102.55Zm2.12-6.39-.3-.14a3.07,3.07,0,0,1,.38-.77c2.44-2.49,4.94-4.92,7.32-7.47A42.38,42.38,0,0,0,112.65,84C110.34,89,106.13,92.39,102.39,96.16Z"/><path d="M80.52,30.68a4.57,4.57,0,0,0-1.11,0,13.86,13.86,0,0,0-6.74,3.2,29.74,29.74,0,0,0-4.31,4.79.78.78,0,0,1-.76.36C66.54,39,65.48,39,64.42,39a22.84,22.84,0,0,0-7.74,1,8.82,8.82,0,0,0-3.84,14.62,35.74,35.74,0,0,0,2.81,2.64h0c-.88,1.38-1.74,2.77-2.66,4.13a4,4,0,0,1-2.31,1.71,5.24,5.24,0,0,1-5.25-2.7,3.88,3.88,0,0,1-.14-.84l.16-.07.51.4a2.51,2.51,0,0,0,1.93.72,3.33,3.33,0,0,0,2.74-2.39,2.85,2.85,0,0,0-1.2-3.2,3.26,3.26,0,0,0-3.62-.16,4.43,4.43,0,0,0-1.49,5.32,6.62,6.62,0,0,0,3.32,3.47,4.69,4.69,0,0,0,6.43-1.8c.79-1.25,1.61-2.48,2.38-3.74.23-.37.41-.4.78-.23a8.39,8.39,0,0,0,6.15.38,5.62,5.62,0,0,0,4-6,7.52,7.52,0,0,0-2.3-4.65l-1-1c.78-1.16,1.57-2.35,2.39-3.51a.71.71,0,0,1,.5-.23c1.27,0,2.54.09,3.8,0A9.72,9.72,0,0,0,78,39.34a15.83,15.83,0,0,0,2.62-4.89,18.7,18.7,0,0,0,.71-2.74C81.5,31,81.24,30.73,80.52,30.68ZM63.61,53.51a4,4,0,0,1-3.84,3.42,5.73,5.73,0,0,1-2.38-.22l4.7-7.09A4.65,4.65,0,0,1,63.61,53.51ZM63,46.06a7.87,7.87,0,0,0-4.08-.85c-4.07.27-5,4.55-3.82,6.82.09.16.21.31.32.47l.11,0c.07-1.69.29-3.35,2.12-4.06a3.9,3.9,0,0,1,3.44.46l-4.83,7.41a8.27,8.27,0,0,1-2.68-2,6.84,6.84,0,0,1-.65-8.45,7.67,7.67,0,0,1,5.28-3.29,17.89,17.89,0,0,1,5.75,0l1.38.17ZM79.22,34.48a5.35,5.35,0,0,1-2.66,3.65,6.75,6.75,0,0,1-3.43,1c-1.19,0-2.38,0-3.56,0a1,1,0,0,1-.2-.05A13.52,13.52,0,0,1,76,33.55a6.9,6.9,0,0,1,2.26-.31C79.1,33.26,79.36,33.69,79.22,34.48Z"/><path d="M148.3,98.46a4.57,4.57,0,0,0-1.11,0,13.86,13.86,0,0,0-6.74,3.2,30.17,30.17,0,0,0-4.31,4.79.78.78,0,0,1-.76.36c-1.06,0-2.12-.09-3.18-.09a22.84,22.84,0,0,0-7.74,1,8.82,8.82,0,0,0-3.84,14.62,35.74,35.74,0,0,0,2.81,2.64h0c-.88,1.38-1.74,2.77-2.66,4.13a3.93,3.93,0,0,1-2.31,1.71,5.24,5.24,0,0,1-5.25-2.7,3.88,3.88,0,0,1-.14-.84l.16-.07.51.4a2.48,2.48,0,0,0,1.93.72,3.33,3.33,0,0,0,2.74-2.39,2.85,2.85,0,0,0-1.2-3.2,3.26,3.26,0,0,0-3.62-.16A4.43,4.43,0,0,0,112.1,128a6.62,6.62,0,0,0,3.32,3.47,4.69,4.69,0,0,0,6.43-1.8c.79-1.25,1.61-2.48,2.38-3.74.23-.37.41-.39.79-.23a8.36,8.36,0,0,0,6.14.38,5.64,5.64,0,0,0,4-6,7.59,7.59,0,0,0-2.31-4.65c-.33-.34-.67-.67-1-1,.78-1.16,1.58-2.35,2.39-3.51a.71.71,0,0,1,.5-.23c1.27,0,2.54.09,3.8,0a9.72,9.72,0,0,0,7.26-3.56,15.83,15.83,0,0,0,2.62-4.89,18.7,18.7,0,0,0,.71-2.74C149.28,98.79,149,98.51,148.3,98.46Zm-16.91,22.83a4,4,0,0,1-3.84,3.42,5.57,5.57,0,0,1-2.38-.22l4.7-7.09A4.65,4.65,0,0,1,131.39,121.29Zm-.6-7.45a7.87,7.87,0,0,0-4.08-.85c-4.07.27-5,4.55-3.82,6.82a4.87,4.87,0,0,0,.32.47l.11,0c.08-1.69.29-3.35,2.12-4.06a3.9,3.9,0,0,1,3.44.46l-4.83,7.41a8.27,8.27,0,0,1-2.68-2,6.84,6.84,0,0,1-.65-8.45A7.67,7.67,0,0,1,126,110.3a17.89,17.89,0,0,1,5.75,0l1.38.17ZM147,102.26a5.4,5.4,0,0,1-2.67,3.65,6.75,6.75,0,0,1-3.43,1c-1.19,0-2.38,0-3.56,0a1,1,0,0,1-.2,0,13.52,13.52,0,0,1,6.67-5.53,6.9,6.9,0,0,1,2.26-.31C146.88,101,147.14,101.47,147,102.26Z"/><path d="M178,150.58a2.1,2.1,0,0,0,.57,2.74,2,2,0,0,0,2.81-.45c.7-.82.24-1.55-.17-2.3a2.3,2.3,0,0,1,2.51,2.49,6.7,6.7,0,0,1-1.94,4.73c-2.43,2.66-5,5.22-7.5,7.81-.59.6-1.11,1.38-1.94,1.07a17.32,17.32,0,0,1-1.21,2c-.75.93-1.65,1.76-2.39,2.7s-1.52,2.12-2.44,3.42c-.23-.61-.64-1.14-.51-1.47a20.13,20.13,0,0,1,1.4-2.58c.89.58.9.59,1.4-.26.8-1.38,1.6-2.76,2.36-4.16.6-1.1.57-1.14-.61-1.92-1.07,1.41-2.12,2.83-3.23,4.21-.52.65-1,1.24,0,1.88-.72.92-1.38,1.76-2.09,2.65-.61-.6-1.09-1.14-1.63-1.61s-.47-.71-.1-1.2c1.35-1.84,2.67-3.71,4-5.58a2.94,2.94,0,0,1,1.66-1.24,6.82,6.82,0,0,0,3.41-2.41,7.08,7.08,0,0,0,1.68-4.72c-.76,3.6-2.67,6.17-6.32,6.79-4.33.74-7.76-.94-10.12-4.68-1.32.85-1.32.85-.78,1.9-.74.56-1.47,1.13-2.23,1.67a.62.62,0,0,1-.54.05c-.67-.62-1.31-1.28-2-2l5.13-4.09c.11.31.19.5.25.7a8.48,8.48,0,0,0,6.06,5.78c2.84.82,5.51.51,7.72-1.64a7.5,7.5,0,0,0,2.2-7.42,6.88,6.88,0,0,0-2.47-3.75c.88-1.27,1.78-2.35,3.51-1.55a3,3,0,0,0,.8.14c4.39.62,8.11-1,9.91-4.5a9.13,9.13,0,0,0,.16-8.81c.38,3,0,5.83-2.15,8.17s-6,3-8.09,2l4.5-4.8,4.43-4.74c-3.15,2.86-6.26,5.74-9.32,8.67a1.41,1.41,0,0,1-1.73.39,11.73,11.73,0,0,0-7.58-.6c-4.66,1.27-9,5.44-8.31,11a1,1,0,0,1-.37.72q-2.31,1.72-4.67,3.39a.83.83,0,0,1-.76.06c-.65-.56-1.24-1.2-1.91-1.87l7.48-5.29a3.67,3.67,0,0,0-1.22.51c-2.07,1.28-4.12,2.58-6.2,3.85-.23.14-.7.23-.84.11-.68-.58-1.28-1.24-1.94-1.89l2.82-1.93c.56.86,1.17.7,1.81.15.28-.23.62-.38.92-.58l3.9-2.63c-.72-.27-.77-1.23-1.7-.75q-2.37,1.2-4.79,2.31c-.69.32-1.12.64-.34,1.37l-1.13.53-1.05.52c-1.08.56-1.22.51-1.85-.61l8.49-5.66c-1-.55-.61-1-.07-1.57,1.74-1.71,3.43-3.47,5.19-5.15a47.27,47.27,0,0,1,4-3.48,5.56,5.56,0,0,1,4.31-1.23,2.09,2.09,0,0,1,2,2.16,5.68,5.68,0,0,0-2,0,1.85,1.85,0,0,0-.86,2.67,2,2,0,0,0,2.78.87,3.19,3.19,0,0,0,1.71-3.3,4.86,4.86,0,0,0-4.15-4.07A7.72,7.72,0,0,0,160,136c-2.32,1.81-4.44,3.86-6.64,5.82-.73.65-1.35,1.47-2.55,1.35.27.8.3,1.38-.72,1.25-.1,0-.22.08-.33.12-1.77.61-3.52,1.24-5.3,1.81-.74.23-1.08.52-.4,1.22l-2.72.94a1.4,1.4,0,0,1-1.71-.8,2,2,0,0,1,.83-1.82c1.52-.57,3-1.13,4.56-1.72.91-.35,1.81-.75,2.72-1.13a1.67,1.67,0,0,1-.08-.2l-8,2.58a3,3,0,0,0-3.15-1.6A3.3,3.3,0,0,0,133.8,146a5.06,5.06,0,0,0,1,5.7c2.42,2.64,5.44,2.95,8.7,2a1.14,1.14,0,0,1,1.33.32q10.39,10.42,20.82,20.81a1.13,1.13,0,0,1,.34,1.33,8.76,8.76,0,0,0,0,5.85,6.09,6.09,0,0,0,6,4.29,4,4,0,0,0,3.76-2.5,3.05,3.05,0,0,0-1.34-3.75c.91-2.38,1.8-4.73,2.69-7.08a1.55,1.55,0,0,0-.55.71q-1.22,2.67-2.42,5.34a1.66,1.66,0,0,1-2.83.36.88.88,0,0,1-.14-.7c.35-1,.76-1.89,1.15-2.84.9.48.92.49,1.34-.48.63-1.46,1.23-2.94,1.85-4.41.3-.71.58-1.4-.23-2.16l1.22-.07-.21-.13a18.9,18.9,0,0,1,1.48-2.14c1.47-1.63,3.05-3.16,4.52-4.79a12.56,12.56,0,0,0,2.95-5.12,6.21,6.21,0,0,0-1.58-6.5A3.58,3.58,0,0,0,178,150.58Zm-7.94,7.57a5.45,5.45,0,0,1-7.42.17q3.53-3.75,7.06-7.51A5.36,5.36,0,0,1,170.08,158.15ZM161,152.86a8.32,8.32,0,0,1,7.94-5.72c.73,0,1.46.13,2.36.22a9.23,9.23,0,0,1-1.18,1.14,1.41,1.41,0,0,1-1,.21,7.35,7.35,0,0,0-3.67,0l3.21,1.2c-2.48,2.33-4.81,4.53-7.27,6.83A5.16,5.16,0,0,1,161,152.86Zm1.86-16.47a10.64,10.64,0,0,0-1.07.8c-3.05,2.94-6.09,5.89-9.14,8.82-.48.46-1,.85-1.54,1.27l-.19-.2C154.7,142.77,160.11,137.38,162.87,136.39Zm-27.23,12.1a5.68,5.68,0,0,0,1.73.54,6.49,6.49,0,0,0,1.85-.52l2.9,2.9c-1.85.65-3.58,1-5.32.12A2.23,2.23,0,0,1,135.64,148.49Zm3,4.76,2.57-.11c.79,0,1.53-.66,2.36-.25A6.89,6.89,0,0,1,138.68,153.25Zm4.75-2.5a.89.89,0,0,1-.83-.08,15.87,15.87,0,0,1-1.4-1.35l3.08-1.6c1.33,1.54,2.26-.34,3.65-.15C146.44,148.64,145,149.72,143.43,150.75Zm.76,1.55c2.07-1.51,2.72-1.81,3.16-1.48C146.45,151.89,144.88,152.66,144.19,152.3Zm10.56,10.49L157,160.5c.47.43,1,.77,1.58,0l.78.77c-.51.48-.75,1,.06,1.5L157,165Zm2.71,2.72c.71-.84,1.39-1.65,2.13-2.51.55.68,1,.63,1.52,0a.59.59,0,0,1,.54-.09c.56.2,1.09.46,1.79.77l-3.92,3.92Zm2.7,2.69c1.18-1.43,2.33-2.85,3.52-4.23a.84.84,0,0,1,.63-.19c1,.06,2,.15,3.15.24l-5.12,6.36C161.61,169.64,160.92,169,160.16,168.2Zm6.79,8.67a8.74,8.74,0,0,0-.24,5.16,7.9,7.9,0,0,1-.05-5.95h.28A2.4,2.4,0,0,1,167,176.87Zm.53-1.46c-.52-.45,0-1.55,1.38-3.19C169.2,172.75,169.2,172.75,167.48,175.41Zm3.86,5.2c-1.08,1.1-.87,2.24,0,3.34a2.23,2.23,0,0,1-3.27-1.31,6.64,6.64,0,0,1,.26-5.07Zm.44-6.55c-.26.44-.37.78.08,1.17a.68.68,0,0,1,.15.6c-.49.88-1,1.73-1.6,2.69a17.49,17.49,0,0,1-1.42-1.46.94.94,0,0,1-.05-.85,18.69,18.69,0,0,1,4.84-5.61C173.12,171.75,172.47,172.92,171.78,174.06Zm2.12-6.39-.3-.14a3.07,3.07,0,0,1,.38-.77c2.44-2.49,4.94-4.92,7.32-7.47a42.38,42.38,0,0,0,2.86-3.83C181.85,160.52,177.64,163.9,173.9,167.67Z"/><path d="M250.78,223.34a2.1,2.1,0,0,0,.57,2.74,2,2,0,0,0,2.81-.45c.7-.82.24-1.54-.17-2.3a2.3,2.3,0,0,1,2.51,2.49,6.68,6.68,0,0,1-1.94,4.73c-2.43,2.66-5,5.22-7.5,7.81-.59.6-1.11,1.38-1.94,1.07a17.32,17.32,0,0,1-1.21,2c-.75.93-1.65,1.76-2.39,2.7s-1.52,2.12-2.44,3.42c-.23-.61-.64-1.14-.51-1.47a20.13,20.13,0,0,1,1.4-2.58c.89.58.9.59,1.4-.26.8-1.38,1.6-2.76,2.36-4.16.6-1.1.57-1.14-.61-1.92-1.07,1.41-2.12,2.83-3.23,4.21-.52.65-1,1.24,0,1.89l-2.09,2.64c-.61-.6-1.09-1.14-1.63-1.61s-.47-.71-.1-1.2c1.35-1.84,2.67-3.71,4-5.58a3,3,0,0,1,1.66-1.24,6.82,6.82,0,0,0,3.41-2.41,7.08,7.08,0,0,0,1.68-4.72c-.76,3.6-2.67,6.17-6.32,6.79-4.33.74-7.76-.94-10.12-4.68-1.32.85-1.32.85-.78,1.9-.74.56-1.47,1.13-2.23,1.67a.62.62,0,0,1-.54.05c-.67-.62-1.31-1.28-2-2l5.13-4.09c.11.31.19.5.25.7a8.48,8.48,0,0,0,6.06,5.78c2.84.82,5.51.51,7.72-1.64a7.49,7.49,0,0,0,2.2-7.42,6.88,6.88,0,0,0-2.47-3.75c.88-1.27,1.78-2.35,3.51-1.55a3.05,3.05,0,0,0,.8.14c4.39.62,8.11-1,9.91-4.5a9.11,9.11,0,0,0,.16-8.8c.38,3,0,5.82-2.15,8.16s-6,3-8.08,2l4.49-4.8,4.43-4.74c-3.15,2.86-6.26,5.74-9.32,8.67a1.41,1.41,0,0,1-1.73.39,11.73,11.73,0,0,0-7.58-.6c-4.66,1.27-9,5.44-8.31,11a1,1,0,0,1-.37.72q-2.31,1.72-4.67,3.39a.83.83,0,0,1-.76.06c-.65-.56-1.24-1.2-1.91-1.87l7.48-5.29a3.67,3.67,0,0,0-1.22.51c-2.07,1.28-4.12,2.58-6.2,3.85-.23.14-.7.23-.84.11-.68-.58-1.28-1.24-1.94-1.89l2.82-1.93c.57.86,1.17.7,1.82.15a9.38,9.38,0,0,1,.91-.58l3.9-2.63c-.72-.27-.77-1.23-1.7-.75q-2.37,1.2-4.79,2.31c-.69.32-1.12.64-.34,1.37l-1.13.53-1,.52c-1.08.56-1.22.51-1.85-.61l8.49-5.66c-1-.55-.61-1-.07-1.57,1.74-1.71,3.43-3.47,5.19-5.15a47.27,47.27,0,0,1,4-3.48,5.56,5.56,0,0,1,4.31-1.23,2.09,2.09,0,0,1,2,2.16,5.68,5.68,0,0,0-2,0,1.85,1.85,0,0,0-.86,2.67,2,2,0,0,0,2.79.87,3.19,3.19,0,0,0,1.7-3.3,4.86,4.86,0,0,0-4.15-4.07,7.72,7.72,0,0,0-6.53,1.64c-2.32,1.81-4.44,3.86-6.64,5.82-.73.65-1.35,1.47-2.55,1.35.27.81.3,1.38-.72,1.25-.1,0-.22.08-.33.12-1.77.61-3.52,1.24-5.3,1.81-.74.23-1.08.52-.4,1.22l-2.72.94a1.39,1.39,0,0,1-1.71-.8,2,2,0,0,1,.83-1.82c1.52-.57,3-1.13,4.56-1.72.91-.35,1.81-.75,2.72-1.13l-.08-.2-8,2.59a3,3,0,0,0-3.15-1.61,3.3,3.3,0,0,0-2.72,2.24,5.06,5.06,0,0,0,1,5.7c2.42,2.64,5.44,2.95,8.7,2a1.14,1.14,0,0,1,1.33.32q10.4,10.42,20.82,20.81a1.13,1.13,0,0,1,.34,1.33,8.76,8.76,0,0,0,0,5.85,6.1,6.1,0,0,0,6,4.29,4,4,0,0,0,3.76-2.5,3.05,3.05,0,0,0-1.34-3.75c.91-2.38,1.8-4.73,2.7-7.07a1.44,1.44,0,0,0-.56.7q-1.22,2.67-2.42,5.34a1.66,1.66,0,0,1-2.83.36.88.88,0,0,1-.14-.7c.35-.95.76-1.89,1.15-2.84.9.48.92.49,1.34-.48.63-1.46,1.23-2.94,1.85-4.41.3-.71.58-1.4-.23-2.16l1.22-.07-.21-.13a18.9,18.9,0,0,1,1.48-2.14c1.47-1.63,3.05-3.16,4.52-4.79a12.56,12.56,0,0,0,3-5.12,6.21,6.21,0,0,0-1.58-6.5A3.58,3.58,0,0,0,250.78,223.34Zm-7.94,7.57a5.45,5.45,0,0,1-7.42.17q3.54-3.75,7.06-7.51A5.36,5.36,0,0,1,242.84,230.91Zm-9.07-5.29a8.33,8.33,0,0,1,7.94-5.72c.73,0,1.46.13,2.36.22a9.23,9.23,0,0,1-1.18,1.14,1.41,1.41,0,0,1-1,.21,7.35,7.35,0,0,0-3.67,0l3.21,1.2c-2.48,2.33-4.81,4.53-7.27,6.83A5.16,5.16,0,0,1,233.77,225.62Zm1.86-16.47a12.41,12.41,0,0,0-1.07.8c-3.05,2.94-6.09,5.89-9.14,8.82-.48.46-1,.85-1.54,1.27l-.19-.2C227.46,215.53,232.87,210.14,235.63,209.15Zm-27.23,12.1a5.68,5.68,0,0,0,1.73.54,6.49,6.49,0,0,0,1.85-.52l2.9,2.9c-1.85.65-3.58,1-5.32.12A2.23,2.23,0,0,1,208.4,221.25Zm3,4.76,2.57-.11c.79,0,1.53-.66,2.36-.25A6.89,6.89,0,0,1,211.44,226Zm4.75-2.5a.89.89,0,0,1-.83-.08,14.55,14.55,0,0,1-1.4-1.35l3.08-1.6c1.33,1.54,2.26-.34,3.65-.15C219.2,221.4,217.71,222.48,216.19,223.51Zm.76,1.55c2.07-1.51,2.72-1.81,3.16-1.48C219.21,224.65,217.64,225.42,217,225.06Zm10.56,10.49,2.29-2.29c.47.43,1,.77,1.58,0l.78.78c-.51.47-.75,1,.06,1.49l-2.51,2.19Zm2.71,2.72c.71-.84,1.39-1.65,2.13-2.51.55.69,1,.63,1.52,0a.59.59,0,0,1,.54-.09c.56.2,1.09.46,1.79.77-1.34,1.35-2.6,2.6-3.92,3.92C231.63,239.67,231,239,230.22,238.27Zm2.7,2.69c1.18-1.43,2.33-2.84,3.52-4.23a.84.84,0,0,1,.63-.19c1,.06,2,.15,3.15.24l-5.12,6.36C234.37,242.4,233.68,241.71,232.92,241Zm6.79,8.67a8.74,8.74,0,0,0-.24,5.16,7.9,7.9,0,0,1-.05-5.95h.28A2.4,2.4,0,0,1,239.71,249.63Zm.53-1.46c-.52-.45-.05-1.55,1.38-3.19C242,245.51,242,245.51,240.24,248.17Zm3.86,5.2c-1.08,1.1-.87,2.24,0,3.34a2.23,2.23,0,0,1-3.27-1.31,6.64,6.64,0,0,1,.26-5.07Zm.44-6.55c-.26.44-.37.78.08,1.17a.68.68,0,0,1,.15.6c-.49.88-1,1.73-1.6,2.69a17.49,17.49,0,0,1-1.42-1.46.92.92,0,0,1-.05-.84,18.6,18.6,0,0,1,4.84-5.62C245.88,244.51,245.23,245.68,244.54,246.82Zm2.12-6.39-.3-.14a3.07,3.07,0,0,1,.38-.77c2.44-2.49,4.94-4.92,7.32-7.47a42.38,42.38,0,0,0,2.86-3.83C254.61,233.28,250.4,236.66,246.66,240.43Z"/><path d="M222.86,173a5.06,5.06,0,0,0-1.1,0,13.89,13.89,0,0,0-6.75,3.2,29.75,29.75,0,0,0-4.3,4.8.8.8,0,0,1-.76.36q-1.59-.09-3.18-.09a22.81,22.81,0,0,0-7.74,1A8.82,8.82,0,0,0,195.18,197a35.74,35.74,0,0,0,2.81,2.64c-.88,1.38-1.73,2.78-2.65,4.13a4,4,0,0,1-2.31,1.71,5.22,5.22,0,0,1-5.25-2.69,4.61,4.61,0,0,1-.15-.84l.16-.07c.17.13.35.26.51.4a2.5,2.5,0,0,0,1.93.71,3.29,3.29,0,0,0,2.74-2.38,2.84,2.84,0,0,0-1.19-3.2,3.28,3.28,0,0,0-3.63-.17,4.42,4.42,0,0,0-1.48,5.32A6.62,6.62,0,0,0,190,206a4.68,4.68,0,0,0,6.43-1.81c.79-1.25,1.62-2.47,2.38-3.73.23-.37.41-.4.79-.24a8.39,8.39,0,0,0,6.15.39,5.63,5.63,0,0,0,4-6,7.58,7.58,0,0,0-2.3-4.65l-1-1c.79-1.16,1.58-2.34,2.4-3.51a.73.73,0,0,1,.5-.23c1.27,0,2.54.09,3.8,0a9.76,9.76,0,0,0,7.26-3.56,16.32,16.32,0,0,0,2.62-4.9,18.06,18.06,0,0,0,.71-2.74C223.84,173.35,223.59,173.08,222.86,173ZM206,195.85a4,4,0,0,1-3.85,3.43,5.9,5.9,0,0,1-2.38-.22l4.71-7.09A4.66,4.66,0,0,1,206,195.85Zm-.6-7.44a7.88,7.88,0,0,0-4.08-.86c-4.07.28-5,4.55-3.82,6.82a3.82,3.82,0,0,0,.31.47l.12,0c.07-1.69.29-3.34,2.11-4.06a3.89,3.89,0,0,1,3.44.47l-4.83,7.41a8.56,8.56,0,0,1-2.68-2,6.84,6.84,0,0,1-.64-8.46,7.74,7.74,0,0,1,5.27-3.29,18.55,18.55,0,0,1,5.76,0l1.37.17Zm16.21-11.59a5.32,5.32,0,0,1-2.67,3.65,6.61,6.61,0,0,1-3.43,1c-1.18,0-2.37,0-3.56,0a1,1,0,0,1-.2,0,13.59,13.59,0,0,1,6.67-5.54,6.64,6.64,0,0,1,2.26-.3C221.45,175.61,221.71,176,221.57,176.82Z"/><path d="M2.2,70.26,0,71v.44c.77-.31,1.52-.64,2.28-1Zm23-4.41a4.86,4.86,0,0,0-4.15-4.07,7.72,7.72,0,0,0-6.53,1.64c-2.32,1.8-4.44,3.86-6.64,5.82-.73.65-1.35,1.47-2.55,1.35.27.8.3,1.38-.72,1.24-.1,0-.22.09-.33.13-1.44.49-2.86,1-4.3,1.47v2.33c.78-.08,1.51-.88,2.44-.75L0,76.75v2.07c1.08-.71,1.53-.82,1.86-.57A4.94,4.94,0,0,1,0,79.61v.72l8.19-5.46c-1-.55-.61-1-.07-1.57,1.74-1.71,3.43-3.48,5.19-5.16a49.13,49.13,0,0,1,4-3.48,5.64,5.64,0,0,1,4.31-1.23,2.1,2.1,0,0,1,2,2.17,5.7,5.7,0,0,0-2,0,1.86,1.86,0,0,0-.86,2.67,2,2,0,0,0,2.78.88A3.19,3.19,0,0,0,25.22,65.85Zm-8.91-1.22c-3,2.93-6.09,5.89-9.14,8.82-.48.46-1,.85-1.54,1.27a1.8,1.8,0,0,0-.19-.2c3.77-4.31,9.18-9.71,11.93-10.69A10.15,10.15,0,0,0,16.31,64.63ZM32.53,78a2.1,2.1,0,0,0,.57,2.74,2,2,0,0,0,2.81-.45c.7-.83.24-1.55-.17-2.3a2.29,2.29,0,0,1,2.51,2.48,6.7,6.7,0,0,1-1.94,4.74c-2.43,2.66-5,5.22-7.5,7.8-.59.61-1.11,1.39-1.94,1.08a17.32,17.32,0,0,1-1.21,2c-.75.93-1.65,1.75-2.39,2.69s-1.52,2.12-2.44,3.43c-.23-.61-.64-1.15-.51-1.48a20.23,20.23,0,0,1,1.4-2.58c.89.58.9.59,1.4-.26.8-1.37,1.6-2.75,2.36-4.15.6-1.1.57-1.14-.61-1.92-1.07,1.4-2.12,2.82-3.23,4.2-.52.66-1,1.24,0,1.89l-2.09,2.65c-.61-.61-1.09-1.14-1.63-1.61s-.47-.71-.1-1.21c1.35-1.84,2.67-3.7,4-5.57a3,3,0,0,1,1.66-1.25,6.8,6.8,0,0,0,3.41-2.4,7.1,7.1,0,0,0,1.68-4.72c-.76,3.6-2.67,6.17-6.32,6.79-4.33.74-7.76-1-10.12-4.68-1.32.85-1.32.85-.78,1.9-.74.55-1.47,1.12-2.23,1.66-.13.1-.45.14-.54.05-.67-.62-1.31-1.28-2-2l5.13-4.09c.11.31.19.5.25.69A8.49,8.49,0,0,0,18,89.93c2.84.81,5.51.5,7.72-1.64a7.51,7.51,0,0,0,2.2-7.43,6.82,6.82,0,0,0-2.47-3.74c.88-1.28,1.78-2.35,3.51-1.55a3,3,0,0,0,.8.13c4.39.63,8.11-1,9.91-4.49a9.13,9.13,0,0,0,.16-8.81c.37,3,0,5.83-2.15,8.17s-6.05,2.94-8.09,2l4.5-4.8,4.43-4.74q-4.73,4.27-9.32,8.67a1.43,1.43,0,0,1-1.73.39,11.79,11.79,0,0,0-7.58-.61c-4.66,1.28-9,5.44-8.31,11a1,1,0,0,1-.37.72Q8.86,85,6.5,86.66a.84.84,0,0,1-.76.07c-.65-.57-1.24-1.2-1.91-1.87l7.48-5.3a3.89,3.89,0,0,0-1.22.51C8,81.36,6,82.66,3.89,83.92c-.23.14-.7.24-.84.11-.68-.57-1.28-1.23-1.94-1.89l2.82-1.93c.56.86,1.17.71,1.81.16a8.87,8.87,0,0,1,.92-.58l3.9-2.64c-.72-.26-.77-1.22-1.7-.75-1.58.81-3.18,1.57-4.79,2.32-.69.32-1.12.64-.34,1.37l-1.13.53c-.35.16-.7.34-1,.52C.66,81.59.41,81.65,0,81v1.1q10.07,10.09,20.16,20.15a1.13,1.13,0,0,1,.34,1.33,8.73,8.73,0,0,0,0,5.84,6.08,6.08,0,0,0,6,4.3c1.67-.16,3.14-.79,3.76-2.51a3.06,3.06,0,0,0-1.34-3.75c.91-2.38,1.8-4.72,2.69-7.07a1.5,1.5,0,0,0-.55.71q-1.22,2.66-2.42,5.33a1.66,1.66,0,0,1-2.83.37.89.89,0,0,1-.14-.7c.35-1,.76-1.89,1.15-2.84.89.48.92.48,1.34-.49.63-1.46,1.23-2.93,1.85-4.4.3-.71.57-1.41-.23-2.17L31,96.16,30.78,96a18,18,0,0,1,1.48-2.14c1.47-1.63,3.05-3.17,4.52-4.8A12.43,12.43,0,0,0,39.73,84a6.2,6.2,0,0,0-1.58-6.49A3.57,3.57,0,0,0,32.53,78Zm-7.94,7.57a5.45,5.45,0,0,1-7.42.17l7.06-7.51A5.36,5.36,0,0,1,24.59,85.59Zm-9.07-5.3a8.33,8.33,0,0,1,7.94-5.72c.73,0,1.46.14,2.36.22a9.41,9.41,0,0,1-1.18,1.15,1.4,1.4,0,0,1-1,.2,7.35,7.35,0,0,0-3.67,0l3.21,1.2L15.9,84.17A5.18,5.18,0,0,1,15.52,80.29ZM9.26,90.22l2.29-2.28c.47.42,1,.76,1.58,0l.78.78c-.51.47-.75,1,.06,1.5l-2.51,2.19ZM12,92.94l2.13-2.51c.55.69,1,.63,1.52,0a.59.59,0,0,1,.54-.09c.56.2,1.09.46,1.79.77L14,95Zm2.7,2.69c1.18-1.42,2.33-2.84,3.52-4.23a.88.88,0,0,1,.63-.19c1,.06,2,.16,3.15.25l-5.12,6.36Zm6.79,8.67a8.74,8.74,0,0,0-.24,5.16,7.9,7.9,0,0,1,0-5.95h.28A2.4,2.4,0,0,1,21.46,104.3Zm.53-1.45c-.52-.45,0-1.55,1.38-3.19C23.71,100.18,23.71,100.18,22,102.85Zm3.86,5.2c-1.08,1.1-.87,2.23,0,3.33a2.23,2.23,0,0,1-3.27-1.31A6.64,6.64,0,0,1,22.8,105C23.86,106.06,24.83,107,25.85,108.05Zm.44-6.56c-.26.44-.37.79.08,1.18a.66.66,0,0,1,.15.59c-.49.89-1,1.74-1.6,2.7a17.49,17.49,0,0,1-1.42-1.46.94.94,0,0,1-.05-.85A18.45,18.45,0,0,1,28.29,98C27.63,99.19,27,100.35,26.29,101.49Zm2.12-6.38-.3-.14a2.91,2.91,0,0,1,.38-.77c2.44-2.49,4.94-4.92,7.32-7.47a42.38,42.38,0,0,0,2.86-3.83C36.36,88,32.15,91.33,28.41,95.11Z"/><path d="M6.54,29.62a5.14,5.14,0,0,0-1.11,0A13.45,13.45,0,0,0,0,31.86v1.6a10.82,10.82,0,0,1,2.06-1,6.86,6.86,0,0,1,2.26-.3c.8,0,1.06.44.92,1.23a5.37,5.37,0,0,1-2.66,3.66A6.39,6.39,0,0,1,0,38V41.2a9.32,9.32,0,0,0,4.05-2.91,15.88,15.88,0,0,0,2.62-4.9,18.06,18.06,0,0,0,.71-2.74C7.52,30,7.26,29.68,6.54,29.62Z"/><path d="M74.32,97.41a4.57,4.57,0,0,0-1.11,0,13.86,13.86,0,0,0-6.74,3.2,29.81,29.81,0,0,0-4.31,4.8.78.78,0,0,1-.76.36q-1.59-.09-3.18-.09a22.84,22.84,0,0,0-7.74,1,8.82,8.82,0,0,0-3.84,14.62A35.74,35.74,0,0,0,49.45,124c-.88,1.38-1.74,2.78-2.66,4.13a3.92,3.92,0,0,1-2.31,1.71,5.22,5.22,0,0,1-5.25-2.69,3.88,3.88,0,0,1-.14-.84l.16-.07.51.4a2.47,2.47,0,0,0,1.93.71A3.3,3.3,0,0,0,44.43,125a2.84,2.84,0,0,0-1.2-3.2,3.24,3.24,0,0,0-3.62-.16,4.42,4.42,0,0,0-1.49,5.31,6.6,6.6,0,0,0,3.32,3.48,4.68,4.68,0,0,0,6.43-1.81c.79-1.24,1.61-2.47,2.38-3.73.23-.37.41-.4.78-.24a8.34,8.34,0,0,0,6.15.39,5.63,5.63,0,0,0,4-6,7.52,7.52,0,0,0-2.3-4.65l-1-1c.78-1.15,1.57-2.34,2.39-3.51a.7.7,0,0,1,.5-.22c1.27,0,2.54.08,3.8,0a9.72,9.72,0,0,0,7.26-3.56,15.83,15.83,0,0,0,2.62-4.89,18.5,18.5,0,0,0,.71-2.75C75.3,97.73,75,97.46,74.32,97.41ZM57.41,120.24a4,4,0,0,1-3.84,3.42,5.9,5.9,0,0,1-2.38-.22l4.7-7.09A4.64,4.64,0,0,1,57.41,120.24Zm-.6-7.45a7.88,7.88,0,0,0-4.08-.86c-4.07.28-5,4.55-3.82,6.83a4.73,4.73,0,0,0,.32.46l.11,0c.07-1.69.29-3.34,2.12-4a3.9,3.9,0,0,1,3.44.46L50.07,123a8.42,8.42,0,0,1-2.68-2,6.86,6.86,0,0,1-.65-8.46A7.74,7.74,0,0,1,52,109.24a18.48,18.48,0,0,1,5.75,0l1.38.17ZM73,101.2a5.37,5.37,0,0,1-2.66,3.66,6.75,6.75,0,0,1-3.43,1c-1.19,0-2.38,0-3.56,0a.88.88,0,0,1-.2,0,13.59,13.59,0,0,1,6.67-5.54,6.89,6.89,0,0,1,2.26-.3C72.9,100,73.16,100.41,73,101.2Z"/><path d="M104,149.53a2.1,2.1,0,0,0,.57,2.74,2,2,0,0,0,2.81-.45c.7-.83.24-1.55-.17-2.3a2.29,2.29,0,0,1,2.51,2.48,6.7,6.7,0,0,1-1.94,4.74c-2.43,2.66-5,5.22-7.5,7.8-.59.61-1.12,1.39-1.94,1.08a17.32,17.32,0,0,1-1.21,2c-.75.93-1.65,1.75-2.39,2.69s-1.52,2.12-2.44,3.43c-.23-.61-.64-1.15-.51-1.48a20.23,20.23,0,0,1,1.4-2.58c.89.58.9.59,1.4-.26.8-1.37,1.6-2.75,2.36-4.15.6-1.1.57-1.14-.61-1.92-1.07,1.4-2.12,2.82-3.23,4.2-.52.66-1,1.24,0,1.89L91,172.06c-.61-.61-1.09-1.14-1.63-1.62s-.47-.71-.11-1.2c1.36-1.84,2.68-3.7,4-5.57a3,3,0,0,1,1.66-1.25,6.8,6.8,0,0,0,3.41-2.4A7.1,7.1,0,0,0,100,155.3c-.76,3.6-2.68,6.17-6.32,6.79-4.33.74-7.76-1-10.12-4.69-1.32.86-1.32.86-.78,1.91-.74.55-1.47,1.12-2.23,1.66-.13.1-.45.14-.54.05-.67-.62-1.31-1.28-2-2L83.16,155c.11.31.19.5.25.69a8.49,8.49,0,0,0,6.06,5.79c2.84.81,5.51.5,7.72-1.64a7.53,7.53,0,0,0,2.2-7.43,6.82,6.82,0,0,0-2.47-3.74c.88-1.28,1.78-2.35,3.51-1.55a3,3,0,0,0,.8.13c4.39.63,8.11-1,9.91-4.5a9.11,9.11,0,0,0,.16-8.8c.37,3,0,5.83-2.15,8.17s-6.05,2.94-8.09,2l4.5-4.8,4.43-4.74q-4.72,4.28-9.32,8.67a1.43,1.43,0,0,1-1.73.39,11.82,11.82,0,0,0-7.59-.61c-4.65,1.28-9,5.44-8.3,11a1,1,0,0,1-.37.72q-2.31,1.74-4.67,3.39a.84.84,0,0,1-.76.07c-.65-.57-1.24-1.21-1.91-1.87l7.48-5.3a3.89,3.89,0,0,0-1.22.51c-2.07,1.29-4.12,2.59-6.2,3.85-.23.14-.7.24-.84.11-.68-.57-1.28-1.23-1.94-1.89l2.82-1.93c.56.86,1.17.71,1.81.15.28-.23.62-.37.92-.57l3.9-2.64c-.72-.26-.77-1.22-1.7-.75-1.58.81-3.18,1.57-4.79,2.32-.69.32-1.13.64-.34,1.37l-1.13.53c-.35.16-.7.34-1,.52-1.08.55-1.23.51-1.85-.61l8.49-5.66c-1-.55-.61-1-.07-1.57,1.74-1.72,3.43-3.48,5.19-5.16a47.27,47.27,0,0,1,4-3.48,5.64,5.64,0,0,1,4.31-1.23,2.1,2.1,0,0,1,2,2.17,5.7,5.7,0,0,0-2,0,1.85,1.85,0,0,0-.86,2.67,2,2,0,0,0,2.78.88,3.2,3.2,0,0,0,1.71-3.31,4.87,4.87,0,0,0-4.15-4.06,7.72,7.72,0,0,0-6.53,1.64c-2.32,1.8-4.44,3.86-6.64,5.82-.73.65-1.35,1.47-2.55,1.35.27.8.3,1.38-.72,1.24-.1,0-.22.09-.34.12-1.76.61-3.51,1.24-5.29,1.81-.74.24-1.08.52-.4,1.23l-2.72.94a1.4,1.4,0,0,1-1.71-.8,2,2,0,0,1,.83-1.82l4.55-1.72c.92-.36,1.82-.76,2.73-1.13l-.08-.2-8,2.58a3,3,0,0,0-3.15-1.61A3.34,3.34,0,0,0,59.82,145a5.06,5.06,0,0,0,1,5.7c2.42,2.65,5.44,2.95,8.7,2a1.12,1.12,0,0,1,1.33.32q10.4,10.42,20.82,20.81a1.13,1.13,0,0,1,.34,1.33A8.67,8.67,0,0,0,92,181a6.08,6.08,0,0,0,6,4.3c1.67-.16,3.14-.79,3.76-2.51a3.06,3.06,0,0,0-1.34-3.75c.91-2.38,1.8-4.72,2.69-7.07a1.52,1.52,0,0,0-.55.7L100.13,178a1.65,1.65,0,0,1-2.82.37.89.89,0,0,1-.14-.7c.35-1,.76-1.89,1.15-2.84.89.48.92.48,1.34-.49.63-1.46,1.23-2.93,1.85-4.4.3-.71.57-1.41-.23-2.17l1.22-.06-.21-.13a18,18,0,0,1,1.48-2.14c1.47-1.63,3-3.17,4.52-4.8a12.43,12.43,0,0,0,2.95-5.12,6.22,6.22,0,0,0-1.58-6.49A3.57,3.57,0,0,0,104,149.53ZM96.1,157.1a5.45,5.45,0,0,1-7.42.17l7.06-7.51A5.36,5.36,0,0,1,96.1,157.1ZM87,151.8A8.33,8.33,0,0,1,95,146.08c.73,0,1.46.14,2.36.22a9.41,9.41,0,0,1-1.18,1.15,1.4,1.4,0,0,1-1,.2,7.46,7.46,0,0,0-3.67,0l3.21,1.21-7.27,6.83A5.18,5.18,0,0,1,87,151.8Zm1.85-16.47a11.87,11.87,0,0,0-1.06.81c-3,2.93-6.09,5.89-9.14,8.82-.48.46-1,.85-1.54,1.27A1.8,1.8,0,0,0,77,146C80.72,141.72,86.13,136.32,88.88,135.33ZM61.65,147.44a6.47,6.47,0,0,0,1.74.54,6.83,6.83,0,0,0,1.85-.52c.87.87,1.84,1.83,2.9,2.9-1.85.65-3.58,1-5.32.11A2.23,2.23,0,0,1,61.65,147.44Zm3.05,4.76,2.57-.11c.79,0,1.53-.66,2.36-.26A6.89,6.89,0,0,1,64.7,152.2Zm4.75-2.5a.91.91,0,0,1-.83-.08,16,16,0,0,1-1.4-1.36l3.08-1.6c1.32,1.54,2.26-.33,3.65-.14C72.46,147.58,71,148.67,69.45,149.7Zm.76,1.54c2.07-1.51,2.72-1.81,3.16-1.48C72.47,150.84,70.9,151.61,70.21,151.24Zm10.56,10.49,2.29-2.28c.47.42,1,.76,1.58,0l.78.78c-.51.47-.75,1,.06,1.49L83,163.93Zm2.71,2.72,2.13-2.51c.55.69,1,.63,1.52,0a.59.59,0,0,1,.54-.09c.55.2,1.09.46,1.79.77l-3.92,3.92Zm2.7,2.69c1.18-1.42,2.33-2.84,3.52-4.23a.88.88,0,0,1,.63-.19c1,.06,2,.16,3.15.25l-5.12,6.36ZM93,175.81a8.74,8.74,0,0,0-.24,5.16,7.9,7.9,0,0,1,0-5.95H93A2.4,2.4,0,0,1,93,175.81Zm.53-1.45c-.52-.45,0-1.55,1.37-3.19C95.22,171.69,95.22,171.69,93.5,174.36Zm3.86,5.2c-1.08,1.1-.87,2.23,0,3.33a2.23,2.23,0,0,1-3.27-1.31,6.64,6.64,0,0,1,.26-5.07ZM97.8,173c-.26.44-.37.79.08,1.18a.66.66,0,0,1,.15.59c-.49.88-1,1.74-1.6,2.7A17.49,17.49,0,0,1,95,176a.94.94,0,0,1-.05-.85,18.6,18.6,0,0,1,4.84-5.62C99.14,170.7,98.49,171.86,97.8,173Zm2.12-6.38-.3-.14a2.64,2.64,0,0,1,.38-.77c2.43-2.49,4.94-4.93,7.32-7.47a42.38,42.38,0,0,0,2.86-3.83C107.87,159.47,103.66,162.84,99.92,166.62Z"/><path d="M176.8,222.29a2.1,2.1,0,0,0,.57,2.74,2,2,0,0,0,2.81-.45c.7-.83.24-1.55-.17-2.3a2.29,2.29,0,0,1,2.51,2.48,6.7,6.7,0,0,1-1.94,4.74c-2.43,2.66-5,5.22-7.5,7.8-.59.61-1.11,1.39-1.94,1.08a17.32,17.32,0,0,1-1.21,2c-.75.93-1.65,1.75-2.39,2.69s-1.52,2.12-2.44,3.43c-.23-.61-.64-1.15-.51-1.48a20.23,20.23,0,0,1,1.4-2.58c.89.58.9.59,1.4-.26.8-1.37,1.6-2.75,2.36-4.15.6-1.1.57-1.14-.61-1.92-1.07,1.4-2.12,2.82-3.23,4.2-.52.66-1,1.24,0,1.89l-2.09,2.65c-.61-.61-1.09-1.14-1.63-1.62s-.47-.7-.1-1.2c1.35-1.84,2.67-3.7,4-5.57a3,3,0,0,1,1.66-1.25,6.8,6.8,0,0,0,3.41-2.4,7.1,7.1,0,0,0,1.68-4.72c-.76,3.6-2.67,6.17-6.32,6.79-4.33.74-7.76-.95-10.12-4.69-1.32.86-1.32.86-.78,1.91-.74.55-1.47,1.12-2.23,1.66-.13.1-.45.14-.54.05-.67-.62-1.31-1.28-2-2l5.13-4.09c.11.31.19.5.25.69a8.49,8.49,0,0,0,6.06,5.79c2.84.81,5.51.5,7.72-1.64a7.53,7.53,0,0,0,2.2-7.43,6.82,6.82,0,0,0-2.47-3.74c.88-1.28,1.78-2.35,3.51-1.55a3,3,0,0,0,.8.13c4.39.63,8.11-1,9.91-4.49a9.13,9.13,0,0,0,.16-8.81c.37,3,0,5.83-2.15,8.17s-6,2.94-8.09,2l4.5-4.8,4.43-4.74q-4.73,4.28-9.32,8.67a1.43,1.43,0,0,1-1.73.39,11.79,11.79,0,0,0-7.58-.61c-4.66,1.28-9,5.44-8.31,11a1,1,0,0,1-.37.72q-2.31,1.74-4.67,3.39a.84.84,0,0,1-.76.07c-.65-.57-1.24-1.2-1.91-1.87l7.48-5.3a3.89,3.89,0,0,0-1.22.51c-2.07,1.29-4.12,2.59-6.2,3.85-.23.14-.7.24-.84.11-.68-.57-1.28-1.23-1.94-1.89l2.82-1.93c.56.86,1.17.71,1.81.16a8.87,8.87,0,0,1,.92-.58l3.9-2.64c-.72-.26-.77-1.22-1.7-.75-1.58.81-3.18,1.57-4.79,2.32-.69.32-1.12.64-.34,1.37l-1.13.53c-.35.16-.7.34-1.05.52-1.08.55-1.22.51-1.85-.61l8.49-5.66c-1-.55-.61-1-.07-1.57,1.74-1.71,3.43-3.48,5.19-5.16a49.13,49.13,0,0,1,4-3.48,5.64,5.64,0,0,1,4.31-1.23,2.1,2.1,0,0,1,2,2.17,5.7,5.7,0,0,0-2,0,1.86,1.86,0,0,0-.86,2.67,2,2,0,0,0,2.78.88,3.2,3.2,0,0,0,1.71-3.31,4.87,4.87,0,0,0-4.15-4.06,7.72,7.72,0,0,0-6.53,1.64c-2.32,1.8-4.44,3.86-6.64,5.82-.73.65-1.35,1.47-2.55,1.35.27.8.3,1.38-.72,1.24-.1,0-.22.09-.33.12-1.77.61-3.52,1.24-5.3,1.81-.74.24-1.08.52-.4,1.23l-2.72.94a1.4,1.4,0,0,1-1.71-.8,2,2,0,0,1,.83-1.82l4.55-1.72c.92-.36,1.82-.76,2.73-1.13l-.08-.2-8,2.58a3,3,0,0,0-3.15-1.61,3.34,3.34,0,0,0-2.72,2.24,5.06,5.06,0,0,0,1,5.7c2.42,2.65,5.44,2.95,8.7,2a1.12,1.12,0,0,1,1.33.32q10.39,10.43,20.82,20.81a1.13,1.13,0,0,1,.34,1.33,8.73,8.73,0,0,0,0,5.84,6.08,6.08,0,0,0,6,4.3c1.67-.16,3.14-.79,3.76-2.51a3.06,3.06,0,0,0-1.34-3.75c.91-2.38,1.8-4.72,2.69-7.07a1.5,1.5,0,0,0-.55.71q-1.22,2.66-2.42,5.33a1.66,1.66,0,0,1-2.83.37.89.89,0,0,1-.14-.7c.35-1,.76-1.89,1.15-2.84.89.48.92.48,1.34-.49.63-1.46,1.23-2.93,1.85-4.4.3-.71.57-1.41-.23-2.17l1.22-.06-.21-.13a18,18,0,0,1,1.48-2.14c1.47-1.63,3.05-3.17,4.52-4.8a12.43,12.43,0,0,0,2.95-5.12,6.22,6.22,0,0,0-1.58-6.49A3.57,3.57,0,0,0,176.8,222.29Zm-7.94,7.57a5.45,5.45,0,0,1-7.42.17l7.06-7.51A5.36,5.36,0,0,1,168.86,229.86Zm-9.07-5.3a8.33,8.33,0,0,1,7.94-5.72c.73,0,1.46.14,2.36.22a9.41,9.41,0,0,1-1.18,1.15,1.4,1.4,0,0,1-1,.2,7.35,7.35,0,0,0-3.67,0l3.21,1.2-7.27,6.83A5.18,5.18,0,0,1,159.79,224.56Zm1.85-16.47a11.87,11.87,0,0,0-1.06.81c-3.05,2.93-6.09,5.89-9.14,8.82-.48.46-1,.85-1.54,1.27a1.8,1.8,0,0,0-.19-.2C153.48,214.48,158.89,209.08,161.64,208.09ZM134.42,220.2a6.29,6.29,0,0,0,1.73.54,6.83,6.83,0,0,0,1.85-.52l2.9,2.9c-1.85.65-3.58,1-5.32.11A2.21,2.21,0,0,1,134.42,220.2Zm3,4.76,2.57-.11c.79,0,1.53-.66,2.36-.26A6.89,6.89,0,0,1,137.46,225Zm4.75-2.5a.91.91,0,0,1-.83-.08A16,16,0,0,1,140,221l3.08-1.59c1.33,1.53,2.26-.34,3.65-.15C145.22,220.34,143.73,221.43,142.21,222.46ZM143,224c2.07-1.51,2.72-1.81,3.16-1.48C145.23,223.6,143.66,224.37,143,224Zm10.56,10.49,2.29-2.28c.47.42,1,.76,1.58,0l.78.78c-.51.47-.75,1,.06,1.5l-2.51,2.19Zm2.71,2.72,2.13-2.51c.55.69,1,.63,1.52,0a.59.59,0,0,1,.54-.09c.55.2,1.09.46,1.79.77l-3.92,3.92Zm2.7,2.69c1.18-1.42,2.33-2.84,3.52-4.23a.88.88,0,0,1,.63-.19c1,.06,2,.16,3.15.25l-5.12,6.36Zm6.79,8.67a8.74,8.74,0,0,0-.24,5.16,7.9,7.9,0,0,1-.05-5.95h.28A2.4,2.4,0,0,1,165.73,248.57Zm.53-1.45c-.52-.45,0-1.55,1.38-3.19C168,244.45,168,244.45,166.26,247.12Zm3.86,5.2c-1.08,1.1-.87,2.23,0,3.33a2.23,2.23,0,0,1-3.27-1.31,6.64,6.64,0,0,1,.26-5.07Zm.44-6.56c-.26.44-.37.79.08,1.18a.66.66,0,0,1,.15.59c-.49.88-1,1.74-1.6,2.7a17.49,17.49,0,0,1-1.42-1.46.94.94,0,0,1-.05-.85,18.45,18.45,0,0,1,4.84-5.61C171.9,243.46,171.25,244.62,170.56,245.76Zm2.12-6.38-.3-.14a2.91,2.91,0,0,1,.38-.77c2.43-2.49,4.94-4.93,7.32-7.47a42.38,42.38,0,0,0,2.86-3.83C180.63,232.23,176.42,235.6,172.68,239.38Z"/><path d="M148.88,172a4.5,4.5,0,0,0-1.1,0,13.85,13.85,0,0,0-6.75,3.2,30.1,30.1,0,0,0-4.3,4.79.8.8,0,0,1-.76.36q-1.59-.07-3.18-.09a22.81,22.81,0,0,0-7.74,1,8.83,8.83,0,0,0-3.85,14.63c.82.94,1.83,1.72,2.81,2.64-.88,1.38-1.73,2.78-2.65,4.13a4,4,0,0,1-2.32,1.71,5.22,5.22,0,0,1-5.24-2.7,4.61,4.61,0,0,1-.15-.84l.16-.07c.17.14.35.26.51.4a2.49,2.49,0,0,0,1.93.72,3.3,3.3,0,0,0,2.74-2.39,2.85,2.85,0,0,0-1.19-3.2,3.27,3.27,0,0,0-3.63-.16,4.41,4.41,0,0,0-1.48,5.32A6.57,6.57,0,0,0,116,205a4.68,4.68,0,0,0,6.43-1.8c.79-1.25,1.62-2.47,2.38-3.73.23-.38.41-.4.79-.24a8.39,8.39,0,0,0,6.15.38,5.64,5.64,0,0,0,4-6,7.6,7.6,0,0,0-2.3-4.65c-.33-.34-.67-.67-1-1,.79-1.16,1.58-2.34,2.4-3.51a.69.69,0,0,1,.5-.23c1.27,0,2.54.09,3.8,0a9.78,9.78,0,0,0,7.26-3.55,16.44,16.44,0,0,0,2.62-4.9,18.37,18.37,0,0,0,.71-2.74C149.86,172.3,149.61,172,148.88,172ZM132,194.8a4,4,0,0,1-3.84,3.43,5.74,5.74,0,0,1-2.38-.23l4.71-7.09A4.66,4.66,0,0,1,132,194.8Zm-.59-7.44a7.78,7.78,0,0,0-4.08-.86c-4.07.27-5,4.55-3.82,6.82a3.46,3.46,0,0,0,.31.47l.12,0c.07-1.69.29-3.34,2.11-4.06a3.89,3.89,0,0,1,3.44.46l-4.83,7.41a8.27,8.27,0,0,1-2.68-2,6.84,6.84,0,0,1-.65-8.45,7.72,7.72,0,0,1,5.28-3.29,18.24,18.24,0,0,1,5.76,0l1.37.17C132.91,185.15,132.15,186.24,131.38,187.36Zm16.21-11.59a5.34,5.34,0,0,1-2.67,3.65,6.69,6.69,0,0,1-3.43,1c-1.18,0-2.37,0-3.56,0a1.15,1.15,0,0,1-.2,0,13.62,13.62,0,0,1,6.67-5.53,6.64,6.64,0,0,1,2.26-.3C147.47,174.55,147.73,175,147.59,175.77Z"/><path d="M220.65,243.73a5.14,5.14,0,0,0-1.11,0,13.86,13.86,0,0,0-6.74,3.2,29.81,29.81,0,0,0-4.31,4.8.79.79,0,0,1-.76.36q-1.59-.09-3.18-.09a22.84,22.84,0,0,0-7.74,1,9.25,9.25,0,0,0-4.62,3.22,8.56,8.56,0,0,0-1.59,5.65H192a7,7,0,0,1,1.11-3.08,7.74,7.74,0,0,1,5.28-3.29,18.48,18.48,0,0,1,5.75,0l1.38.17-2.34,3.35a7.88,7.88,0,0,0-4.08-.86,4.36,4.36,0,0,0-4.17,3.68H197a3.46,3.46,0,0,1,.83-.47,3.93,3.93,0,0,1,3.44.47h5a9.7,9.7,0,0,0-1-1.22l-1-1c.78-1.15,1.57-2.34,2.39-3.51a.69.69,0,0,1,.5-.22c1.27,0,2.54.08,3.8,0a9.74,9.74,0,0,0,7.26-3.56,16.1,16.1,0,0,0,2.62-4.9,18.06,18.06,0,0,0,.71-2.74C221.63,244.06,221.37,243.79,220.65,243.73Zm-1.3,3.8a5.37,5.37,0,0,1-2.66,3.66,6.75,6.75,0,0,1-3.43,1c-1.19.05-2.38,0-3.56,0a.88.88,0,0,1-.2,0,13.59,13.59,0,0,1,6.67-5.54,6.86,6.86,0,0,1,2.26-.3C219.23,246.32,219.49,246.74,219.35,247.53Z"/><path d="M35.47,155.1a2.09,2.09,0,0,0,.57,2.75,2,2,0,0,0,2.8-.46c.7-.82.24-1.54-.16-2.29a2.29,2.29,0,0,1,2.51,2.48,6.72,6.72,0,0,1-1.94,4.73c-2.44,2.67-5,5.22-7.51,7.81-.58.6-1.11,1.39-1.93,1.08a18.68,18.68,0,0,1-1.21,2c-.76.94-1.65,1.76-2.4,2.7s-1.51,2.12-2.44,3.43c-.23-.62-.64-1.15-.51-1.48a20.31,20.31,0,0,1,1.41-2.58c.88.58.89.59,1.39-.26.8-1.38,1.6-2.75,2.37-4.15.6-1.1.57-1.14-.61-1.92-1.07,1.4-2.13,2.82-3.23,4.2-.53.66-1,1.24,0,1.89l-2.1,2.64c-.6-.6-1.09-1.14-1.63-1.61s-.46-.71-.1-1.2c1.36-1.84,2.67-3.7,4-5.57A2.9,2.9,0,0,1,26.35,168a6.89,6.89,0,0,0,3.42-2.4,7.15,7.15,0,0,0,1.68-4.72c-.77,3.59-2.68,6.16-6.32,6.78-4.34.75-7.76-.94-10.12-4.68-1.33.86-1.33.86-.78,1.9-.74.56-1.48,1.13-2.23,1.67-.14.09-.45.14-.55,0-.67-.62-1.3-1.28-2-2l5.13-4.09c.11.3.19.49.25.69A8.49,8.49,0,0,0,20.89,167c2.85.81,5.51.5,7.72-1.65a7.49,7.49,0,0,0,2.2-7.42,6.87,6.87,0,0,0-2.46-3.75c.87-1.27,1.78-2.34,3.51-1.54a2.91,2.91,0,0,0,.8.13c4.39.63,8.11-1,9.9-4.5a9.09,9.09,0,0,0,.16-8.8c.38,3,0,5.83-2.14,8.16s-6,2.95-8.09,2L37,144.89l4.43-4.74c-3.14,2.86-6.25,5.74-9.32,8.67a1.42,1.42,0,0,1-1.73.4,11.72,11.72,0,0,0-7.58-.61c-4.65,1.27-9,5.44-8.3,11a1,1,0,0,1-.38.72c-1.54,1.15-3.09,2.29-4.67,3.39a.83.83,0,0,1-.76.06c-.65-.56-1.24-1.2-1.91-1.87,2.55-1.8,5-3.54,7.48-5.29a3.84,3.84,0,0,0-1.21.51C11,158.44,8.9,159.75,6.82,161c-.23.14-.69.24-.84.11-.68-.57-1.28-1.23-1.94-1.89l2.83-1.93c.56.86,1.16.7,1.81.15a9.3,9.3,0,0,1,.91-.57l3.91-2.64c-.73-.26-.78-1.23-1.7-.75-1.58.81-3.19,1.57-4.79,2.32-.69.31-1.13.64-.34,1.37l-1.13.52-1,.52c-1.09.56-1.23.51-1.86-.6l8.5-5.66c-1-.55-.61-1-.07-1.58,1.73-1.71,3.42-3.47,5.19-5.15a45.64,45.64,0,0,1,4-3.48,5.62,5.62,0,0,1,4.32-1.23,2.1,2.1,0,0,1,2,2.17,5.47,5.47,0,0,0-2,0,1.85,1.85,0,0,0-.86,2.67,2.06,2.06,0,0,0,2.79.88,3.21,3.21,0,0,0,1.71-3.31A4.89,4.89,0,0,0,24,138.86a7.74,7.74,0,0,0-6.54,1.65c-2.32,1.8-4.44,3.86-6.64,5.81-.73.65-1.34,1.48-2.54,1.35.27.81.29,1.39-.72,1.25-.11,0-.23.08-.34.12-1.76.61-3.52,1.24-5.29,1.81-.75.24-1.08.52-.41,1.23L0,152.61v.52c.58-.29,1.14-.58,1.72-.89,1.33,1.54,2.27-.33,3.66-.14-1.5,1.06-3,2.14-4.5,3.17A.9.9,0,0,1,0,155.2l0,0v2.17a1.43,1.43,0,0,1,1.05.07,8.85,8.85,0,0,1-1,.38v.69c.31-.07.63-.15,1-.25a1.13,1.13,0,0,1,1.33.32Q12.66,169,23.09,179.36a1.11,1.11,0,0,1,.34,1.33,8.73,8.73,0,0,0,0,5.84,6.09,6.09,0,0,0,6,4.29,4,4,0,0,0,3.76-2.5,3,3,0,0,0-1.34-3.75c.91-2.38,1.8-4.73,2.7-7.07a1.48,1.48,0,0,0-.56.7l-2.42,5.34a1.66,1.66,0,0,1-2.83.37.85.85,0,0,1-.13-.7c.34-1,.75-1.9,1.14-2.84.9.47.92.48,1.34-.49.64-1.46,1.24-2.94,1.86-4.4.3-.71.57-1.41-.24-2.17l1.22-.07-.2-.13A19.76,19.76,0,0,1,35.19,171c1.48-1.63,3.06-3.16,4.53-4.79a12.47,12.47,0,0,0,2.94-5.12,6.2,6.2,0,0,0-1.58-6.49A3.56,3.56,0,0,0,35.47,155.1Zm-7.95,7.57a5.45,5.45,0,0,1-7.41.18l7.05-7.51A5.35,5.35,0,0,1,27.52,162.67Zm-9.07-5.29a8.35,8.35,0,0,1,7.94-5.72c.74,0,1.47.13,2.36.22A8.62,8.62,0,0,1,27.57,153a1.41,1.41,0,0,1-1,.21,7.42,7.42,0,0,0-3.66,0l3.21,1.21-7.27,6.83A5.19,5.19,0,0,1,18.45,157.38Zm1.86-16.47a10.72,10.72,0,0,0-1.07.81c-3,2.93-6.09,5.88-9.14,8.82-.48.46-1,.85-1.53,1.27l-.19-.21C12.14,147.29,17.55,141.9,20.31,140.91ZM1.63,156.82c2.08-1.51,2.73-1.81,3.17-1.48C3.89,156.41,2.32,157.19,1.63,156.82Zm10.56,10.49L14.48,165c.48.43,1,.77,1.58,0l.78.78c-.5.47-.74,1,.06,1.49l-2.51,2.2ZM14.9,170,17,167.52c.56.69,1,.63,1.53,0a.65.65,0,0,1,.54-.09c.55.21,1.08.46,1.79.78L17,172.1Zm2.7,2.69c1.18-1.43,2.34-2.84,3.52-4.23a.88.88,0,0,1,.63-.19c1,.06,2,.16,3.15.25l-5.11,6.36Zm6.79,8.67a8.74,8.74,0,0,0-.23,5.16,7.86,7.86,0,0,1-.05-6h.27A2.4,2.4,0,0,1,24.39,181.39Zm.53-1.45c-.51-.45-.05-1.55,1.38-3.19C26.65,177.27,26.65,177.27,24.92,179.94Zm3.87,5.2c-1.09,1.1-.88,2.23-.05,3.33a2.23,2.23,0,0,1-3.27-1.31,6.6,6.6,0,0,1,.27-5.07C26.79,183.15,27.76,184.11,28.79,185.14Zm.44-6.56c-.27.44-.37.79.07,1.18a.62.62,0,0,1,.15.59c-.48.88-1,1.74-1.6,2.7a17.49,17.49,0,0,1-1.42-1.46,1,1,0,0,1-.05-.85,18.74,18.74,0,0,1,4.84-5.62C30.56,176.28,29.91,177.44,29.23,178.58Zm2.12-6.38-.3-.15a2.69,2.69,0,0,1,.37-.76c2.44-2.5,4.94-4.93,7.32-7.48A42.28,42.28,0,0,0,41.61,160C39.29,165.05,35.08,168.42,31.35,172.2ZM5.13,147.35,0,149v.62l2.49-1c.91-.35,1.81-.75,2.72-1.13C5.18,147.48,5.16,147.41,5.13,147.35Z"/><path d="M9.47,106.71a5,5,0,0,0-1.1,0,13.85,13.85,0,0,0-6.75,3.2A18.39,18.39,0,0,0,0,111.5V113a11.82,11.82,0,0,1,5-3.42,6.64,6.64,0,0,1,2.26-.3c.8,0,1.06.44.93,1.23a5.35,5.35,0,0,1-2.67,3.65,6.86,6.86,0,0,1-3.43,1c-.69,0-1.38,0-2.08,0v3.75a9.66,9.66,0,0,0,7-3.54,16.13,16.13,0,0,0,2.63-4.9,19.3,19.3,0,0,0,.7-2.74C10.45,107,10.19,106.77,9.47,106.71Z"/><path d="M77.25,174.49a5,5,0,0,0-1.1,0,13.85,13.85,0,0,0-6.75,3.2,30.1,30.1,0,0,0-4.3,4.79.82.82,0,0,1-.77.37c-1-.06-2.11-.09-3.17-.1a23.28,23.28,0,0,0-7.74,1,8.82,8.82,0,0,0-3.85,14.63,35.74,35.74,0,0,0,2.81,2.64c-.88,1.38-1.73,2.78-2.65,4.13a4,4,0,0,1-2.32,1.71,5.21,5.21,0,0,1-5.24-2.69,4.61,4.61,0,0,1-.15-.84l.16-.07c.17.13.35.26.51.4a2.52,2.52,0,0,0,1.93.71,3.31,3.31,0,0,0,2.74-2.38,2.85,2.85,0,0,0-1.19-3.2,3.26,3.26,0,0,0-3.63-.17A4.41,4.41,0,0,0,41.06,204a6.62,6.62,0,0,0,3.31,3.48,4.68,4.68,0,0,0,6.43-1.81c.79-1.25,1.61-2.47,2.38-3.73.23-.38.41-.4.79-.24a8.34,8.34,0,0,0,6.15.38,5.63,5.63,0,0,0,4-6,7.58,7.58,0,0,0-2.3-4.65c-.33-.34-.67-.68-1-1,.79-1.16,1.58-2.34,2.4-3.51a.69.69,0,0,1,.5-.23c1.26,0,2.54.09,3.8,0a9.72,9.72,0,0,0,7.25-3.56,16.13,16.13,0,0,0,2.63-4.9,20.77,20.77,0,0,0,.71-2.74C78.23,174.82,78,174.55,77.25,174.49ZM60.34,197.32a4,4,0,0,1-3.84,3.43,5.9,5.9,0,0,1-2.38-.22l4.71-7.09A4.63,4.63,0,0,1,60.34,197.32Zm-.6-7.44a7.75,7.75,0,0,0-4.07-.86c-4.08.27-5,4.55-3.82,6.82a3.46,3.46,0,0,0,.31.47l.12,0c.07-1.69.29-3.34,2.11-4.06a3.89,3.89,0,0,1,3.44.46c-1.62,2.49-3.21,4.94-4.83,7.41a8.39,8.39,0,0,1-2.68-2,6.86,6.86,0,0,1-.65-8.46A7.73,7.73,0,0,1,55,186.33a18.48,18.48,0,0,1,5.75,0l1.38.17ZM76,178.29a5.35,5.35,0,0,1-2.67,3.65,6.76,6.76,0,0,1-3.43,1c-1.18,0-2.37,0-3.56,0a1,1,0,0,1-.2,0,13.59,13.59,0,0,1,6.67-5.54,6.64,6.64,0,0,1,2.26-.3C75.83,177.07,76.09,177.5,76,178.29Z"/><path d="M107,226.61a2.09,2.09,0,0,0,.57,2.75,2,2,0,0,0,2.8-.46c.7-.82.24-1.54-.16-2.29a2.3,2.3,0,0,1,2.51,2.48,6.72,6.72,0,0,1-1.94,4.73c-2.44,2.67-5,5.22-7.51,7.81-.58.6-1.11,1.39-1.94,1.08a15.84,15.84,0,0,1-1.21,2c-.75.94-1.64,1.76-2.39,2.7s-1.51,2.12-2.44,3.43c-.23-.62-.64-1.15-.51-1.48a20.31,20.31,0,0,1,1.41-2.58c.88.58.89.59,1.39-.26.8-1.38,1.6-2.76,2.36-4.15.61-1.1.58-1.14-.6-1.92-1.07,1.4-2.13,2.82-3.23,4.2-.53.66-1,1.24,0,1.89L94,249.14c-.6-.6-1.09-1.14-1.63-1.61s-.46-.71-.1-1.2c1.36-1.84,2.67-3.7,4-5.58a2.92,2.92,0,0,1,1.65-1.24,6.93,6.93,0,0,0,3.42-2.4,7.15,7.15,0,0,0,1.68-4.72c-.77,3.59-2.68,6.16-6.32,6.78-4.34.74-7.76-.94-10.13-4.68-1.32.86-1.32.86-.77,1.9-.74.56-1.48,1.13-2.24,1.67-.13.09-.44.14-.54.05-.67-.62-1.3-1.28-2-2l5.13-4.09c.11.3.19.49.25.69a8.49,8.49,0,0,0,6.06,5.79c2.85.81,5.51.5,7.72-1.65a7.49,7.49,0,0,0,2.2-7.42,6.87,6.87,0,0,0-2.46-3.75c.87-1.27,1.78-2.34,3.51-1.54a3.35,3.35,0,0,0,.8.13c4.39.63,8.11-1,9.9-4.5a9.09,9.09,0,0,0,.16-8.8c.38,3,0,5.83-2.14,8.16s-6,3-8.09,2.05l4.49-4.81,4.43-4.74c-3.14,2.86-6.25,5.74-9.32,8.67a1.42,1.42,0,0,1-1.73.4,11.72,11.72,0,0,0-7.58-.61c-4.65,1.27-9,5.44-8.3,11a1,1,0,0,1-.38.72q-2.31,1.73-4.67,3.39a.83.83,0,0,1-.76.06c-.65-.56-1.24-1.2-1.91-1.87,2.55-1.8,5-3.54,7.48-5.29a3.84,3.84,0,0,0-1.21.51c-2.07,1.28-4.13,2.59-6.21,3.85-.23.14-.69.24-.84.11-.68-.57-1.28-1.23-1.94-1.89l2.83-1.93c.56.86,1.16.7,1.81.15a9.3,9.3,0,0,1,.91-.57L85,225.75c-.73-.26-.78-1.23-1.7-.75-1.58.81-3.19,1.57-4.8,2.31-.68.32-1.12.65-.33,1.37l-1.13.53-1,.52c-1.09.56-1.23.51-1.86-.6l8.49-5.66c-1-.55-.6-1-.06-1.58,1.73-1.71,3.42-3.47,5.19-5.15a45.64,45.64,0,0,1,4-3.48A5.61,5.61,0,0,1,96.08,212a2.1,2.1,0,0,1,2,2.17,5.47,5.47,0,0,0-2,0,1.85,1.85,0,0,0-.86,2.67,2.06,2.06,0,0,0,2.79.88,3.21,3.21,0,0,0,1.71-3.31,4.89,4.89,0,0,0-4.15-4.07A7.77,7.77,0,0,0,89,212c-2.32,1.81-4.44,3.87-6.64,5.82-.73.65-1.34,1.48-2.54,1.35.27.81.29,1.39-.72,1.25-.11,0-.23.08-.34.12-1.76.61-3.52,1.24-5.29,1.81-.75.24-1.08.52-.41,1.23l-2.72.94a1.41,1.41,0,0,1-1.71-.8,2.06,2.06,0,0,1,.83-1.83c1.52-.57,3-1.13,4.56-1.72.91-.35,1.81-.75,2.72-1.13,0-.06,0-.13-.08-.19l-8,2.58a3,3,0,0,0-3.15-1.61,3.28,3.28,0,0,0-2.71,2.24,5,5,0,0,0,1,5.7c2.42,2.65,5.44,2.95,8.7,2a1.14,1.14,0,0,1,1.34.32q10.38,10.42,20.81,20.81a1.11,1.11,0,0,1,.34,1.33,8.73,8.73,0,0,0,0,5.84,6.54,6.54,0,0,0,3.58,3.9,5,5,0,0,0,2.44.39,6.42,6.42,0,0,0,1.73-.39,3.48,3.48,0,0,0,2-2.11,3,3,0,0,0-1.34-3.75c.91-2.38,1.8-4.73,2.7-7.07a1.48,1.48,0,0,0-.56.7l-2.42,5.34a1.66,1.66,0,0,1-2.83.36.86.86,0,0,1-.14-.69c.35-1,.76-1.9,1.15-2.84.9.47.92.48,1.34-.49.64-1.46,1.24-2.94,1.86-4.41.3-.7.57-1.4-.24-2.16l1.22-.07-.2-.13a19.76,19.76,0,0,1,1.47-2.14c1.48-1.63,3.06-3.16,4.53-4.79a12.47,12.47,0,0,0,2.94-5.12,6.2,6.2,0,0,0-1.58-6.49A3.56,3.56,0,0,0,107,226.61Zm-8,7.57a5.45,5.45,0,0,1-7.41.18l7-7.51A5.35,5.35,0,0,1,99,234.18ZM90,228.89a8.35,8.35,0,0,1,7.94-5.72c.73,0,1.46.13,2.36.22a8.62,8.62,0,0,1-1.18,1.14,1.41,1.41,0,0,1-1,.21,7.42,7.42,0,0,0-3.66,0l3.21,1.21-7.27,6.83A5.19,5.19,0,0,1,90,228.89Zm1.86-16.47a10.72,10.72,0,0,0-1.07.81c-3,2.93-6.09,5.88-9.14,8.82-.48.46-1,.85-1.54,1.27l-.18-.21C83.65,218.8,89.06,213.41,91.82,212.42Zm-27.23,12.1a6.1,6.1,0,0,0,1.73.55,7.39,7.39,0,0,0,1.86-.52l2.9,2.9c-1.86.64-3.59,1-5.33.11A2.22,2.22,0,0,1,64.59,224.52Zm3,4.76c.86,0,1.72-.08,2.58-.1s1.53-.67,2.35-.26A6.84,6.84,0,0,1,67.63,229.28Zm4.76-2.5a.9.9,0,0,1-.84-.07,16,16,0,0,1-1.4-1.36l3.08-1.6c1.33,1.54,2.27-.33,3.66-.14C75.39,224.67,73.91,225.75,72.39,226.78Zm.75,1.55c2.08-1.51,2.73-1.81,3.17-1.48C75.4,227.92,73.83,228.7,73.14,228.33ZM83.7,238.82,86,236.53c.47.43,1,.77,1.58,0,.28.27.5.5.78.78-.51.47-.74,1,.06,1.49L85.9,241Zm2.71,2.72L88.54,239c.56.69,1,.63,1.53,0a.61.61,0,0,1,.54-.09c.55.21,1.08.46,1.79.78l-3.92,3.91Zm2.7,2.69c1.18-1.43,2.34-2.84,3.52-4.23a.88.88,0,0,1,.63-.19c1,.06,2,.15,3.15.25l-5.11,6.36Zm6.79,8.67a8.74,8.74,0,0,0-.23,5.16,7.86,7.86,0,0,1,0-5.95h.27A2.4,2.4,0,0,1,95.9,252.9Zm1.91-4.64c.35.52.35.52-1.38,3.19C95.92,251,96.38,249.9,97.81,248.26Zm2.49,8.39c-1.09,1.1-.88,2.23,0,3.33A2.23,2.23,0,0,1,97,258.67a6.6,6.6,0,0,1,.27-5.07C98.3,254.66,99.27,255.62,100.3,256.65Zm.44-6.56c-.27.44-.38.79.07,1.18a.62.62,0,0,1,.15.59c-.48.88-1,1.74-1.6,2.69a16,16,0,0,1-1.42-1.45,1,1,0,0,1,0-.85,18.74,18.74,0,0,1,4.84-5.62C102.07,247.79,101.42,249,100.74,250.09Zm2.12-6.38-.3-.15a2.69,2.69,0,0,1,.37-.76c2.44-2.5,4.94-4.93,7.32-7.48a42.28,42.28,0,0,0,2.87-3.82C110.8,236.56,106.59,239.93,102.86,243.71Z"/><path d="M151.82,249.06a4.57,4.57,0,0,0-1.11,0,13.8,13.8,0,0,0-6.74,3.19,30.24,30.24,0,0,0-4.31,4.8.79.79,0,0,1-.76.36c-1.06-.05-2.12-.09-3.18-.09a22.81,22.81,0,0,0-7.74,1,9.21,9.21,0,0,0-4.62,3.23,3.62,3.62,0,0,0-.22.32h3.49a9,9,0,0,1,2.89-1,18.18,18.18,0,0,1,5.75,0l1.38.18-.59.84h1.41c.09-.15.2-.29.3-.44a.66.66,0,0,1,.5-.23c1.27,0,2.54.09,3.8,0a9.76,9.76,0,0,0,7.26-3.56,16,16,0,0,0,2.62-4.89,18.7,18.7,0,0,0,.71-2.74C152.8,249.38,152.54,249.11,151.82,249.06Zm-1.3,3.8a5.38,5.38,0,0,1-2.66,3.65,6.75,6.75,0,0,1-3.43,1c-1.19.05-2.38,0-3.57,0a1.08,1.08,0,0,1-.19-.05,13.47,13.47,0,0,1,6.67-5.53,6.61,6.61,0,0,1,2.26-.31C150.4,251.64,150.66,252.06,150.52,252.86Z"/><path d="M4.64,177.77a4.5,4.5,0,0,0-1.1,0A13.28,13.28,0,0,0,0,178.9v1.79l.17-.06a6.82,6.82,0,0,1,2.26-.3c.8,0,1.06.44.92,1.23a5.37,5.37,0,0,1-2.66,3.66,4.58,4.58,0,0,1-.69.37v2.79a9.41,9.41,0,0,0,2.16-1.95,16,16,0,0,0,2.62-4.89,18.7,18.7,0,0,0,.71-2.74C5.63,178.09,5.37,177.82,4.64,177.77Z"/><path d="M4,222.13l-4,1.3V224l1.39-.53c.92-.36,1.82-.76,2.72-1.13C4.09,222.26,4.06,222.19,4,222.13Zm30.33,7.76a2.1,2.1,0,0,0,.57,2.74,2,2,0,0,0,2.8-.45c.7-.83.25-1.55-.16-2.3a2.29,2.29,0,0,1,2.51,2.48,6.75,6.75,0,0,1-1.94,4.74c-2.44,2.66-5,5.22-7.5,7.8-.59.61-1.12,1.39-1.94,1.08a18.88,18.88,0,0,1-1.21,2c-.76.93-1.65,1.75-2.4,2.69s-1.51,2.12-2.43,3.43c-.23-.61-.64-1.15-.52-1.48A20.31,20.31,0,0,1,23.56,250c.88.58.9.59,1.39-.26.8-1.37,1.6-2.75,2.37-4.15.6-1.1.57-1.14-.61-1.92-1.07,1.4-2.12,2.82-3.23,4.2-.53.66-1,1.24,0,1.89l-2.1,2.65c-.6-.61-1.09-1.14-1.62-1.61s-.47-.71-.11-1.21c1.36-1.84,2.68-3.7,4-5.57a2.94,2.94,0,0,1,1.65-1.25,6.78,6.78,0,0,0,3.42-2.4,7.15,7.15,0,0,0,1.68-4.72c-.76,3.6-2.68,6.17-6.32,6.79-4.34.74-7.76-.95-10.12-4.69-1.32.86-1.32.86-.78,1.91-.74.55-1.47,1.12-2.23,1.66-.13.1-.45.14-.54,0-.67-.62-1.31-1.28-2-2l5.12-4.09.26.69a8.46,8.46,0,0,0,6.06,5.79c2.84.81,5.51.5,7.72-1.64a7.5,7.5,0,0,0,2.19-7.43A6.75,6.75,0,0,0,27.25,229c.88-1.28,1.78-2.35,3.51-1.55a3,3,0,0,0,.8.13c4.39.63,8.11-1,9.9-4.49a9.11,9.11,0,0,0,.17-8.81c.37,3,0,5.83-2.15,8.17s-6,2.94-8.09,2l4.5-4.8,4.42-4.74q-4.71,4.27-9.32,8.67a1.42,1.42,0,0,1-1.72.39,11.82,11.82,0,0,0-7.59-.61c-4.65,1.28-9,5.44-8.3,11a1,1,0,0,1-.38.72q-2.29,1.74-4.67,3.39a.83.83,0,0,1-.76.07c-.65-.57-1.24-1.2-1.9-1.87l7.48-5.3a3.89,3.89,0,0,0-1.22.51c-2.07,1.29-4.13,2.59-6.21,3.85-.23.14-.69.24-.84.11C4.21,235.33,3.6,234.67,3,234l2.82-1.93c.56.86,1.16.71,1.81.16a7.92,7.92,0,0,1,.92-.58L12.4,229c-.72-.26-.77-1.22-1.7-.75-1.58.81-3.18,1.57-4.79,2.32-.69.32-1.13.64-.34,1.37l-1.13.53c-.35.16-.7.34-1.05.52-1.09.55-1.23.51-1.85-.61L10,226.74c-1-.55-.61-1-.07-1.57,1.74-1.71,3.42-3.48,5.19-5.16a46,46,0,0,1,4-3.48,5.64,5.64,0,0,1,4.31-1.23,2.1,2.1,0,0,1,2,2.17,5.75,5.75,0,0,0-2,0,1.85,1.85,0,0,0-.85,2.67,2,2,0,0,0,2.78.88,3.2,3.2,0,0,0,1.71-3.31,4.88,4.88,0,0,0-4.15-4.06,7.74,7.74,0,0,0-6.54,1.64c-2.31,1.8-4.44,3.86-6.63,5.82-.73.65-1.35,1.47-2.55,1.35.27.8.3,1.38-.72,1.24-.11,0-.22.09-.34.12-1.76.61-3.52,1.24-5.29,1.81-.74.24-1.08.52-.4,1.23L0,227v.34L.63,227c1.32,1.53,2.26-.34,3.65-.15-1.43,1-2.84,2-4.28,3V233a1.08,1.08,0,0,1,1.18.36Q11.56,243.76,22,254.14a1.1,1.1,0,0,1,.34,1.33,8.67,8.67,0,0,0,0,5.84,5.93,5.93,0,0,0,.26.63h1.8a6.6,6.6,0,0,1,.27-5.07l3.05,3.05a2.14,2.14,0,0,0-.7,2h5.3a3.25,3.25,0,0,0-1.54-2.59c.9-2.38,1.8-4.72,2.69-7.07a1.52,1.52,0,0,0-.56.71c-.81,1.77-1.61,3.55-2.42,5.33a1.65,1.65,0,0,1-2.82.37.85.85,0,0,1-.14-.7c.35-1,.76-1.89,1.14-2.84.9.48.92.48,1.35-.49.63-1.46,1.23-2.93,1.85-4.4.3-.71.57-1.41-.24-2.17l1.23-.06-.21-.13a18,18,0,0,1,1.48-2.14c1.47-1.63,3-3.17,4.52-4.8a12.3,12.3,0,0,0,2.94-5.12A6.2,6.2,0,0,0,40,229.35,3.56,3.56,0,0,0,34.37,229.89Zm-7.94,7.57a5.45,5.45,0,0,1-7.42.17q3.52-3.75,7.06-7.51A5.38,5.38,0,0,1,26.43,237.46Zm-9.08-5.3a8.35,8.35,0,0,1,8-5.72c.73,0,1.46.14,2.35.22a8.79,8.79,0,0,1-1.17,1.15,1.41,1.41,0,0,1-1,.2,7.35,7.35,0,0,0-3.67,0l3.21,1.2L17.74,236A5.18,5.18,0,0,1,17.35,232.16Zm1.86-16.46a8.41,8.41,0,0,0-1.06.8c-3.06,2.93-6.09,5.89-9.15,8.82-.47.46-1,.85-1.53,1.27l-.19-.2C11.05,222.08,16.46,216.68,19.21,215.7ZM.54,231.6c2.07-1.51,2.72-1.81,3.16-1.48C2.8,231.2,1.22,232,.54,231.6ZM11.1,242.09l2.28-2.28c.48.42,1,.76,1.59,0l.78.78c-.51.47-.75,1,.06,1.5l-2.51,2.19C12.53,243.53,11.84,242.84,11.1,242.09Zm2.71,2.72,2.13-2.51c.55.69,1,.63,1.52,0a.59.59,0,0,1,.54-.09c.55.2,1.08.46,1.79.77l-3.92,3.92Zm2.7,2.69c1.18-1.42,2.33-2.84,3.51-4.23a.92.92,0,0,1,.64-.19c1,.06,2,.16,3.14.25l-5.11,6.36Zm6.78,8.67a8.82,8.82,0,0,0-.23,5.16,7.86,7.86,0,0,1,0-5.95h.28A2.38,2.38,0,0,1,23.29,256.17Zm.53-1.45c-.51-.45,0-1.55,1.38-3.19C25.55,252.05,25.55,252.05,23.82,254.72Zm4.31-1.36c-.26.44-.37.79.08,1.18a.66.66,0,0,1,.15.59c-.49.88-1,1.74-1.61,2.7a17.3,17.3,0,0,1-1.41-1.46.94.94,0,0,1-.05-.85,18.45,18.45,0,0,1,4.84-5.61C29.46,251.06,28.82,252.22,28.13,253.36ZM30.25,247l-.3-.14a2.9,2.9,0,0,1,.37-.77c2.44-2.49,5-4.92,7.33-7.47a44.35,44.35,0,0,0,2.86-3.83C38.19,239.83,34,243.2,30.25,247Z"/><path d="M79.21,252.33a4.57,4.57,0,0,0-1.11,0,13.86,13.86,0,0,0-6.74,3.2,30.1,30.1,0,0,0-4.3,4.79.84.84,0,0,1-.77.37c-1.06-.06-2.12-.09-3.18-.1a23.09,23.09,0,0,0-7.74,1l-.72.28H75.83a8.87,8.87,0,0,0,.89-.94,16,16,0,0,0,2.62-4.9,18.06,18.06,0,0,0,.71-2.74C80.19,252.66,79.93,252.38,79.21,252.33Zm-1.29,3.8a5.37,5.37,0,0,1-2.67,3.65,6.75,6.75,0,0,1-3.43,1c-1.18.05-2.37,0-3.56,0a.88.88,0,0,1-.2,0,13.59,13.59,0,0,1,6.67-5.54,6.64,6.64,0,0,1,2.26-.3C77.79,254.91,78.05,255.34,77.92,256.13Z"/><path d="M261,0a6.78,6.78,0,0,1-1.92,4.09c-2.43,2.67-5,5.22-7.5,7.81-.59.61-1.11,1.39-1.94,1.08a15.84,15.84,0,0,1-1.21,2c-.75.94-1.65,1.76-2.39,2.7s-1.52,2.12-2.44,3.43c-.23-.61-.64-1.15-.51-1.48a21.56,21.56,0,0,1,1.4-2.58c.89.58.9.59,1.4-.26.8-1.38,1.6-2.75,2.36-4.15.61-1.1.57-1.14-.6-1.92-1.08,1.4-2.13,2.82-3.24,4.2-.52.66-1,1.24,0,1.89-.72.92-1.38,1.75-2.09,2.64-.61-.6-1.09-1.13-1.63-1.61s-.47-.71-.1-1.2c1.35-1.84,2.67-3.7,4-5.57a3,3,0,0,1,1.66-1.25,6.86,6.86,0,0,0,3.41-2.4,7.1,7.1,0,0,0,1.68-4.72c-.76,3.59-2.67,6.16-6.31,6.79-4.34.74-7.76-.95-10.13-4.69-1.32.86-1.32.86-.78,1.9-.73.56-1.47,1.13-2.23,1.67-.13.09-.45.14-.54.05-.67-.62-1.31-1.28-2-2l5.13-4.09c.11.3.19.49.25.69a8.49,8.49,0,0,0,6.06,5.79c2.84.81,5.51.5,7.72-1.64A7.48,7.48,0,0,0,250.74,0h-2.16a5.08,5.08,0,0,1-1.18,4.46,5.46,5.46,0,0,1-7.41.17L244.34,0H242l-3.23,3a5.39,5.39,0,0,1-.57-3H234.3a8.53,8.53,0,0,0,.06,1.42,1,1,0,0,1-.38.72c-1.54,1.15-3.1,2.29-4.67,3.39a.83.83,0,0,1-.76.06c-.65-.56-1.24-1.2-1.91-1.86L231.9,0h-.69c-1.5.93-3,1.88-4.51,2.79-.23.14-.69.24-.84.11-.68-.57-1.28-1.23-1.94-1.89l1.48-1h-1c-.84.43-1.11.5-1.48,0H221.7a1.42,1.42,0,0,1,.46.33Q232.54,10.76,243,21.14a1.12,1.12,0,0,1,.34,1.33,8.73,8.73,0,0,0,0,5.84,6.09,6.09,0,0,0,6,4.29,4,4,0,0,0,3.76-2.5,3.06,3.06,0,0,0-1.34-3.75c.91-2.38,1.8-4.73,2.7-7.07a1.48,1.48,0,0,0-.56.7q-1.22,2.67-2.42,5.34a1.66,1.66,0,0,1-2.83.37.89.89,0,0,1-.14-.7c.35-1,.76-1.9,1.15-2.84.9.47.92.48,1.34-.49.64-1.46,1.23-2.94,1.86-4.4.29-.71.57-1.41-.24-2.17L253.8,15a1.37,1.37,0,0,1-.2-.13,19.76,19.76,0,0,1,1.47-2.14c1.47-1.63,3.05-3.16,4.52-4.79a13.7,13.7,0,0,0,2.35-3.47V0Zm-29,9.09,2.29-2.28c.47.42,1,.76,1.58,0l.78.78c-.51.47-.75,1,.06,1.49l-2.51,2.2Zm2.71,2.72,2.13-2.51c.55.69,1,.63,1.52,0a.64.64,0,0,1,.55-.1c.55.21,1.08.46,1.78.78l-3.92,3.92Zm2.7,2.69c1.18-1.43,2.34-2.84,3.52-4.23a.88.88,0,0,1,.63-.19c1,.06,2,.16,3.15.25l-5.11,6.36Zm6.79,8.67a8.74,8.74,0,0,0-.23,5.16,7.86,7.86,0,0,1-.06-5.95h.28A2.4,2.4,0,0,1,244.27,23.17Zm.53-1.45c-.51-.45-.05-1.55,1.38-3.19C246.52,19.05,246.52,19.05,244.8,21.72Zm3.86,5.2c-1.08,1.1-.87,2.23,0,3.33a2.23,2.23,0,0,1-3.27-1.31,6.6,6.6,0,0,1,.27-5.07Zm.44-6.56c-.26.44-.37.79.08,1.18a.62.62,0,0,1,.15.59c-.49.88-1,1.74-1.6,2.7a17.49,17.49,0,0,1-1.42-1.46,1,1,0,0,1-.05-.85,18.6,18.6,0,0,1,4.84-5.62C250.44,18.06,249.79,19.22,249.1,20.36ZM251.23,14l-.3-.15a2.69,2.69,0,0,1,.37-.76c2.44-2.5,4.94-4.93,7.32-7.47a41.91,41.91,0,0,0,2.86-3.83C259.17,6.83,255,10.2,251.23,14ZM214.87,0a8.79,8.79,0,0,0,5.95,0h-5.95Z"/><path d="M261.94,40.85a4.5,4.5,0,0,0-1,4.94,6.42,6.42,0,0,0,1,1.68v-2c0-.11,0-.21,0-.32l0,0Z"/><path d="M194.05,3.6a3.56,3.56,0,0,0-5.61.53A2.09,2.09,0,0,0,189,6.87a2,2,0,0,0,2.8-.45c.7-.82.25-1.54-.16-2.29a2.29,2.29,0,0,1,2.51,2.48,6.72,6.72,0,0,1-1.94,4.73c-2.44,2.66-5,5.22-7.5,7.81-.59.6-1.12,1.39-1.94,1.07a18.88,18.88,0,0,1-1.21,2c-.76.94-1.65,1.76-2.4,2.7s-1.51,2.12-2.44,3.42c-.22-.61-.63-1.14-.51-1.47a19,19,0,0,1,1.41-2.58c.88.58.9.59,1.39-.26.8-1.38,1.6-2.76,2.37-4.15.6-1.11.57-1.14-.61-1.92-1.07,1.4-2.13,2.82-3.23,4.2-.53.66-1,1.24,0,1.89l-2.1,2.64c-.6-.6-1.09-1.14-1.63-1.61s-.46-.71-.1-1.2c1.36-1.84,2.68-3.71,4-5.58A2.92,2.92,0,0,1,179.32,17a6.89,6.89,0,0,0,3.42-2.4,7.18,7.18,0,0,0,1.68-4.73c-.77,3.6-2.68,6.17-6.32,6.79-4.34.74-7.76-.94-10.12-4.68-1.33.85-1.33.85-.78,1.9-.74.56-1.47,1.13-2.23,1.67a.62.62,0,0,1-.54.05c-.68-.62-1.31-1.28-2-2,1.77-1.4,3.42-2.72,5.13-4.09.11.31.19.5.25.7A8.47,8.47,0,0,0,173.87,16c2.84.82,5.5.51,7.72-1.64A7.48,7.48,0,0,0,183.78,7a6.81,6.81,0,0,0-2.46-3.75c.87-1.27,1.78-2.35,3.51-1.55a3,3,0,0,0,.8.14A9.83,9.83,0,0,0,193.36,0h-22.2a9.57,9.57,0,0,0-3.71,8.67,1,1,0,0,1-.38.72c-1.54,1.15-3.09,2.28-4.67,3.39a.83.83,0,0,1-.76.06c-.65-.56-1.24-1.2-1.91-1.87l7.49-5.29a3.67,3.67,0,0,0-1.22.51c-2.07,1.28-4.13,2.58-6.21,3.85-.23.14-.69.23-.84.11-.68-.58-1.28-1.24-1.94-1.89l2.83-1.93c.56.86,1.16.7,1.81.15.27-.23.62-.37.91-.58l3.91-2.63c-.73-.26-.77-1.23-1.7-.75-1.58.81-3.18,1.57-4.79,2.31-.69.32-1.13.64-.34,1.37l-1.13.53-1,.52c-1.09.56-1.23.51-1.85-.6,2.79-1.87,5.6-3.74,8.49-5.66-.63-.35-.71-.67-.55-1h-1c-.34.29-.69.55-1,.84l-.19-.21L161.9,0h-7.3c-.51.22-.66.51-.09,1.1L151.79,2a1.4,1.4,0,0,1-1.72-.79A1.84,1.84,0,0,1,150.36,0h-6.29a5,5,0,0,0,1.15,5.29c2.41,2.65,5.44,3,8.7,2a1.14,1.14,0,0,1,1.33.32Q165.63,18,176.06,28.39a1.1,1.1,0,0,1,.34,1.33,8.67,8.67,0,0,0,0,5.84,6.07,6.07,0,0,0,6,4.29,4,4,0,0,0,3.76-2.5,3,3,0,0,0-1.34-3.75l2.7-7.07a1.44,1.44,0,0,0-.56.7l-2.42,5.34a1.65,1.65,0,0,1-2.82.36.83.83,0,0,1-.14-.69c.35-1,.75-1.9,1.14-2.84.9.47.92.48,1.34-.49.64-1.46,1.24-2.94,1.86-4.41.3-.7.57-1.4-.24-2.16l1.22-.07-.2-.13A18.9,18.9,0,0,1,188.17,20c1.47-1.63,3.05-3.16,4.52-4.79a12.36,12.36,0,0,0,2.94-5.12A6.19,6.19,0,0,0,194.05,3.6ZM180.5,11.7a5.46,5.46,0,0,1-7.42.18l7-7.52A5.37,5.37,0,0,1,180.5,11.7Zm-9.08-5.29A8.34,8.34,0,0,1,179.36.69c.74,0,1.47.13,2.36.22a8.62,8.62,0,0,1-1.18,1.14,1.4,1.4,0,0,1-1,.21,7.42,7.42,0,0,0-3.66,0l3.21,1.21-7.27,6.82A5.16,5.16,0,0,1,171.42,6.41ZM146.05,2a6.1,6.1,0,0,0,1.73.55,7,7,0,0,0,1.86-.53l2.9,2.9c-1.86.65-3.59,1-5.33.12A2.24,2.24,0,0,1,146.05,2Zm3,4.76,2.58-.11c.79,0,1.53-.66,2.35-.25A6.89,6.89,0,0,1,149.09,6.8Zm4.76-2.5a.9.9,0,0,1-.84-.07,16,16,0,0,1-1.39-1.36l3.08-1.6c1.32,1.54,2.26-.34,3.65-.15C156.85,2.19,155.37,3.27,153.85,4.3Zm.75,1.55c2.08-1.51,2.73-1.81,3.17-1.48C156.87,5.44,155.29,6.22,154.6,5.85Zm10.57,10.49,2.28-2.29c.48.43,1,.77,1.59,0l.77.78c-.5.47-.74,1,.06,1.49l-2.51,2.2Zm2.7,2.72L170,16.55c.56.69,1.05.63,1.53,0a.58.58,0,0,1,.54-.09c.55.2,1.08.46,1.79.77l-3.92,3.92Zm2.7,2.69c1.18-1.43,2.34-2.84,3.52-4.23a.85.85,0,0,1,.64-.19c1,.06,2,.15,3.14.24l-5.11,6.36Zm6.79,8.67a8.74,8.74,0,0,0-.23,5.16,7.86,7.86,0,0,1,0-5.95h.28A2.68,2.68,0,0,1,177.36,30.42Zm.53-1.46c-.51-.45,0-1.54,1.38-3.18C179.62,26.3,179.62,26.3,177.89,29Zm3.87,5.21c-1.09,1.09-.88,2.23,0,3.33a2.23,2.23,0,0,1-3.27-1.31,6.59,6.59,0,0,1,.27-5.07C179.77,32.17,180.73,33.14,181.76,34.17Zm.44-6.56c-.27.44-.37.79.08,1.18a.62.62,0,0,1,.14.59c-.48.88-1,1.74-1.6,2.69a19.13,19.13,0,0,1-1.42-1.45,1,1,0,0,1,0-.85,18.6,18.6,0,0,1,4.84-5.62C183.53,25.3,182.88,26.47,182.2,27.61Zm2.12-6.39-.3-.14a2.56,2.56,0,0,1,.37-.76c2.44-2.5,4.94-4.93,7.32-7.48A42.28,42.28,0,0,0,194.58,9C192.26,14.07,188.05,17.45,184.32,21.22Z"/><path d="M261.94,74.91a6.16,6.16,0,0,0-.45-.94,3.24,3.24,0,0,1,.45,0V72.41A3.35,3.35,0,0,0,258.28,74a2.09,2.09,0,0,0,.57,2.74,2,2,0,0,0,2.8-.45,1.7,1.7,0,0,0,.29-.49A1.27,1.27,0,0,0,261.94,74.91Zm0-13.45v-.34q-3.56,3.24-7,6.57a1.39,1.39,0,0,1-1.72.39,11.75,11.75,0,0,0-7.59-.6c-4.65,1.27-9,5.44-8.3,11a1,1,0,0,1-.38.72c-1.54,1.15-3.09,2.28-4.67,3.39a.83.83,0,0,1-.76.06c-.65-.56-1.24-1.2-1.91-1.87l7.49-5.29a3.59,3.59,0,0,0-1.22.51c-2.07,1.28-4.13,2.58-6.21,3.85-.23.14-.69.23-.84.11-.68-.58-1.28-1.24-1.94-1.89l2.83-1.93c.56.86,1.16.7,1.81.15.27-.23.62-.37.91-.58l3.91-2.63c-.73-.26-.77-1.23-1.7-.75-1.58.81-3.18,1.57-4.79,2.31-.69.32-1.13.64-.34,1.37l-1.13.53-1,.52c-1.09.56-1.23.51-1.85-.6l8.49-5.66c-1-.56-.61-1-.07-1.58,1.74-1.71,3.42-3.47,5.19-5.15a44.37,44.37,0,0,1,4-3.48,5.59,5.59,0,0,1,4.31-1.23,2.09,2.09,0,0,1,2,2.17,5.47,5.47,0,0,0-2,0,1.85,1.85,0,0,0-.85,2.67,2,2,0,0,0,2.78.87A3.19,3.19,0,0,0,251,61.8a4.89,4.89,0,0,0-4.15-4.07,7.74,7.74,0,0,0-6.54,1.64c-2.32,1.81-4.44,3.86-6.64,5.82-.72.65-1.34,1.48-2.54,1.35.27.81.29,1.39-.72,1.25-.11,0-.23.08-.34.12-1.76.61-3.52,1.24-5.29,1.81-.74.24-1.08.52-.4,1.22l-2.72.94a1.4,1.4,0,0,1-1.72-.79,2.05,2.05,0,0,1,.83-1.83c1.52-.57,3-1.13,4.56-1.72.92-.35,1.82-.75,2.72-1.13l-.08-.2-8,2.59a3,3,0,0,0-3.15-1.61,3.29,3.29,0,0,0-2.71,2.24,5,5,0,0,0,1,5.7c2.41,2.65,5.44,3,8.7,2a1.14,1.14,0,0,1,1.33.32q10.38,10.43,20.81,20.81a1.11,1.11,0,0,1,.34,1.34,8.67,8.67,0,0,0,0,5.84,6.07,6.07,0,0,0,6,4.29,4,4,0,0,0,3.76-2.5,3,3,0,0,0-1.34-3.75l2.7-7.07a1.44,1.44,0,0,0-.56.7l-2.42,5.34a1.65,1.65,0,0,1-2.82.36.83.83,0,0,1-.14-.69c.35-1,.75-1.9,1.14-2.84.9.47.92.48,1.34-.49.64-1.46,1.24-2.94,1.86-4.41.3-.7.57-1.4-.24-2.16l1.22-.07-.2-.13A18.9,18.9,0,0,1,258,89.84c1.28-1.41,2.63-2.75,3.93-4.15V82.94c-2.28,3-5.15,5.46-7.78,8.12l-.3-.14a2.56,2.56,0,0,1,.37-.76c2.44-2.5,4.94-4.93,7.32-7.48l.39-.44v-.93c-2.4,2.61-4.91,5.13-7.38,7.68-.59.6-1.12,1.39-1.94,1.07a18.88,18.88,0,0,1-1.21,2c-.76.94-1.65,1.76-2.4,2.7s-1.51,2.12-2.44,3.42c-.22-.61-.63-1.14-.51-1.47a19,19,0,0,1,1.41-2.58c.88.58.9.59,1.39-.26.8-1.38,1.6-2.76,2.37-4.15.6-1.11.57-1.14-.61-1.92-1.07,1.4-2.13,2.82-3.23,4.2-.53.66-1,1.24,0,1.89l-2.1,2.64c-.6-.6-1.09-1.14-1.63-1.61s-.46-.71-.1-1.2c1.36-1.84,2.68-3.71,4-5.58a2.92,2.92,0,0,1,1.65-1.24,6.89,6.89,0,0,0,3.42-2.4,7.18,7.18,0,0,0,1.68-4.73c-.77,3.6-2.68,6.17-6.32,6.79-4.34.74-7.76-.94-10.12-4.68-1.33.85-1.33.85-.78,1.9-.74.56-1.48,1.13-2.23,1.67a.62.62,0,0,1-.54,0c-.68-.62-1.31-1.28-2-2,1.77-1.4,3.42-2.72,5.13-4.09.11.31.19.5.25.7a8.47,8.47,0,0,0,6.07,5.78c2.84.82,5.5.51,7.72-1.64a7.48,7.48,0,0,0,2.19-7.42,6.81,6.81,0,0,0-2.46-3.75c.87-1.27,1.78-2.35,3.51-1.55a3,3,0,0,0,.8.14,10.36,10.36,0,0,0,6.47-1v-3c-2.15,1.31-5,1.61-6.64.88l4.49-4.8C260.51,63,261.23,62.23,261.94,61.46Zm-18.82-1.68a12.41,12.41,0,0,0-1.07.8c-3.05,2.94-6.08,5.89-9.14,8.82-.48.46-1,.85-1.53,1.28l-.19-.21C235,66.16,240.36,60.77,243.12,59.78Zm-27.23,12.1a6.1,6.1,0,0,0,1.73.55,7,7,0,0,0,1.86-.53l2.9,2.9c-1.86.65-3.59,1-5.33.12A2.24,2.24,0,0,1,215.89,71.88Zm3,4.76,2.58-.11c.79,0,1.53-.66,2.35-.25A6.89,6.89,0,0,1,218.93,76.64Zm4.76-2.5a.9.9,0,0,1-.84-.07,16,16,0,0,1-1.39-1.36l3.08-1.6c1.32,1.54,2.26-.34,3.65-.15C226.69,72,225.21,73.11,223.69,74.14Zm.75,1.55c2.08-1.51,2.73-1.81,3.17-1.48C226.71,75.28,225.13,76.06,224.44,75.69ZM251.6,104c-1.09,1.09-.88,2.23,0,3.33a2.23,2.23,0,0,1-3.27-1.31,6.59,6.59,0,0,1,.27-5.07C249.61,102,250.57,103,251.6,104ZM254,94c-.67,1.15-1.32,2.32-2,3.46-.27.44-.37.79.08,1.18a.62.62,0,0,1,.14.59c-.48.88-1,1.74-1.6,2.69a19.13,19.13,0,0,1-1.42-1.45,1,1,0,0,1,0-.85A18.6,18.6,0,0,1,254,94Zm-4.93,1.63c.35.52.35.52-1.38,3.18C247.22,98.35,247.68,97.26,249.11,95.62Zm-2.19,3.85h.28a2.68,2.68,0,0,1,0,.8,8.74,8.74,0,0,0-.23,5.16A7.86,7.86,0,0,1,246.92,99.47Zm-2.35-12.3c1,.06,2,.15,3.14.24l-5.11,6.36-2.19-2.18c1.18-1.43,2.34-2.84,3.52-4.23A.85.85,0,0,1,244.57,87.17Zm-4.73-.78c.56.69,1,.63,1.53,0a.58.58,0,0,1,.54-.09c.55.2,1.08.46,1.79.77L239.78,91l-2.07-2.06Zm-2.55-2.5c.48.43,1,.77,1.59,0l.77.78c-.5.47-.74,1,.06,1.49l-2.51,2.2L235,86.18Zm13.05-2.35a5.46,5.46,0,0,1-7.42.18L250,74.2A5.37,5.37,0,0,1,250.34,81.54Zm0-9.65a1.4,1.4,0,0,1-1,.21,7.42,7.42,0,0,0-3.66,0l3.21,1.21-7.27,6.82a5.16,5.16,0,0,1-.39-3.87,8.34,8.34,0,0,1,7.94-5.72c.74,0,1.47.13,2.36.22A8.62,8.62,0,0,1,250.38,71.89Z"/><path d="M232.28,25.58a4.5,4.5,0,0,0-1.1,0,13.85,13.85,0,0,0-6.75,3.2,30.1,30.1,0,0,0-4.3,4.79.8.8,0,0,1-.76.36q-1.59-.08-3.18-.09a22.81,22.81,0,0,0-7.74,1,8.83,8.83,0,0,0-3.85,14.63c.82.94,1.83,1.72,2.81,2.64-.88,1.38-1.73,2.78-2.65,4.13A4,4,0,0,1,202.44,58a5.22,5.22,0,0,1-5.24-2.7,4.61,4.61,0,0,1-.15-.84l.16-.07c.17.14.35.26.51.4a2.49,2.49,0,0,0,1.93.72,3.3,3.3,0,0,0,2.74-2.39,2.85,2.85,0,0,0-1.19-3.2,3.27,3.27,0,0,0-3.63-.16,4.41,4.41,0,0,0-1.48,5.32,6.57,6.57,0,0,0,3.31,3.47,4.68,4.68,0,0,0,6.43-1.8c.79-1.25,1.62-2.47,2.38-3.73.23-.38.41-.4.79-.24a8.39,8.39,0,0,0,6.15.38,5.64,5.64,0,0,0,4-6,7.6,7.6,0,0,0-2.3-4.65c-.33-.34-.67-.67-1-1,.79-1.16,1.58-2.34,2.4-3.51a.69.69,0,0,1,.5-.23c1.27,0,2.54.09,3.8,0a9.78,9.78,0,0,0,7.26-3.55,16.44,16.44,0,0,0,2.62-4.9,18.37,18.37,0,0,0,.71-2.74C233.26,25.91,233,25.63,232.28,25.58ZM215.37,48.41a4,4,0,0,1-3.84,3.43,5.74,5.74,0,0,1-2.38-.23l4.71-7.09A4.66,4.66,0,0,1,215.37,48.41ZM214.78,41a7.78,7.78,0,0,0-4.08-.86c-4.07.27-5,4.55-3.82,6.82a3.46,3.46,0,0,0,.31.47l.12,0c.07-1.69.29-3.34,2.11-4.06a3.89,3.89,0,0,1,3.44.46L208,51.19a8.27,8.27,0,0,1-2.68-2,6.84,6.84,0,0,1-.65-8.45A7.72,7.72,0,0,1,210,37.42a18.24,18.24,0,0,1,5.76,0l1.37.17C216.31,38.76,215.55,39.85,214.78,41ZM231,29.38A5.34,5.34,0,0,1,228.32,33a6.69,6.69,0,0,1-3.43,1c-1.18.05-2.37,0-3.56,0a1.15,1.15,0,0,1-.2-.05,13.62,13.62,0,0,1,6.67-5.53,6.64,6.64,0,0,1,2.26-.3C230.87,28.16,231.13,28.59,231,29.38Z"/><path d="M121.44,6.87a3.56,3.56,0,0,0-5.61.53,2.11,2.11,0,0,0,.57,2.75,2,2,0,0,0,2.81-.45c.7-.83.24-1.55-.17-2.3a2.29,2.29,0,0,1,2.51,2.48,6.72,6.72,0,0,1-1.94,4.73c-2.43,2.67-5,5.22-7.5,7.81-.59.61-1.12,1.39-1.94,1.08a18.68,18.68,0,0,1-1.21,2c-.76.94-1.65,1.76-2.39,2.7s-1.52,2.12-2.44,3.43c-.23-.61-.64-1.15-.51-1.48a20.23,20.23,0,0,1,1.4-2.58c.88.58.9.59,1.39-.26.81-1.38,1.61-2.75,2.37-4.15.6-1.1.57-1.14-.61-1.92-1.07,1.4-2.12,2.82-3.23,4.2-.52.66-1,1.24,0,1.89-.73.92-1.39,1.75-2.09,2.65-.61-.61-1.09-1.14-1.63-1.62s-.47-.71-.11-1.2c1.36-1.84,2.68-3.7,4-5.57a2.93,2.93,0,0,1,1.66-1.25,6.86,6.86,0,0,0,3.41-2.4,7.1,7.1,0,0,0,1.68-4.72c-.76,3.59-2.68,6.16-6.32,6.79-4.34.74-7.76-.95-10.12-4.69-1.32.86-1.32.86-.78,1.9-.74.56-1.47,1.13-2.23,1.67-.13.09-.45.14-.54,0-.67-.62-1.31-1.28-2-2L95,12.84l.25.69a8.47,8.47,0,0,0,6.06,5.79c2.84.81,5.51.5,7.72-1.64a7.5,7.5,0,0,0,2.19-7.43,6.81,6.81,0,0,0-2.46-3.75c.88-1.27,1.78-2.34,3.51-1.54a3,3,0,0,0,.8.13c4.39.63,8.11-1,9.9-4.5l.29-.59h-2.32c-2.12,2.22-6,2.89-8,2,.63-.67,1.25-1.34,1.88-2h-1.09c-.4.37-.8.74-1.19,1.12a1.41,1.41,0,0,1-1.72.4,11.75,11.75,0,0,0-7.59-.61c-4.65,1.27-9,5.44-8.3,11a1,1,0,0,1-.37.72q-2.31,1.74-4.67,3.39a.83.83,0,0,1-.76.06c-.66-.56-1.24-1.2-1.91-1.86L94.61,9a3.89,3.89,0,0,0-1.22.51c-2.07,1.28-4.13,2.59-6.2,3.85-.23.14-.7.24-.85.11-.67-.57-1.27-1.23-1.93-1.89L87.23,9.6c.56.86,1.17.7,1.81.15.28-.23.62-.37.92-.57l3.9-2.64c-.72-.26-.77-1.22-1.7-.75C90.58,6.6,89,7.36,87.37,8.11c-.69.31-1.13.64-.34,1.37L85.9,10l-1.05.52c-1.08.56-1.23.52-1.85-.6l8.49-5.66c-1-.55-.61-1-.07-1.58C92.32,1.8,93.21.9,94.1,0h-.69L90.47,2.84c-.48.46-1,.85-1.54,1.27l-.19-.2C89.84,2.65,91.08,1.3,92.35,0H88.66c.26.79.28,1.36-.73,1.22-.1,0-.22.08-.34.12C85.83,2,84.08,2.58,82.3,3.15c-.74.24-1.08.52-.4,1.23l-2.72.94a1.4,1.4,0,0,1-1.71-.8A2,2,0,0,1,78.3,2.7L82.85,1c.79-.31,1.57-.65,2.35-1h-.79L77.47,2.23A3,3,0,0,0,74.33.62a3.34,3.34,0,0,0-2.72,2.24,5.06,5.06,0,0,0,1,5.7c2.41,2.65,5.44,2.95,8.7,2a1.12,1.12,0,0,1,1.33.32Q93,21.28,103.45,31.66A1.11,1.11,0,0,1,103.8,33a8.67,8.67,0,0,0,0,5.84,6.09,6.09,0,0,0,6,4.3c1.67-.16,3.14-.79,3.75-2.51a3,3,0,0,0-1.33-3.75c.9-2.38,1.8-4.72,2.69-7.07a1.52,1.52,0,0,0-.55.7l-2.43,5.34a1.65,1.65,0,0,1-2.82.37.89.89,0,0,1-.14-.7c.35-1,.76-1.9,1.15-2.84.89.47.91.48,1.34-.49.63-1.46,1.23-2.94,1.85-4.4.3-.71.57-1.41-.23-2.17l1.22-.07-.21-.12a19,19,0,0,1,1.48-2.15c1.47-1.63,3-3.16,4.52-4.79a12.49,12.49,0,0,0,3-5.12A6.2,6.2,0,0,0,121.44,6.87ZM107.89,15a5.46,5.46,0,0,1-7.42.17l7.06-7.51A5.36,5.36,0,0,1,107.89,15Zm-9.07-5.3A8.33,8.33,0,0,1,106.76,4c.73,0,1.46.14,2.36.22a9.41,9.41,0,0,1-1.18,1.15,1.45,1.45,0,0,1-1,.2,7.46,7.46,0,0,0-3.67,0l3.21,1.21L99.2,13.56A5.18,5.18,0,0,1,98.82,9.68ZM73.44,5.31a6.16,6.16,0,0,0,1.74.55A6.83,6.83,0,0,0,77,5.34l2.9,2.9c-1.85.65-3.58,1-5.33.11A2.24,2.24,0,0,1,73.44,5.31Zm3,4.77c.86,0,1.71-.09,2.57-.11s1.53-.66,2.35-.26A6.86,6.86,0,0,1,76.49,10.08Zm4.75-2.5a.94.94,0,0,1-.84-.08A17.55,17.55,0,0,1,79,6.14l3.08-1.6c1.32,1.54,2.26-.33,3.65-.14C84.25,5.46,82.76,6.55,81.24,7.58ZM82,9.12c2.07-1.51,2.72-1.81,3.16-1.48C84.26,8.72,82.69,9.49,82,9.12ZM92.56,19.61l2.28-2.28c.48.42,1,.76,1.59,0l.78.78c-.51.47-.75,1,.06,1.49l-2.51,2.2C94,21.05,93.3,20.36,92.56,19.61Zm2.71,2.72,2.13-2.51c.55.69,1,.63,1.52,0a.62.62,0,0,1,.54-.1c.55.21,1.08.47,1.79.78L97.33,24.4ZM98,25c1.18-1.43,2.33-2.84,3.52-4.23a.88.88,0,0,1,.63-.19c1,.06,2,.16,3.15.25l-5.12,6.36Zm6.79,8.67a8.74,8.74,0,0,0-.24,5.16,7.9,7.9,0,0,1,0-6h.28A2.4,2.4,0,0,1,104.76,33.69Zm.53-1.45c-.52-.45-.05-1.55,1.37-3.19C107,29.57,107,29.57,105.29,32.24Zm3.86,5.2c-1.08,1.1-.87,2.23-.05,3.33a2.22,2.22,0,0,1-3.26-1.31,6.59,6.59,0,0,1,.26-5.07Zm.44-6.56c-.26.44-.37.79.08,1.18a.65.65,0,0,1,.15.59c-.49.88-1,1.74-1.6,2.7a17.49,17.49,0,0,1-1.42-1.46.94.94,0,0,1,0-.85,18.6,18.6,0,0,1,4.84-5.62C110.93,28.58,110.28,29.74,109.59,30.88Zm2.12-6.38-.3-.14a2.64,2.64,0,0,1,.38-.77c2.43-2.5,4.94-4.93,7.32-7.47A42.38,42.38,0,0,0,122,12.29C119.66,17.35,115.45,20.72,111.71,24.5Z"/><path d="M185.67,77.24a2.11,2.11,0,0,0,.57,2.75,2,2,0,0,0,2.81-.45c.7-.83.24-1.55-.17-2.3a2.29,2.29,0,0,1,2.51,2.48,6.72,6.72,0,0,1-1.94,4.73c-2.43,2.67-5,5.22-7.5,7.81-.59.61-1.12,1.39-1.94,1.08a18.68,18.68,0,0,1-1.21,2c-.76.94-1.65,1.76-2.39,2.7s-1.52,2.12-2.44,3.43c-.23-.61-.64-1.15-.51-1.48a20.23,20.23,0,0,1,1.4-2.58c.88.58.9.59,1.39-.26.81-1.38,1.61-2.75,2.37-4.15.6-1.1.57-1.14-.61-1.92-1.07,1.4-2.12,2.82-3.23,4.2-.52.66-1,1.24,0,1.89-.73.92-1.39,1.75-2.09,2.65-.61-.61-1.09-1.14-1.63-1.62s-.47-.71-.11-1.2c1.36-1.84,2.68-3.7,4-5.57a2.93,2.93,0,0,1,1.66-1.25,6.86,6.86,0,0,0,3.41-2.4A7.1,7.1,0,0,0,181.65,83c-.76,3.59-2.68,6.16-6.32,6.79-4.34.74-7.76-1-10.12-4.69-1.32.86-1.32.86-.78,1.9-.74.56-1.47,1.13-2.23,1.67-.13.09-.45.14-.54,0-.67-.62-1.31-1.28-2-2l5.13-4.09.25.69a8.47,8.47,0,0,0,6.06,5.79c2.84.81,5.51.5,7.72-1.64A7.51,7.51,0,0,0,181,80.09a6.81,6.81,0,0,0-2.46-3.75c.88-1.27,1.78-2.34,3.51-1.54a3,3,0,0,0,.8.13c4.39.63,8.11-1,9.9-4.5a9.09,9.09,0,0,0,.17-8.8c.37,3,0,5.83-2.15,8.16s-6.05,2.95-8.09,2l4.5-4.81,4.43-4.74q-4.73,4.29-9.33,8.67a1.41,1.41,0,0,1-1.72.4,11.75,11.75,0,0,0-7.59-.61c-4.65,1.27-9,5.44-8.3,11a1,1,0,0,1-.37.72q-2.31,1.74-4.67,3.39a.83.83,0,0,1-.76.06c-.66-.56-1.24-1.2-1.91-1.86l7.48-5.3a3.89,3.89,0,0,0-1.22.51c-2.07,1.28-4.13,2.59-6.2,3.85-.23.14-.7.24-.85.11-.67-.57-1.27-1.23-1.93-1.89l2.82-1.93c.56.86,1.16.7,1.81.15.28-.23.62-.37.92-.57l3.9-2.64c-.72-.26-.77-1.22-1.7-.75-1.58.81-3.18,1.57-4.79,2.32-.69.31-1.13.64-.34,1.37l-1.13.52-1.05.52c-1.08.56-1.23.52-1.85-.6l8.49-5.66c-1-.55-.61-1-.07-1.58,1.74-1.71,3.43-3.47,5.19-5.15a47.27,47.27,0,0,1,4-3.48,5.6,5.6,0,0,1,4.31-1.23,2.1,2.1,0,0,1,2,2.17,5.47,5.47,0,0,0-2,0,1.85,1.85,0,0,0-.86,2.67,2,2,0,0,0,2.78.88,3.21,3.21,0,0,0,1.71-3.31A4.88,4.88,0,0,0,174.21,61a7.71,7.71,0,0,0-6.54,1.64c-2.31,1.8-4.43,3.86-6.63,5.82-.73.65-1.35,1.47-2.55,1.34.27.81.3,1.39-.72,1.25-.1,0-.22.08-.34.12-1.76.61-3.51,1.24-5.29,1.81-.74.24-1.08.52-.4,1.23l-2.72.94a1.4,1.4,0,0,1-1.71-.8,2,2,0,0,1,.83-1.83c1.52-.57,3-1.13,4.55-1.71.92-.36,1.82-.76,2.73-1.14a1.54,1.54,0,0,1-.08-.19l-8,2.58a3,3,0,0,0-3.14-1.61,3.34,3.34,0,0,0-2.72,2.24,5.06,5.06,0,0,0,1,5.7c2.41,2.65,5.44,2.95,8.7,2a1.12,1.12,0,0,1,1.33.32q10.4,10.43,20.81,20.81a1.11,1.11,0,0,1,.35,1.33,8.67,8.67,0,0,0,0,5.84,6.09,6.09,0,0,0,6,4.3c1.67-.16,3.14-.79,3.75-2.51a3,3,0,0,0-1.33-3.75c.9-2.38,1.8-4.72,2.69-7.07a1.52,1.52,0,0,0-.55.7l-2.43,5.34a1.65,1.65,0,0,1-2.82.37.89.89,0,0,1-.14-.7c.35-1,.76-1.9,1.15-2.84.89.47.91.48,1.34-.49.63-1.46,1.23-2.94,1.85-4.4.3-.71.57-1.41-.23-2.17l1.22-.07-.21-.12a19,19,0,0,1,1.48-2.15c1.47-1.63,3-3.16,4.52-4.79a12.49,12.49,0,0,0,3-5.12,6.2,6.2,0,0,0-1.59-6.49A3.56,3.56,0,0,0,185.67,77.24Zm-7.94,7.58a5.46,5.46,0,0,1-7.42.17l7.06-7.51A5.36,5.36,0,0,1,177.73,84.82Zm-9.07-5.3a8.33,8.33,0,0,1,7.94-5.72c.73,0,1.46.14,2.36.22a9.41,9.41,0,0,1-1.18,1.15,1.45,1.45,0,0,1-1,.2,7.46,7.46,0,0,0-3.67,0l3.21,1.21L169,83.4A5.18,5.18,0,0,1,168.66,79.52Zm1.85-16.47a11.87,11.87,0,0,0-1.06.81c-3,2.93-6.09,5.88-9.14,8.82-.48.46-1,.85-1.54,1.27l-.19-.2C162.35,69.44,167.76,64,170.51,63.05Zm-27.23,12.1a6.16,6.16,0,0,0,1.74.55,6.83,6.83,0,0,0,1.85-.52l2.9,2.9c-1.85.64-3.58,1-5.33.11A2.24,2.24,0,0,1,143.28,75.15Zm3.05,4.77c.86,0,1.71-.09,2.57-.11s1.53-.66,2.35-.26A6.86,6.86,0,0,1,146.33,79.92Zm4.75-2.5a.94.94,0,0,1-.84-.08A17.55,17.55,0,0,1,148.85,76l3.08-1.6c1.32,1.54,2.26-.33,3.65-.14C154.09,75.3,152.6,76.39,151.08,77.42Zm.76,1.54c2.07-1.51,2.72-1.81,3.16-1.48C154.1,78.56,152.53,79.33,151.84,79ZM162.4,89.45l2.28-2.28c.48.42,1,.76,1.59,0l.78.78c-.51.47-.75,1,.06,1.49l-2.51,2.2C163.83,90.89,163.14,90.2,162.4,89.45Zm2.71,2.72,2.13-2.51c.55.69,1,.63,1.52,0a.62.62,0,0,1,.54-.1c.55.21,1.08.47,1.79.78l-3.92,3.92Zm2.7,2.69c1.18-1.43,2.33-2.84,3.52-4.23a.88.88,0,0,1,.63-.19c1,.06,2,.16,3.15.25L170,97.05Zm6.79,8.67a8.74,8.74,0,0,0-.24,5.16,7.86,7.86,0,0,1-.05-6h.28A2.4,2.4,0,0,1,174.6,103.53Zm.53-1.45c-.52-.45,0-1.55,1.37-3.19C176.85,99.41,176.85,99.41,175.13,102.08Zm3.86,5.2c-1.08,1.1-.87,2.23-.05,3.33a2.22,2.22,0,0,1-3.26-1.31,6.59,6.59,0,0,1,.26-5.07Zm.44-6.56c-.26.44-.37.79.08,1.18a.65.65,0,0,1,.15.59c-.49.88-1,1.74-1.6,2.7a17.49,17.49,0,0,1-1.42-1.46.94.94,0,0,1,0-.85,18.6,18.6,0,0,1,4.84-5.62C180.77,98.42,180.12,99.58,179.43,100.72Zm2.12-6.38-.3-.14a2.64,2.64,0,0,1,.38-.77c2.43-2.5,4.94-4.93,7.32-7.47a43.84,43.84,0,0,0,2.86-3.83C189.5,87.19,185.29,90.56,181.55,94.34Z"/><path d="M159.68,28.85a5.14,5.14,0,0,0-1.11,0,13.82,13.82,0,0,0-6.74,3.2,30.17,30.17,0,0,0-4.31,4.79.8.8,0,0,1-.76.37q-1.59-.09-3.18-.09a23,23,0,0,0-7.74,1,9.33,9.33,0,0,0-4.62,3.23,9.21,9.21,0,0,0,.78,11.4,35.48,35.48,0,0,0,2.8,2.63h0c-.88,1.38-1.73,2.78-2.65,4.13a4,4,0,0,1-2.31,1.71,5.23,5.23,0,0,1-5.25-2.69,3.88,3.88,0,0,1-.14-.84l.16-.07c.17.13.34.26.5.4a2.53,2.53,0,0,0,1.93.71,3.31,3.31,0,0,0,2.75-2.38,2.84,2.84,0,0,0-1.2-3.2,3.26,3.26,0,0,0-3.63-.17,4.43,4.43,0,0,0-1.48,5.32,6.62,6.62,0,0,0,3.31,3.48A4.69,4.69,0,0,0,133.23,60c.79-1.25,1.61-2.47,2.38-3.73.22-.37.4-.4.78-.24a8.34,8.34,0,0,0,6.15.38,5.61,5.61,0,0,0,4-6,7.58,7.58,0,0,0-2.3-4.65l-1-1c.78-1.16,1.57-2.34,2.39-3.51a.69.69,0,0,1,.5-.23c1.27,0,2.54.09,3.8,0a9.76,9.76,0,0,0,7.26-3.56,16.1,16.1,0,0,0,2.62-4.9,18.06,18.06,0,0,0,.71-2.74C160.66,29.18,160.4,28.91,159.68,28.85ZM142.77,51.68a4,4,0,0,1-3.85,3.43,5.86,5.86,0,0,1-2.37-.22l4.7-7.09A4.66,4.66,0,0,1,142.77,51.68Zm-.6-7.44a7.78,7.78,0,0,0-4.08-.86c-4.07.27-5,4.55-3.82,6.82a4.76,4.76,0,0,0,.31.47l.12,0c.07-1.69.29-3.34,2.12-4.06a3.9,3.9,0,0,1,3.44.46l-4.83,7.42a8.56,8.56,0,0,1-2.68-2A6.84,6.84,0,0,1,132.1,44a7.71,7.71,0,0,1,5.28-3.29,18.48,18.48,0,0,1,5.75,0l1.38.17Zm16.21-11.59a5.33,5.33,0,0,1-2.66,3.65,6.76,6.76,0,0,1-3.43,1c-1.19.05-2.38,0-3.57,0a.93.93,0,0,1-.19,0,13.54,13.54,0,0,1,6.67-5.54,6.6,6.6,0,0,1,2.26-.3C158.26,31.43,158.52,31.86,158.38,32.65Z"/><path d="M227.46,96.63a5.14,5.14,0,0,0-1.11,0,13.82,13.82,0,0,0-6.74,3.2,29.81,29.81,0,0,0-4.31,4.8.81.81,0,0,1-.76.36q-1.59-.09-3.18-.09a22.81,22.81,0,0,0-7.74,1,8.81,8.81,0,0,0-3.84,14.62,35.48,35.48,0,0,0,2.8,2.63h0c-.88,1.38-1.73,2.78-2.65,4.13a4,4,0,0,1-2.31,1.71,5.23,5.23,0,0,1-5.25-2.69,3.88,3.88,0,0,1-.14-.84l.16-.07c.17.13.34.26.5.4a2.53,2.53,0,0,0,1.93.71,3.31,3.31,0,0,0,2.75-2.38,2.84,2.84,0,0,0-1.2-3.2,3.24,3.24,0,0,0-3.62-.17,4.42,4.42,0,0,0-1.49,5.32,6.62,6.62,0,0,0,3.31,3.48,4.69,4.69,0,0,0,6.44-1.81c.79-1.25,1.61-2.47,2.38-3.73.22-.37.4-.4.78-.24a8.34,8.34,0,0,0,6.15.38,5.61,5.61,0,0,0,4-6,7.58,7.58,0,0,0-2.3-4.65l-1-1c.78-1.16,1.57-2.34,2.39-3.51a.69.69,0,0,1,.5-.23c1.27,0,2.54.09,3.8,0A9.76,9.76,0,0,0,225,105.3a16.1,16.1,0,0,0,2.62-4.9,18.06,18.06,0,0,0,.71-2.74C228.44,97,228.18,96.69,227.46,96.63Zm-16.91,22.83a4,4,0,0,1-3.85,3.43,5.86,5.86,0,0,1-2.37-.22l4.7-7.09A4.66,4.66,0,0,1,210.55,119.46ZM210,112a7.78,7.78,0,0,0-4.08-.86c-4.07.27-5,4.55-3.82,6.82.09.17.21.31.31.47l.12,0c.07-1.69.29-3.34,2.12-4.06a3.93,3.93,0,0,1,3.44.46l-4.83,7.42a8.56,8.56,0,0,1-2.68-2,6.84,6.84,0,0,1-.65-8.46,7.71,7.71,0,0,1,5.28-3.29,18.48,18.48,0,0,1,5.75,0l1.38.17Zm16.21-11.59a5.33,5.33,0,0,1-2.66,3.65,6.76,6.76,0,0,1-3.43,1c-1.19.05-2.38,0-3.57,0a.93.93,0,0,1-.19,0A13.54,13.54,0,0,1,223,99.5a6.6,6.6,0,0,1,2.26-.3C226,99.21,226.3,99.64,226.16,100.43Z"/><path d="M261.94,135.07v-.18q-4.11,3.75-8.14,7.58a1.41,1.41,0,0,1-1.72.4,11.75,11.75,0,0,0-7.59-.61c-4.65,1.27-9,5.44-8.3,11a1,1,0,0,1-.37.72c-1.54,1.15-3.1,2.29-4.68,3.39a.81.81,0,0,1-.75.06c-.66-.56-1.24-1.2-1.91-1.86l7.48-5.3a3.89,3.89,0,0,0-1.22.51c-2.07,1.28-4.13,2.59-6.21,3.85-.22.14-.69.24-.84.11-.67-.57-1.27-1.23-1.93-1.89l2.82-1.93c.56.86,1.16.7,1.81.15a9.46,9.46,0,0,1,.92-.57l3.9-2.64c-.72-.26-.77-1.22-1.7-.75-1.58.81-3.18,1.57-4.79,2.32-.69.31-1.13.64-.34,1.37l-1.13.52-1.05.52c-1.09.56-1.23.51-1.85-.6l8.49-5.66c-1-.55-.61-1-.07-1.58,1.74-1.71,3.42-3.47,5.19-5.15a45.77,45.77,0,0,1,4-3.48,5.6,5.6,0,0,1,4.31-1.23,2.1,2.1,0,0,1,2,2.17,5.53,5.53,0,0,0-2,0,1.85,1.85,0,0,0-.85,2.67,2,2,0,0,0,2.78.88,3.21,3.21,0,0,0,1.71-3.31,4.9,4.9,0,0,0-4.15-4.07,7.74,7.74,0,0,0-6.54,1.65c-2.31,1.8-4.43,3.86-6.63,5.81-.73.65-1.35,1.48-2.55,1.35.27.81.3,1.39-.72,1.25-.1,0-.22.08-.34.12-1.76.61-3.51,1.24-5.29,1.81-.74.24-1.08.52-.4,1.23l-2.72.94a1.41,1.41,0,0,1-1.71-.8,2,2,0,0,1,.83-1.83c1.52-.57,3-1.13,4.55-1.72.92-.35,1.82-.75,2.73-1.13a1.54,1.54,0,0,1-.08-.19l-8,2.58a3,3,0,0,0-3.14-1.61,3.34,3.34,0,0,0-2.72,2.24,5.06,5.06,0,0,0,1,5.7c2.41,2.65,5.44,3,8.7,2a1.12,1.12,0,0,1,1.33.32Q234.39,162.63,244.8,173a1.11,1.11,0,0,1,.35,1.33,8.67,8.67,0,0,0,0,5.84,6.07,6.07,0,0,0,6,4.29c1.68-.15,3.15-.79,3.76-2.5a3,3,0,0,0-1.33-3.75c.9-2.38,1.8-4.73,2.69-7.07a1.55,1.55,0,0,0-.56.7q-1.2,2.67-2.42,5.34a1.65,1.65,0,0,1-2.82.37.89.89,0,0,1-.14-.7c.35-1,.76-1.9,1.15-2.84.89.47.91.48,1.34-.49.63-1.46,1.23-2.94,1.85-4.4.3-.71.57-1.41-.23-2.17l1.22-.07-.21-.13a19.84,19.84,0,0,1,1.48-2.14c1.47-1.63,3-3.16,4.52-4.79.18-.2.35-.39.51-.6v-3.09c-2.39,3.75-5.79,6.59-8.88,9.71l-.3-.15a2.71,2.71,0,0,1,.38-.76c2.43-2.5,4.94-4.93,7.32-7.47a17,17,0,0,0,1.48-1.88v-.94a7.71,7.71,0,0,1-1,1.31c-2.43,2.67-5,5.22-7.5,7.81-.59.61-1.12,1.39-1.94,1.08a18.68,18.68,0,0,1-1.21,2c-.76.94-1.65,1.76-2.39,2.7s-1.52,2.12-2.44,3.43c-.23-.61-.64-1.15-.51-1.48a20.23,20.23,0,0,1,1.4-2.58c.88.58.9.59,1.39-.26.81-1.38,1.61-2.75,2.37-4.15.6-1.1.57-1.14-.61-1.92-1.07,1.4-2.12,2.82-3.23,4.2-.53.66-1,1.24,0,1.89l-2.1,2.64c-.6-.6-1.08-1.14-1.62-1.61s-.47-.71-.11-1.2c1.36-1.84,2.68-3.7,4-5.57a2.94,2.94,0,0,1,1.65-1.25,6.85,6.85,0,0,0,3.42-2.4,7.1,7.1,0,0,0,1.68-4.72c-.76,3.59-2.68,6.16-6.32,6.79-4.34.74-7.76-.95-10.12-4.69-1.32.86-1.32.86-.78,1.9-.74.56-1.47,1.13-2.23,1.67-.13.09-.45.14-.54.05-.67-.62-1.31-1.28-2-2l5.13-4.09.25.69a8.47,8.47,0,0,0,6.06,5.79c2.84.81,5.51.5,7.72-1.64a7.51,7.51,0,0,0,2.19-7.43,6.81,6.81,0,0,0-2.46-3.75c.88-1.27,1.78-2.34,3.51-1.54a3,3,0,0,0,.8.13,9.92,9.92,0,0,0,7.57-1.69v-3.11c-2.17,2-5.81,2.56-7.74,1.71l4.5-4.81ZM242,134.56a11.87,11.87,0,0,0-1.06.81c-3.06,2.93-6.09,5.88-9.14,8.82-.48.46-1,.85-1.54,1.27l-.19-.21C233.86,140.94,239.27,135.55,242,134.56Zm-27.23,12.1a6.16,6.16,0,0,0,1.74.55,6.93,6.93,0,0,0,1.85-.52l2.9,2.9c-1.85.64-3.58,1-5.33.11A2.24,2.24,0,0,1,214.79,146.66Zm3.05,4.77c.86,0,1.71-.09,2.57-.11s1.53-.66,2.35-.26A6.86,6.86,0,0,1,217.84,151.43Zm4.75-2.51a.9.9,0,0,1-.84-.07,17.55,17.55,0,0,1-1.39-1.36l3.08-1.6c1.32,1.54,2.26-.33,3.65-.14C225.6,146.81,224.11,147.89,222.59,148.92Zm.76,1.55c2.07-1.51,2.72-1.81,3.16-1.48C225.61,150.06,224,150.84,223.35,150.47Zm27.15,28.32c-1.08,1.1-.87,2.23-.05,3.33a2.23,2.23,0,0,1-3.27-1.31,6.64,6.64,0,0,1,.27-5.07Zm2.44-10c-.66,1.16-1.31,2.32-2,3.46-.26.44-.37.79.08,1.18a.65.65,0,0,1,.15.59c-.49.88-1,1.74-1.6,2.7a16,16,0,0,1-1.42-1.46.94.94,0,0,1-.05-.85A18.6,18.6,0,0,1,252.94,168.77ZM248,170.4c.35.52.35.52-1.37,3.19C246.12,173.14,246.59,172,248,170.4Zm-2.19,3.85h.28a2.4,2.4,0,0,1,0,.8,8.74,8.74,0,0,0-.24,5.16A7.86,7.86,0,0,1,245.82,174.25ZM243.47,162c1,.06,2,.16,3.15.25l-5.12,6.36-2.18-2.19c1.18-1.43,2.33-2.84,3.52-4.23A.88.88,0,0,1,243.47,162Zm-4.72-.78c.55.69,1,.63,1.52,0a.62.62,0,0,1,.54-.1c.55.21,1.08.46,1.79.78l-3.92,3.92-2.06-2.07Zm-2.56-2.49c.48.42,1,.76,1.59,0l.78.78c-.51.47-.75,1,.06,1.49l-2.51,2.2-2.2-2.2Zm13.05-2.35a5.47,5.47,0,0,1-7.42.17l7.06-7.51A5.36,5.36,0,0,1,249.24,156.33Zm0-9.65a1.45,1.45,0,0,1-1,.2,7.46,7.46,0,0,0-3.67,0l3.21,1.21-7.27,6.83a5.18,5.18,0,0,1-.38-3.88,8.33,8.33,0,0,1,7.94-5.72c.73,0,1.46.14,2.35.22A9.46,9.46,0,0,1,249.29,146.68Zm12.65.92a3.47,3.47,0,0,0-4.76,1.15,2.11,2.11,0,0,0,.57,2.75,2,2,0,0,0,2.81-.45c.7-.83.24-1.55-.17-2.3a2.6,2.6,0,0,1,1.55.41Z"/></g></g></svg>